{"glyphs":{"0":{"ha":692,"x_min":57,"x_max":635,"o":"m 346 -12 q 184 42 249 -12 q 88 207 119 96 q 57 489 57 318 q 88 769 57 657 q 185 936 119 881 q 346 992 250 992 q 509 936 444 992 q 604 769 574 881 q 635 490 635 658 q 603 210 635 321 q 508 43 572 99 q 346 -12 444 -12 m 346 99 q 472 190 433 99 q 511 490 511 281 q 472 789 511 697 q 347 881 433 881 q 219 789 258 881 q 181 488 181 697 q 219 190 181 281 q 346 99 258 99 z "},"1":{"ha":692,"x_min":60,"x_max":657,"o":"m 86 0 l 86 107 l 319 107 l 319 881 l 374 869 l 114 703 l 60 801 l 340 979 l 446 979 l 446 107 l 657 107 l 657 0 l 86 0 z "},"2":{"ha":692,"x_min":61,"x_max":622,"o":"m 92 0 l 92 93 l 364 453 q 421 540 399 497 q 454 626 443 583 q 465 714 465 669 q 425 837 465 793 q 315 881 385 881 q 210 858 265 881 q 107 786 154 835 l 61 883 q 187 965 115 939 q 335 992 258 992 q 472 959 414 992 q 560 866 529 926 q 592 724 592 806 q 581 633 592 678 q 550 546 569 588 q 506 464 531 504 q 454 386 481 424 l 263 117 l 260 108 l 622 108 l 622 0 l 92 0 z "},"3":{"ha":692,"x_min":57,"x_max":617,"o":"m 318 -12 q 223 -1 271 -12 q 133 33 175 10 q 57 92 90 57 l 101 192 q 206 122 149 143 q 314 100 263 100 q 404 118 364 100 q 469 174 444 136 q 493 269 493 211 q 448 398 493 354 q 318 442 403 442 l 201 442 l 201 551 l 301 551 q 391 571 351 551 q 453 631 431 590 q 475 729 475 671 q 433 843 475 807 q 325 879 392 879 q 217 858 274 879 q 114 782 161 836 l 69 882 q 192 965 119 938 q 343 992 264 992 q 476 961 419 992 q 566 874 533 931 q 599 742 599 818 q 561 596 599 658 q 458 506 524 533 l 458 501 q 538 459 503 490 q 595 381 574 428 q 617 267 617 333 q 578 117 617 179 q 474 21 540 54 q 318 -12 407 -12 z "},"4":{"ha":692,"x_min":53,"x_max":647,"o":"m 432 0 l 432 203 l 53 203 l 53 296 l 411 979 l 546 979 l 546 306 l 647 306 l 647 203 l 546 203 l 546 0 l 432 0 m 438 306 l 438 822 l 435 822 l 165 293 l 151 306 l 438 306 z "},"5":{"ha":692,"x_min":81,"x_max":638,"o":"m 343 -12 q 242 -1 289 -12 q 156 36 196 11 q 81 96 115 61 l 126 196 q 226 123 175 146 q 336 100 278 100 q 470 151 424 100 q 517 311 517 201 q 475 460 517 411 q 353 510 433 510 q 269 486 306 510 q 200 406 233 463 l 100 406 l 100 979 l 597 979 l 597 869 l 210 869 l 210 513 l 219 513 q 289 589 247 560 q 388 618 331 618 q 524 582 468 618 q 609 480 581 546 q 638 321 638 414 q 602 135 638 210 q 500 24 567 61 q 343 -12 433 -12 z "},"6":{"ha":692,"x_min":67,"x_max":633,"o":"m 361 -12 q 197 42 264 -12 q 99 203 131 96 q 67 469 67 311 q 104 755 67 639 q 215 931 142 871 q 393 992 288 992 q 488 981 446 992 q 564 947 529 969 q 633 886 599 924 l 590 788 q 502 858 549 838 q 401 879 456 879 q 299 850 342 879 q 230 768 257 821 q 191 641 203 715 q 179 476 179 567 l 179 413 l 186 413 q 222 523 196 478 q 292 592 249 568 q 390 617 335 617 q 521 579 467 617 q 604 472 575 542 q 633 308 633 403 q 601 137 633 208 q 508 26 568 65 q 361 -12 447 -12 m 368 96 q 449 119 415 96 q 499 191 482 143 q 517 306 517 239 q 499 417 517 372 q 449 486 482 463 q 368 510 415 510 q 285 485 319 510 q 231 415 250 461 q 213 303 213 369 q 230 190 213 236 q 283 119 247 143 q 368 96 318 96 z "},"7":{"ha":692,"x_min":72,"x_max":618,"o":"m 119 0 l 508 929 l 514 860 l 72 860 l 72 979 l 618 979 l 618 883 l 258 0 l 119 0 z "},"8":{"ha":692,"x_min":50,"x_max":642,"o":"m 346 -12 q 129 60 208 -12 q 50 256 50 132 q 72 375 50 324 q 133 458 93 426 q 224 499 172 489 l 224 501 q 147 543 182 513 q 92 622 113 574 q 71 732 71 669 q 144 921 71 850 q 346 992 218 992 q 547 921 472 992 q 621 732 621 850 q 600 623 621 671 q 543 544 579 575 q 465 500 507 513 l 465 499 q 556 460 517 492 q 618 376 594 428 q 642 256 642 325 q 563 60 642 132 q 346 -12 483 -12 m 346 94 q 477 141 431 94 q 524 269 524 188 q 478 398 524 353 q 346 443 432 443 q 214 398 260 443 q 168 269 168 353 q 215 141 168 188 q 346 94 261 94 m 346 550 q 461 594 418 550 q 504 719 504 639 q 462 842 504 799 q 346 885 419 885 q 230 842 272 885 q 188 719 188 799 q 231 594 188 639 q 346 550 274 550 z "},"9":{"ha":692,"x_min":58,"x_max":625,"o":"m 301 -12 q 208 -2 250 -12 q 130 31 165 8 q 60 88 94 53 l 103 185 q 194 117 149 135 q 293 100 239 100 q 394 129 353 100 q 463 211 436 158 q 502 338 490 264 q 514 503 514 413 l 514 567 l 506 567 q 470 458 497 503 q 400 390 443 413 q 301 367 357 367 q 173 403 228 367 q 88 508 118 440 q 58 671 58 575 q 91 842 58 769 q 185 953 124 914 q 331 992 247 992 q 499 938 433 992 q 594 778 564 885 q 625 510 625 672 q 588 225 625 342 q 478 48 550 108 q 301 -12 407 -12 m 325 471 q 408 494 374 471 q 462 565 443 518 q 481 676 481 613 q 463 792 481 746 q 411 860 446 838 q 325 883 376 883 q 243 859 276 883 q 193 789 210 835 q 176 675 176 743 q 194 563 176 610 q 244 494 211 517 q 325 471 278 471 z "},"A":{"ha":904,"x_min":40,"x_max":865,"o":"m 40 0 l 392 979 l 513 979 l 865 0 l 728 0 l 638 278 l 692 236 l 211 236 l 265 278 l 172 0 l 40 0 m 449 839 l 274 319 l 253 346 l 650 346 l 626 319 l 453 839 l 449 839 z "},"Á":{"ha":904,"x_min":40,"x_max":865,"o":"m 40 0 l 392 979 l 513 979 l 865 0 l 728 0 l 638 278 l 692 236 l 211 236 l 265 278 l 172 0 l 40 0 m 449 839 l 274 319 l 253 346 l 650 346 l 626 319 l 453 839 l 449 839 m 399 1063 l 532 1283 l 688 1283 l 507 1063 l 399 1063 z "},"Ă":{"ha":904,"x_min":40,"x_max":865,"o":"m 40 0 l 392 979 l 513 979 l 865 0 l 728 0 l 638 278 l 692 236 l 211 236 l 265 278 l 172 0 l 40 0 m 449 839 l 274 319 l 253 346 l 650 346 l 626 319 l 453 839 l 449 839 m 453 1056 q 310 1112 361 1056 q 257 1279 260 1168 l 344 1288 q 372 1186 346 1219 q 453 1153 397 1153 q 537 1187 513 1153 q 563 1288 561 1221 l 649 1279 q 594 1112 646 1168 q 453 1056 543 1056 z "},"Ắ":{"ha":904,"x_min":40,"x_max":865,"o":"m 40 0 l 392 979 l 513 979 l 865 0 l 728 0 l 638 278 l 692 236 l 211 236 l 265 278 l 172 0 l 40 0 m 449 839 l 274 319 l 253 346 l 650 346 l 626 319 l 453 839 l 449 839 m 453 1064 q 307 1115 357 1064 q 256 1258 257 1165 l 336 1265 q 369 1178 338 1206 q 453 1150 400 1150 q 538 1177 507 1150 q 569 1265 568 1204 l 651 1258 q 599 1115 650 1165 q 453 1064 549 1064 m 404 1242 l 493 1443 l 628 1443 l 490 1242 l 404 1242 z "},"Ặ":{"ha":904,"x_min":40,"x_max":865,"o":"m 40 0 l 392 979 l 513 979 l 865 0 l 728 0 l 638 278 l 692 236 l 211 236 l 265 278 l 172 0 l 40 0 m 449 839 l 274 319 l 253 346 l 650 346 l 626 319 l 453 839 l 449 839 m 382 -269 l 382 -133 l 521 -133 l 521 -269 l 382 -269 m 453 1056 q 310 1112 361 1056 q 257 1279 260 1168 l 344 1288 q 372 1186 346 1219 q 453 1153 397 1153 q 537 1187 513 1153 q 563 1288 561 1221 l 649 1279 q 594 1112 646 1168 q 453 1056 543 1056 z "},"Ằ":{"ha":904,"x_min":40,"x_max":865,"o":"m 40 0 l 392 979 l 513 979 l 865 0 l 728 0 l 638 278 l 692 236 l 211 236 l 265 278 l 172 0 l 40 0 m 449 839 l 274 319 l 253 346 l 650 346 l 626 319 l 453 839 l 449 839 m 453 1064 q 307 1115 357 1064 q 256 1258 257 1165 l 336 1265 q 369 1178 338 1206 q 453 1150 400 1150 q 538 1177 507 1150 q 569 1265 568 1204 l 651 1258 q 599 1115 650 1165 q 453 1064 549 1064 m 418 1242 l 288 1443 l 419 1443 l 506 1242 l 418 1242 z "},"Ẳ":{"ha":904,"x_min":40,"x_max":865,"o":"m 40 0 l 392 979 l 513 979 l 865 0 l 728 0 l 638 278 l 692 236 l 211 236 l 265 278 l 172 0 l 40 0 m 449 839 l 274 319 l 253 346 l 650 346 l 626 319 l 453 839 l 449 839 m 453 1064 q 307 1115 357 1064 q 256 1258 257 1165 l 336 1265 q 369 1178 338 1206 q 453 1150 400 1150 q 538 1177 507 1150 q 569 1265 568 1204 l 651 1258 q 599 1115 650 1165 q 453 1064 549 1064 m 413 1239 q 421 1278 413 1263 q 440 1306 429 1293 q 460 1331 451 1319 q 468 1356 468 1342 q 456 1381 468 1371 q 419 1390 443 1390 q 388 1384 406 1390 q 356 1369 371 1378 l 336 1429 q 388 1451 357 1443 q 457 1460 418 1460 q 542 1439 511 1460 q 572 1381 572 1418 q 560 1336 572 1354 q 533 1306 549 1318 q 506 1277 518 1293 q 493 1239 494 1261 l 413 1239 z "},"Ẵ":{"ha":904,"x_min":40,"x_max":865,"o":"m 40 0 l 392 979 l 513 979 l 865 0 l 728 0 l 638 278 l 692 236 l 211 236 l 265 278 l 172 0 l 40 0 m 449 839 l 274 319 l 253 346 l 650 346 l 626 319 l 453 839 l 449 839 m 453 1064 q 313 1109 364 1064 q 256 1233 261 1154 l 333 1240 q 374 1169 343 1192 q 453 1146 406 1146 q 533 1169 503 1146 q 572 1240 564 1192 l 651 1233 q 594 1108 646 1153 q 453 1064 543 1064 m 324 1303 l 253 1308 q 269 1382 257 1351 q 307 1430 282 1413 q 371 1447 332 1447 q 430 1433 406 1447 q 469 1408 454 1418 q 494 1391 476 1403 q 533 1379 513 1379 q 567 1398 556 1379 q 582 1450 579 1417 l 654 1444 q 619 1341 649 1378 q 533 1304 590 1304 q 475 1319 499 1304 q 442 1340 451 1333 q 406 1364 421 1354 q 372 1374 390 1374 q 340 1356 351 1374 q 324 1303 329 1338 z "},"Ǎ":{"ha":904,"x_min":40,"x_max":865,"o":"m 40 0 l 392 979 l 513 979 l 865 0 l 728 0 l 638 278 l 692 236 l 211 236 l 265 278 l 172 0 l 40 0 m 449 839 l 274 319 l 253 346 l 650 346 l 626 319 l 453 839 l 449 839 m 393 1063 l 251 1279 l 353 1279 l 453 1140 l 554 1279 l 654 1279 l 513 1063 l 393 1063 z "},"Â":{"ha":904,"x_min":40,"x_max":865,"o":"m 40 0 l 392 979 l 513 979 l 865 0 l 728 0 l 638 278 l 692 236 l 211 236 l 265 278 l 172 0 l 40 0 m 449 839 l 274 319 l 253 346 l 650 346 l 626 319 l 453 839 l 449 839 m 251 1063 l 393 1279 l 513 1279 l 654 1063 l 553 1063 l 453 1203 l 351 1063 l 251 1063 z "},"Ấ":{"ha":904,"x_min":40,"x_max":865,"o":"m 40 0 l 392 979 l 513 979 l 865 0 l 728 0 l 638 278 l 692 236 l 211 236 l 265 278 l 172 0 l 40 0 m 449 839 l 274 319 l 253 346 l 650 346 l 626 319 l 453 839 l 449 839 m 261 1067 l 394 1285 l 515 1285 l 647 1067 l 549 1067 l 454 1208 l 358 1067 l 261 1067 m 579 1229 l 663 1440 l 778 1440 l 661 1229 l 579 1229 z "},"Ậ":{"ha":904,"x_min":40,"x_max":865,"o":"m 40 0 l 392 979 l 513 979 l 865 0 l 728 0 l 638 278 l 692 236 l 211 236 l 265 278 l 172 0 l 40 0 m 449 839 l 274 319 l 253 346 l 650 346 l 626 319 l 453 839 l 449 839 m 382 -269 l 382 -133 l 521 -133 l 521 -269 l 382 -269 m 251 1063 l 393 1279 l 513 1279 l 654 1063 l 553 1063 l 453 1203 l 351 1063 l 251 1063 z "},"Ầ":{"ha":904,"x_min":40,"x_max":865,"o":"m 40 0 l 392 979 l 513 979 l 865 0 l 728 0 l 638 278 l 692 236 l 211 236 l 265 278 l 172 0 l 40 0 m 449 839 l 274 319 l 253 346 l 650 346 l 626 319 l 453 839 l 449 839 m 261 1067 l 394 1285 l 515 1285 l 647 1067 l 549 1067 l 454 1208 l 358 1067 l 261 1067 m 622 1229 l 508 1440 l 622 1440 l 704 1229 l 622 1229 z "},"Ẩ":{"ha":904,"x_min":40,"x_max":865,"o":"m 40 0 l 392 979 l 513 979 l 865 0 l 728 0 l 638 278 l 692 236 l 211 236 l 265 278 l 172 0 l 40 0 m 449 839 l 274 319 l 253 346 l 650 346 l 626 319 l 453 839 l 449 839 m 261 1067 l 394 1261 l 515 1261 l 647 1067 l 549 1067 l 454 1197 l 358 1067 l 261 1067 m 572 1229 q 581 1267 572 1251 q 603 1297 590 1283 q 624 1324 615 1311 q 632 1349 632 1336 q 619 1374 632 1365 q 585 1382 607 1382 q 553 1376 569 1382 q 524 1361 538 1369 l 504 1419 q 553 1441 524 1433 q 619 1449 582 1449 q 700 1428 671 1449 q 729 1372 729 1408 q 718 1328 729 1346 q 692 1297 707 1311 q 666 1267 678 1283 q 654 1229 654 1251 l 572 1229 z "},"Ẫ":{"ha":904,"x_min":40,"x_max":865,"o":"m 40 0 l 392 979 l 513 979 l 865 0 l 728 0 l 638 278 l 692 236 l 211 236 l 265 278 l 172 0 l 40 0 m 449 839 l 274 319 l 253 346 l 650 346 l 626 319 l 453 839 l 449 839 m 260 1067 l 393 1243 l 514 1243 l 646 1067 l 547 1067 l 453 1181 l 358 1067 l 260 1067 m 324 1294 l 253 1299 q 286 1403 258 1365 q 371 1440 314 1440 q 430 1426 406 1440 q 469 1401 454 1411 q 494 1384 476 1396 q 533 1372 513 1372 q 566 1389 554 1372 q 582 1443 578 1406 l 654 1438 q 619 1334 649 1371 q 533 1297 590 1297 q 475 1311 499 1297 q 442 1332 451 1325 q 406 1355 421 1346 q 372 1364 390 1364 q 342 1348 354 1364 q 324 1294 329 1332 z "},"Ȁ":{"ha":904,"x_min":40,"x_max":865,"o":"m 40 0 l 392 979 l 513 979 l 865 0 l 728 0 l 638 278 l 692 236 l 211 236 l 265 278 l 172 0 l 40 0 m 449 839 l 274 319 l 253 346 l 650 346 l 626 319 l 453 839 l 449 839 m 494 1063 l 353 1279 l 481 1279 l 576 1063 l 494 1063 m 328 1063 l 175 1279 l 301 1279 l 408 1063 l 328 1063 z "},"Ä":{"ha":904,"x_min":40,"x_max":865,"o":"m 40 0 l 392 979 l 513 979 l 865 0 l 728 0 l 638 278 l 692 236 l 211 236 l 265 278 l 172 0 l 40 0 m 449 839 l 274 319 l 253 346 l 650 346 l 626 319 l 453 839 l 449 839 m 506 1110 l 506 1242 l 642 1242 l 642 1110 l 506 1110 m 264 1110 l 264 1242 l 400 1242 l 400 1110 l 264 1110 z "},"Ȧ":{"ha":904,"x_min":40,"x_max":865,"o":"m 40 0 l 392 979 l 513 979 l 865 0 l 728 0 l 638 278 l 692 236 l 211 236 l 265 278 l 172 0 l 40 0 m 449 839 l 274 319 l 253 346 l 650 346 l 626 319 l 453 839 l 449 839 m 379 1114 l 379 1256 l 525 1256 l 525 1114 l 379 1114 z "},"Ạ":{"ha":904,"x_min":40,"x_max":865,"o":"m 40 0 l 392 979 l 513 979 l 865 0 l 728 0 l 638 278 l 692 236 l 211 236 l 265 278 l 172 0 l 40 0 m 449 839 l 274 319 l 253 346 l 650 346 l 626 319 l 453 839 l 449 839 m 382 -269 l 382 -133 l 521 -133 l 521 -269 l 382 -269 z "},"À":{"ha":904,"x_min":40,"x_max":865,"o":"m 40 0 l 392 979 l 513 979 l 865 0 l 728 0 l 638 278 l 692 236 l 211 236 l 265 278 l 172 0 l 40 0 m 449 839 l 274 319 l 253 346 l 650 346 l 626 319 l 453 839 l 449 839 m 404 1063 l 224 1279 l 369 1279 l 504 1063 l 404 1063 z "},"Ả":{"ha":904,"x_min":40,"x_max":865,"o":"m 40 0 l 392 979 l 513 979 l 865 0 l 728 0 l 638 278 l 692 236 l 211 236 l 265 278 l 172 0 l 40 0 m 449 839 l 274 319 l 253 346 l 650 346 l 626 319 l 453 839 l 449 839 m 410 1063 l 410 1089 q 419 1128 410 1113 q 442 1157 429 1144 q 464 1181 454 1169 q 474 1208 474 1193 q 464 1231 474 1225 q 433 1238 454 1238 q 395 1235 415 1238 q 357 1222 375 1232 l 338 1286 q 391 1306 361 1300 q 457 1313 421 1313 q 547 1291 515 1313 q 578 1228 578 1269 q 565 1181 578 1199 q 536 1149 553 1163 q 507 1120 519 1135 q 494 1083 494 1106 l 494 1063 l 410 1063 z "},"Ȃ":{"ha":904,"x_min":40,"x_max":865,"o":"m 40 0 l 392 979 l 513 979 l 865 0 l 728 0 l 638 278 l 692 236 l 211 236 l 265 278 l 172 0 l 40 0 m 449 839 l 274 319 l 253 346 l 650 346 l 626 319 l 453 839 l 449 839 m 344 1056 l 257 1064 q 310 1232 260 1176 q 453 1288 361 1288 q 595 1231 544 1288 q 649 1064 646 1174 l 563 1056 q 537 1155 561 1121 q 454 1189 513 1189 q 373 1156 399 1189 q 344 1056 347 1124 z "},"Ā":{"ha":904,"x_min":40,"x_max":865,"o":"m 40 0 l 392 979 l 513 979 l 865 0 l 728 0 l 638 278 l 692 236 l 211 236 l 265 278 l 172 0 l 40 0 m 449 839 l 274 319 l 253 346 l 650 346 l 626 319 l 453 839 l 449 839 m 257 1126 l 257 1228 l 649 1228 l 649 1126 l 257 1126 z "},"Ą":{"ha":904,"x_min":40,"x_max":890,"o":"m 40 0 l 392 979 l 513 979 l 865 0 l 728 0 l 638 278 l 692 236 l 211 236 l 265 278 l 172 0 l 40 0 m 449 839 l 274 319 l 253 346 l 650 346 l 626 319 l 453 839 l 449 839 m 796 -276 q 694 -242 732 -276 q 657 -147 657 -208 q 690 -42 657 -92 q 778 44 724 7 l 822 0 q 785 -33 801 -14 q 761 -76 769 -53 q 753 -124 753 -99 q 769 -174 753 -157 q 813 -190 785 -190 q 840 -186 825 -190 q 871 -176 856 -182 l 892 -254 q 846 -271 868 -265 q 796 -276 824 -276 z "},"Å":{"ha":904,"x_min":40,"x_max":865,"o":"m 40 0 l 392 979 l 513 979 l 865 0 l 728 0 l 638 278 l 692 236 l 211 236 l 265 278 l 172 0 l 40 0 m 449 839 l 274 319 l 253 346 l 650 346 l 626 319 l 453 839 l 449 839 m 453 1050 q 370 1072 406 1050 q 313 1130 335 1093 q 292 1211 292 1167 q 313 1293 292 1257 q 369 1351 333 1329 q 453 1372 406 1372 q 535 1351 499 1372 q 593 1293 572 1329 q 614 1211 614 1257 q 593 1130 614 1167 q 535 1072 572 1093 q 453 1050 499 1050 m 451 1113 q 518 1141 492 1113 q 544 1211 544 1169 q 518 1282 544 1256 q 451 1308 492 1308 q 388 1281 414 1308 q 361 1213 361 1254 q 387 1140 361 1168 q 451 1113 413 1113 z "},"Ǻ":{"ha":904,"x_min":40,"x_max":865,"o":"m 40 0 l 392 979 l 513 979 l 865 0 l 728 0 l 638 278 l 692 236 l 211 236 l 265 278 l 172 0 l 40 0 m 449 839 l 274 319 l 253 346 l 650 346 l 626 319 l 453 839 l 449 839 m 453 1056 q 365 1078 404 1056 q 303 1140 326 1101 q 281 1228 281 1179 q 303 1315 281 1276 q 365 1376 326 1353 q 453 1399 404 1399 q 501 1392 479 1399 q 543 1374 522 1385 l 599 1453 l 722 1453 l 597 1321 q 617 1278 610 1301 q 625 1228 625 1254 q 603 1140 625 1179 q 542 1078 581 1101 q 453 1056 503 1056 m 453 1125 q 522 1154 494 1125 q 549 1228 549 1183 q 522 1302 549 1274 q 453 1331 494 1331 q 384 1302 411 1331 q 357 1228 357 1274 q 384 1154 357 1183 q 453 1125 411 1125 z "},"Ã":{"ha":904,"x_min":40,"x_max":865,"o":"m 40 0 l 392 979 l 513 979 l 865 0 l 728 0 l 638 278 l 692 236 l 211 236 l 265 278 l 172 0 l 40 0 m 449 839 l 274 319 l 253 346 l 650 346 l 626 319 l 453 839 l 449 839 m 286 1076 l 206 1082 q 241 1209 204 1160 q 342 1258 278 1258 q 420 1239 386 1258 q 472 1210 454 1219 q 508 1188 485 1201 q 557 1174 532 1174 q 604 1198 588 1174 q 619 1264 621 1222 l 700 1258 q 666 1131 703 1181 q 565 1082 629 1082 q 486 1101 519 1082 q 439 1129 453 1121 q 399 1153 424 1139 q 349 1167 374 1167 q 303 1143 319 1167 q 286 1076 286 1119 z "},"Æ":{"ha":1207,"x_min":-6,"x_max":1103,"o":"m -6 0 l 454 979 l 1103 979 l 1103 867 l 593 867 l 642 924 l 710 513 l 635 553 l 1081 553 l 1081 439 l 657 439 l 715 478 l 785 58 l 718 113 l 1103 113 l 1103 0 l 663 0 l 615 282 l 658 235 l 213 235 l 267 281 l 136 0 l -6 0 m 515 846 l 278 319 l 260 344 l 632 344 l 610 317 l 521 846 l 515 846 z "},"Ǽ":{"ha":1207,"x_min":-6,"x_max":1103,"o":"m -6 0 l 454 979 l 1103 979 l 1103 867 l 593 867 l 642 924 l 710 513 l 635 553 l 1081 553 l 1081 439 l 657 439 l 715 478 l 785 58 l 718 113 l 1103 113 l 1103 0 l 663 0 l 615 282 l 658 235 l 213 235 l 267 281 l 136 0 l -6 0 m 515 846 l 278 319 l 260 344 l 632 344 l 610 317 l 521 846 l 515 846 m 531 1063 l 664 1283 l 819 1283 l 639 1063 l 531 1063 z "},"B":{"ha":864,"x_min":129,"x_max":767,"o":"m 129 0 l 129 979 l 467 979 q 673 915 599 979 q 747 728 747 850 q 715 579 747 635 q 629 506 682 524 l 629 503 q 697 465 665 493 q 748 388 729 436 q 767 268 767 339 q 733 124 767 185 q 634 32 699 64 q 478 0 569 0 l 129 0 m 258 110 l 472 110 q 532 117 506 110 q 578 138 558 125 q 612 172 599 151 q 631 217 625 192 q 638 274 638 243 q 631 335 638 308 q 611 382 624 363 q 578 415 599 401 q 533 434 558 428 q 476 440 507 440 l 258 440 l 258 110 m 258 550 l 457 550 q 576 593 535 550 q 617 718 617 636 q 578 831 617 793 q 454 869 540 869 l 258 869 l 258 550 z "},"Ɓ":{"ha":1011,"x_min":21,"x_max":914,"o":"m 275 0 l 275 876 l 240 876 q 152 847 175 876 q 129 743 129 818 l 129 679 l 21 679 l 21 747 q 75 924 21 868 q 240 979 129 979 l 621 979 q 824 915 753 979 q 894 728 894 850 q 862 579 894 635 q 775 506 829 524 l 775 503 q 844 465 813 493 q 894 388 875 436 q 914 268 914 339 q 879 124 914 185 q 781 32 844 64 q 625 0 717 0 l 275 0 m 404 108 l 618 108 q 743 151 703 108 q 783 272 783 193 q 742 401 783 361 q 622 442 701 442 l 404 442 l 404 108 m 404 549 l 604 549 q 723 592 682 549 q 764 718 764 635 q 725 833 764 794 q 601 871 686 871 l 404 871 l 404 549 z "},"C":{"ha":832,"x_min":97,"x_max":747,"o":"m 475 -14 q 272 44 357 -14 q 142 214 188 101 q 97 489 97 326 q 142 766 97 654 q 271 935 186 878 q 475 992 356 992 q 629 966 561 992 q 747 886 697 940 l 704 788 q 601 856 654 835 q 485 876 549 876 q 295 785 361 876 q 229 490 229 693 q 295 196 229 289 q 485 103 361 103 q 601 124 549 103 q 704 192 654 144 l 747 93 q 628 13 697 40 q 475 -14 560 -14 z "},"Ć":{"ha":832,"x_min":97,"x_max":747,"o":"m 475 -14 q 272 44 357 -14 q 142 214 188 101 q 97 489 97 326 q 142 766 97 654 q 271 935 186 878 q 475 992 356 992 q 629 966 561 992 q 747 886 697 940 l 704 788 q 601 856 654 835 q 485 876 549 876 q 295 785 361 876 q 229 490 229 693 q 295 196 229 289 q 485 103 361 103 q 601 124 549 103 q 704 192 654 144 l 747 93 q 628 13 697 40 q 475 -14 560 -14 m 415 1063 l 549 1283 l 704 1283 l 524 1063 l 415 1063 z "},"Č":{"ha":832,"x_min":97,"x_max":747,"o":"m 475 -14 q 272 44 357 -14 q 142 214 188 101 q 97 489 97 326 q 142 766 97 654 q 271 935 186 878 q 475 992 356 992 q 629 966 561 992 q 747 886 697 940 l 704 788 q 601 856 654 835 q 485 876 549 876 q 295 785 361 876 q 229 490 229 693 q 295 196 229 289 q 485 103 361 103 q 601 124 549 103 q 704 192 654 144 l 747 93 q 628 13 697 40 q 475 -14 560 -14 m 410 1063 l 268 1279 l 369 1279 l 469 1140 l 571 1279 l 671 1279 l 529 1063 l 410 1063 z "},"Ç":{"ha":832,"x_min":97,"x_max":747,"o":"m 475 -14 q 272 44 357 -14 q 142 214 188 101 q 97 489 97 326 q 142 766 97 654 q 271 935 186 878 q 475 992 356 992 q 629 966 561 992 q 747 886 697 940 l 704 788 q 601 856 654 835 q 485 876 549 876 q 295 785 361 876 q 229 490 229 693 q 295 196 229 289 q 485 103 361 103 q 601 124 549 103 q 704 192 654 144 l 747 93 q 628 13 697 40 q 475 -14 560 -14 m 479 -275 q 414 -268 449 -275 q 358 -249 379 -261 l 379 -182 q 422 -200 399 -193 q 474 -207 446 -207 q 525 -195 508 -207 q 542 -158 542 -183 q 528 -126 542 -136 q 492 -115 514 -115 q 465 -118 481 -115 q 438 -125 450 -121 l 414 -104 l 435 28 l 504 28 l 488 -83 l 456 -68 q 487 -60 467 -62 q 529 -57 507 -57 q 578 -68 556 -57 q 616 -102 601 -79 q 631 -158 631 -125 q 612 -223 631 -197 q 558 -262 593 -249 q 479 -275 524 -275 z "},"Ḉ":{"ha":832,"x_min":97,"x_max":747,"o":"m 475 -14 q 272 44 357 -14 q 142 214 188 101 q 97 489 97 326 q 142 766 97 654 q 271 935 186 878 q 475 992 356 992 q 629 966 561 992 q 747 886 697 940 l 704 788 q 601 856 654 835 q 485 876 549 876 q 295 785 361 876 q 229 490 229 693 q 295 196 229 289 q 485 103 361 103 q 601 124 549 103 q 704 192 654 144 l 747 93 q 628 13 697 40 q 475 -14 560 -14 m 479 -275 q 414 -268 449 -275 q 358 -249 379 -261 l 379 -182 q 422 -200 399 -193 q 474 -207 446 -207 q 525 -195 508 -207 q 542 -158 542 -183 q 528 -126 542 -136 q 492 -115 514 -115 q 465 -118 481 -115 q 438 -125 450 -121 l 414 -104 l 435 28 l 504 28 l 488 -83 l 456 -68 q 487 -60 467 -62 q 529 -57 507 -57 q 578 -68 556 -57 q 616 -102 601 -79 q 631 -158 631 -125 q 612 -223 631 -197 q 558 -262 593 -249 q 479 -275 524 -275 m 415 1063 l 549 1283 l 704 1283 l 524 1063 l 415 1063 z "},"Ĉ":{"ha":832,"x_min":97,"x_max":747,"o":"m 475 -14 q 272 44 357 -14 q 142 214 188 101 q 97 489 97 326 q 142 766 97 654 q 271 935 186 878 q 475 992 356 992 q 629 966 561 992 q 747 886 697 940 l 704 788 q 601 856 654 835 q 485 876 549 876 q 295 785 361 876 q 229 490 229 693 q 295 196 229 289 q 485 103 361 103 q 601 124 549 103 q 704 192 654 144 l 747 93 q 628 13 697 40 q 475 -14 560 -14 m 268 1063 l 410 1279 l 529 1279 l 671 1063 l 569 1063 l 469 1203 l 368 1063 l 268 1063 z "},"Ċ":{"ha":832,"x_min":97,"x_max":747,"o":"m 475 -14 q 272 44 357 -14 q 142 214 188 101 q 97 489 97 326 q 142 766 97 654 q 271 935 186 878 q 475 992 356 992 q 629 966 561 992 q 747 886 697 940 l 704 788 q 601 856 654 835 q 485 876 549 876 q 295 785 361 876 q 229 490 229 693 q 295 196 229 289 q 485 103 361 103 q 601 124 549 103 q 704 192 654 144 l 747 93 q 628 13 697 40 q 475 -14 560 -14 m 396 1114 l 396 1256 l 542 1256 l 542 1114 l 396 1114 z "},"D":{"ha":926,"x_min":129,"x_max":829,"o":"m 129 0 l 129 979 l 436 979 q 653 924 567 979 q 785 760 740 868 q 829 490 829 651 q 785 220 829 329 q 653 56 740 111 q 436 0 565 0 l 129 0 m 258 114 l 429 114 q 630 203 564 114 q 696 490 696 292 q 631 777 696 689 q 429 865 565 865 l 258 865 l 258 114 z "},"Ǆ":{"ha":1635,"x_min":129,"x_max":1576,"o":"m 129 0 l 129 979 l 436 979 q 653 924 567 979 q 785 760 740 868 q 829 490 829 651 q 785 220 829 329 q 653 56 740 111 q 436 0 565 0 l 129 0 m 258 114 l 429 114 q 630 203 564 114 q 696 490 696 292 q 631 777 696 689 q 429 865 565 865 l 258 865 l 258 114 m 979 0 l 979 86 l 1440 921 l 1456 865 l 979 865 l 979 979 l 1564 979 l 1564 894 l 1101 58 l 1086 114 l 1576 114 l 1576 0 l 979 0 m 1211 1063 l 1069 1279 l 1171 1279 l 1271 1140 l 1372 1279 l 1472 1279 l 1331 1063 l 1211 1063 z "},"Ð":{"ha":926,"x_min":32,"x_max":829,"o":"m 129 0 l 129 979 l 436 979 q 653 924 567 979 q 785 760 740 868 q 829 490 829 651 q 785 220 829 329 q 653 56 740 111 q 436 0 565 0 l 129 0 m 258 114 l 429 114 q 630 203 564 114 q 696 490 696 292 q 631 777 696 689 q 429 865 565 865 l 258 865 l 258 114 m 32 442 l 32 553 l 494 553 l 494 442 l 32 442 z "},"Ď":{"ha":926,"x_min":129,"x_max":829,"o":"m 129 0 l 129 979 l 436 979 q 653 924 567 979 q 785 760 740 868 q 829 490 829 651 q 785 220 829 329 q 653 56 740 111 q 436 0 565 0 l 129 0 m 258 114 l 429 114 q 630 203 564 114 q 696 490 696 292 q 631 777 696 689 q 429 865 565 865 l 258 865 l 258 114 m 406 1063 l 264 1279 l 365 1279 l 465 1140 l 567 1279 l 667 1279 l 525 1063 l 406 1063 z "},"Đ":{"ha":926,"x_min":32,"x_max":829,"o":"m 129 0 l 129 979 l 436 979 q 653 924 567 979 q 785 760 740 868 q 829 490 829 651 q 785 220 829 329 q 653 56 740 111 q 436 0 565 0 l 129 0 m 258 114 l 429 114 q 630 203 564 114 q 696 490 696 292 q 631 777 696 689 q 429 865 565 865 l 258 865 l 258 114 m 32 442 l 32 553 l 494 553 l 494 442 l 32 442 z "},"Ḍ":{"ha":926,"x_min":129,"x_max":829,"o":"m 129 0 l 129 979 l 436 979 q 653 924 567 979 q 785 760 740 868 q 829 490 829 651 q 785 220 829 329 q 653 56 740 111 q 436 0 565 0 l 129 0 m 258 114 l 429 114 q 630 203 564 114 q 696 490 696 292 q 631 777 696 689 q 429 865 565 865 l 258 865 l 258 114 m 396 -269 l 396 -133 l 535 -133 l 535 -269 l 396 -269 z "},"Ɗ":{"ha":1072,"x_min":21,"x_max":975,"o":"m 275 0 l 275 876 l 240 876 q 152 847 175 876 q 129 743 129 818 l 129 679 l 21 679 l 21 747 q 76 924 21 868 q 249 979 131 979 l 583 979 q 799 924 713 979 q 931 760 886 868 q 975 490 975 651 q 931 220 975 329 q 799 56 886 111 q 583 0 711 0 l 275 0 m 406 114 l 575 114 q 776 203 710 114 q 842 490 842 292 q 776 777 842 689 q 575 865 711 865 l 406 865 l 406 114 z "},"Ḏ":{"ha":926,"x_min":129,"x_max":829,"o":"m 129 0 l 129 979 l 436 979 q 653 924 567 979 q 785 760 740 868 q 829 490 829 651 q 785 220 829 329 q 653 56 740 111 q 436 0 565 0 l 129 0 m 258 114 l 429 114 q 630 203 564 114 q 696 490 696 292 q 631 777 696 689 q 429 865 565 865 l 258 865 l 258 114 m 272 -235 l 272 -133 l 658 -133 l 658 -235 l 272 -235 z "},"ǅ":{"ha":1564,"x_min":129,"x_max":1497,"o":"m 129 0 l 129 979 l 436 979 q 653 924 567 979 q 785 760 740 868 q 829 490 829 651 q 785 220 829 329 q 653 56 740 111 q 436 0 565 0 l 129 0 m 258 114 l 429 114 q 630 203 564 114 q 696 490 696 292 q 631 777 696 689 q 429 865 565 865 l 258 865 l 258 114 m 1001 0 l 1001 83 l 1356 628 l 1364 583 l 1013 583 l 1013 690 l 1483 690 l 1483 607 l 1128 63 l 1119 108 l 1499 108 l 1499 0 l 1001 0 m 1192 778 l 1063 1033 l 1161 1033 l 1253 860 l 1346 1033 l 1443 1033 l 1314 778 l 1192 778 z "},"E":{"ha":772,"x_min":129,"x_max":667,"o":"m 129 0 l 129 979 l 667 979 l 667 867 l 258 867 l 258 553 l 636 553 l 636 439 l 258 439 l 258 113 l 667 113 l 667 0 l 129 0 z "},"É":{"ha":772,"x_min":129,"x_max":667,"o":"m 129 0 l 129 979 l 667 979 l 667 867 l 258 867 l 258 553 l 636 553 l 636 439 l 258 439 l 258 113 l 667 113 l 667 0 l 129 0 m 353 1063 l 486 1283 l 642 1283 l 461 1063 l 353 1063 z "},"Ĕ":{"ha":772,"x_min":129,"x_max":667,"o":"m 129 0 l 129 979 l 667 979 l 667 867 l 258 867 l 258 553 l 636 553 l 636 439 l 258 439 l 258 113 l 667 113 l 667 0 l 129 0 m 407 1056 q 265 1112 315 1056 q 211 1279 214 1168 l 299 1288 q 326 1186 300 1219 q 407 1153 351 1153 q 491 1187 467 1153 q 517 1288 515 1221 l 603 1279 q 549 1112 600 1168 q 407 1056 497 1056 z "},"Ě":{"ha":772,"x_min":129,"x_max":667,"o":"m 129 0 l 129 979 l 667 979 l 667 867 l 258 867 l 258 553 l 636 553 l 636 439 l 258 439 l 258 113 l 667 113 l 667 0 l 129 0 m 347 1063 l 206 1279 l 307 1279 l 407 1140 l 508 1279 l 608 1279 l 467 1063 l 347 1063 z "},"Ȩ":{"ha":772,"x_min":129,"x_max":667,"o":"m 129 0 l 129 979 l 667 979 l 667 867 l 258 867 l 258 553 l 636 553 l 636 439 l 258 439 l 258 113 l 667 113 l 667 0 l 129 0 m 415 -275 q 350 -268 385 -275 q 294 -249 315 -261 l 315 -182 q 358 -200 335 -193 q 410 -207 382 -207 q 461 -195 444 -207 q 478 -158 478 -183 q 464 -126 478 -136 q 428 -115 450 -115 q 401 -118 417 -115 q 374 -125 386 -121 l 350 -104 l 371 28 l 440 28 l 424 -83 l 392 -68 q 423 -60 403 -62 q 465 -57 443 -57 q 515 -68 492 -57 q 552 -102 538 -79 q 567 -158 567 -125 q 548 -223 567 -197 q 494 -262 529 -249 q 415 -275 460 -275 z "},"Ḝ":{"ha":772,"x_min":129,"x_max":667,"o":"m 129 0 l 129 979 l 667 979 l 667 867 l 258 867 l 258 553 l 636 553 l 636 439 l 258 439 l 258 113 l 667 113 l 667 0 l 129 0 m 415 -275 q 350 -268 385 -275 q 294 -249 315 -261 l 315 -182 q 358 -200 335 -193 q 410 -207 382 -207 q 461 -195 444 -207 q 478 -158 478 -183 q 464 -126 478 -136 q 428 -115 450 -115 q 401 -118 417 -115 q 374 -125 386 -121 l 350 -104 l 371 28 l 440 28 l 424 -83 l 392 -68 q 423 -60 403 -62 q 465 -57 443 -57 q 515 -68 492 -57 q 552 -102 538 -79 q 567 -158 567 -125 q 548 -223 567 -197 q 494 -262 529 -249 q 415 -275 460 -275 m 407 1056 q 265 1112 315 1056 q 211 1279 214 1168 l 299 1288 q 326 1186 300 1219 q 407 1153 351 1153 q 491 1187 467 1153 q 517 1288 515 1221 l 603 1279 q 549 1112 600 1168 q 407 1056 497 1056 z "},"Ê":{"ha":772,"x_min":129,"x_max":667,"o":"m 129 0 l 129 979 l 667 979 l 667 867 l 258 867 l 258 553 l 636 553 l 636 439 l 258 439 l 258 113 l 667 113 l 667 0 l 129 0 m 206 1063 l 347 1279 l 467 1279 l 608 1063 l 507 1063 l 407 1203 l 306 1063 l 206 1063 z "},"Ế":{"ha":772,"x_min":129,"x_max":732,"o":"m 129 0 l 129 979 l 667 979 l 667 867 l 258 867 l 258 553 l 636 553 l 636 439 l 258 439 l 258 113 l 667 113 l 667 0 l 129 0 m 215 1067 l 349 1285 l 469 1285 l 601 1067 l 503 1067 l 408 1208 l 313 1067 l 215 1067 m 533 1229 l 617 1440 l 732 1440 l 615 1229 l 533 1229 z "},"Ệ":{"ha":772,"x_min":129,"x_max":667,"o":"m 129 0 l 129 979 l 667 979 l 667 867 l 258 867 l 258 553 l 636 553 l 636 439 l 258 439 l 258 113 l 667 113 l 667 0 l 129 0 m 338 -269 l 338 -133 l 476 -133 l 476 -269 l 338 -269 m 206 1063 l 347 1279 l 467 1279 l 608 1063 l 507 1063 l 407 1203 l 306 1063 l 206 1063 z "},"Ề":{"ha":772,"x_min":129,"x_max":667,"o":"m 129 0 l 129 979 l 667 979 l 667 867 l 258 867 l 258 553 l 636 553 l 636 439 l 258 439 l 258 113 l 667 113 l 667 0 l 129 0 m 215 1067 l 349 1285 l 469 1285 l 601 1067 l 503 1067 l 408 1208 l 313 1067 l 215 1067 m 576 1229 l 463 1440 l 576 1440 l 658 1229 l 576 1229 z "},"Ể":{"ha":772,"x_min":129,"x_max":683,"o":"m 129 0 l 129 979 l 667 979 l 667 867 l 258 867 l 258 553 l 636 553 l 636 439 l 258 439 l 258 113 l 667 113 l 667 0 l 129 0 m 215 1067 l 349 1261 l 469 1261 l 601 1067 l 503 1067 l 408 1197 l 313 1067 l 215 1067 m 526 1229 q 535 1267 526 1251 q 557 1297 544 1283 q 578 1324 569 1311 q 586 1349 586 1336 q 574 1374 586 1365 q 539 1382 561 1382 q 508 1376 524 1382 q 478 1361 492 1369 l 458 1419 q 507 1441 478 1433 q 574 1449 536 1449 q 654 1428 625 1449 q 683 1372 683 1408 q 672 1328 683 1346 q 647 1297 661 1311 q 620 1267 632 1283 q 608 1229 608 1251 l 526 1229 z "},"Ễ":{"ha":772,"x_min":129,"x_max":667,"o":"m 129 0 l 129 979 l 667 979 l 667 867 l 258 867 l 258 553 l 636 553 l 636 439 l 258 439 l 258 113 l 667 113 l 667 0 l 129 0 m 214 1067 l 347 1243 l 468 1243 l 600 1067 l 501 1067 l 407 1181 l 313 1067 l 214 1067 m 278 1294 l 207 1299 q 240 1403 213 1365 q 325 1440 268 1440 q 384 1426 360 1440 q 424 1401 408 1411 q 449 1384 431 1396 q 488 1372 467 1372 q 520 1389 508 1372 q 536 1443 532 1406 l 608 1438 q 574 1334 603 1371 q 488 1297 544 1297 q 429 1311 453 1297 q 396 1332 406 1325 q 360 1355 375 1346 q 326 1364 344 1364 q 296 1348 308 1364 q 278 1294 283 1332 z "},"Ȅ":{"ha":772,"x_min":129,"x_max":667,"o":"m 129 0 l 129 979 l 667 979 l 667 867 l 258 867 l 258 553 l 636 553 l 636 439 l 258 439 l 258 113 l 667 113 l 667 0 l 129 0 m 449 1063 l 307 1279 l 435 1279 l 531 1063 l 449 1063 m 282 1063 l 129 1279 l 256 1279 l 363 1063 l 282 1063 z "},"Ë":{"ha":772,"x_min":129,"x_max":667,"o":"m 129 0 l 129 979 l 667 979 l 667 867 l 258 867 l 258 553 l 636 553 l 636 439 l 258 439 l 258 113 l 667 113 l 667 0 l 129 0 m 460 1110 l 460 1242 l 596 1242 l 596 1110 l 460 1110 m 218 1110 l 218 1242 l 354 1242 l 354 1110 l 218 1110 z "},"Ė":{"ha":772,"x_min":129,"x_max":667,"o":"m 129 0 l 129 979 l 667 979 l 667 867 l 258 867 l 258 553 l 636 553 l 636 439 l 258 439 l 258 113 l 667 113 l 667 0 l 129 0 m 333 1114 l 333 1256 l 479 1256 l 479 1114 l 333 1114 z "},"Ẹ":{"ha":772,"x_min":129,"x_max":667,"o":"m 129 0 l 129 979 l 667 979 l 667 867 l 258 867 l 258 553 l 636 553 l 636 439 l 258 439 l 258 113 l 667 113 l 667 0 l 129 0 m 338 -269 l 338 -133 l 476 -133 l 476 -269 l 338 -269 z "},"È":{"ha":772,"x_min":129,"x_max":667,"o":"m 129 0 l 129 979 l 667 979 l 667 867 l 258 867 l 258 553 l 636 553 l 636 439 l 258 439 l 258 113 l 667 113 l 667 0 l 129 0 m 358 1063 l 178 1279 l 324 1279 l 458 1063 l 358 1063 z "},"Ẻ":{"ha":772,"x_min":129,"x_max":667,"o":"m 129 0 l 129 979 l 667 979 l 667 867 l 258 867 l 258 553 l 636 553 l 636 439 l 258 439 l 258 113 l 667 113 l 667 0 l 129 0 m 364 1063 l 364 1089 q 374 1128 364 1113 q 396 1157 383 1144 q 418 1181 408 1169 q 428 1208 428 1193 q 418 1231 428 1225 q 388 1238 408 1238 q 349 1235 369 1238 q 311 1222 329 1232 l 292 1286 q 345 1306 315 1300 q 411 1313 375 1313 q 501 1291 469 1313 q 532 1228 532 1269 q 519 1181 532 1199 q 490 1149 507 1163 q 461 1120 474 1135 q 449 1083 449 1106 l 449 1063 l 364 1063 z "},"Ȇ":{"ha":772,"x_min":129,"x_max":667,"o":"m 129 0 l 129 979 l 667 979 l 667 867 l 258 867 l 258 553 l 636 553 l 636 439 l 258 439 l 258 113 l 667 113 l 667 0 l 129 0 m 299 1056 l 211 1064 q 265 1232 214 1176 q 407 1288 315 1288 q 549 1231 499 1288 q 603 1064 600 1174 l 517 1056 q 491 1155 515 1121 q 408 1189 467 1189 q 327 1156 353 1189 q 299 1056 301 1124 z "},"Ē":{"ha":772,"x_min":129,"x_max":667,"o":"m 129 0 l 129 979 l 667 979 l 667 867 l 258 867 l 258 553 l 636 553 l 636 439 l 258 439 l 258 113 l 667 113 l 667 0 l 129 0 m 211 1126 l 211 1228 l 603 1228 l 603 1126 l 211 1126 z "},"Ḗ":{"ha":772,"x_min":129,"x_max":667,"o":"m 129 0 l 129 979 l 667 979 l 667 867 l 258 867 l 258 553 l 636 553 l 636 439 l 258 439 l 258 113 l 667 113 l 667 0 l 129 0 m 221 1100 l 221 1192 l 593 1192 l 593 1100 l 221 1100 m 347 1247 l 444 1450 l 590 1450 l 444 1247 l 347 1247 z "},"Ḕ":{"ha":772,"x_min":129,"x_max":667,"o":"m 129 0 l 129 979 l 667 979 l 667 867 l 258 867 l 258 553 l 636 553 l 636 439 l 258 439 l 258 113 l 667 113 l 667 0 l 129 0 m 369 1247 l 224 1450 l 369 1450 l 467 1247 l 369 1247 m 221 1100 l 221 1192 l 593 1192 l 593 1100 l 221 1100 z "},"Ę":{"ha":772,"x_min":129,"x_max":679,"o":"m 129 0 l 129 979 l 667 979 l 667 867 l 258 867 l 258 553 l 636 553 l 636 439 l 258 439 l 258 113 l 667 113 l 667 0 l 129 0 m 585 -276 q 483 -242 521 -276 q 446 -147 446 -208 q 479 -42 446 -92 q 567 44 513 7 l 611 0 q 574 -33 590 -14 q 550 -76 558 -53 q 542 -124 542 -99 q 558 -174 542 -157 q 601 -190 574 -190 q 629 -186 614 -190 q 660 -176 644 -182 l 681 -254 q 635 -271 657 -265 q 585 -276 613 -276 z "},"Ẽ":{"ha":772,"x_min":129,"x_max":667,"o":"m 129 0 l 129 979 l 667 979 l 667 867 l 258 867 l 258 553 l 636 553 l 636 439 l 258 439 l 258 113 l 667 113 l 667 0 l 129 0 m 240 1076 l 160 1082 q 195 1209 158 1160 q 296 1258 232 1258 q 374 1239 340 1258 q 426 1210 408 1219 q 463 1188 439 1201 q 511 1174 486 1174 q 558 1198 542 1174 q 574 1264 575 1222 l 654 1258 q 620 1131 657 1181 q 519 1082 583 1082 q 440 1101 474 1082 q 393 1129 407 1121 q 353 1153 378 1139 q 303 1167 328 1167 q 257 1143 274 1167 q 240 1076 240 1119 z "},"Ə":{"ha":956,"x_min":97,"x_max":858,"o":"m 468 -12 q 281 43 364 -12 q 147 208 197 99 q 97 481 97 317 l 97 546 l 778 546 l 778 440 l 199 440 l 231 467 q 298 193 232 283 q 471 103 364 103 q 658 199 590 103 q 726 489 726 296 q 661 781 726 689 q 449 874 596 874 q 354 863 403 874 q 260 831 306 851 q 179 779 214 811 l 139 889 q 228 944 174 921 q 344 980 283 968 q 457 992 406 992 q 682 939 593 992 q 815 777 771 886 q 858 497 858 668 q 831 282 858 376 q 752 122 803 188 q 629 22 701 56 q 468 -12 557 -12 z "},"F":{"ha":735,"x_min":129,"x_max":667,"o":"m 129 0 l 129 979 l 667 979 l 667 867 l 258 867 l 258 544 l 644 544 l 644 432 l 258 432 l 258 0 l 129 0 z "},"G":{"ha":914,"x_min":97,"x_max":796,"o":"m 494 -12 q 281 43 369 -12 q 144 210 192 99 q 97 489 97 321 q 142 767 97 654 q 276 935 188 879 q 489 992 364 992 q 604 980 550 992 q 705 945 658 968 q 783 886 751 922 l 742 789 q 628 856 690 835 q 496 876 567 876 q 297 785 364 876 q 229 490 229 694 q 297 191 229 282 q 504 100 365 100 q 622 110 567 100 q 724 139 676 119 l 678 83 l 678 414 l 493 414 l 493 525 l 796 525 l 796 50 q 712 17 761 31 q 606 -5 663 3 q 494 -12 550 -12 z "},"Ğ":{"ha":914,"x_min":97,"x_max":796,"o":"m 494 -12 q 281 43 369 -12 q 144 210 192 99 q 97 489 97 321 q 142 767 97 654 q 276 935 188 879 q 489 992 364 992 q 604 980 550 992 q 705 945 658 968 q 783 886 751 922 l 742 789 q 628 856 690 835 q 496 876 567 876 q 297 785 364 876 q 229 490 229 694 q 297 191 229 282 q 504 100 365 100 q 622 110 567 100 q 724 139 676 119 l 678 83 l 678 414 l 493 414 l 493 525 l 796 525 l 796 50 q 712 17 761 31 q 606 -5 663 3 q 494 -12 550 -12 m 490 1056 q 348 1112 399 1056 q 294 1279 297 1168 l 382 1288 q 409 1186 383 1219 q 490 1153 435 1153 q 574 1187 550 1153 q 600 1288 599 1221 l 686 1279 q 632 1112 683 1168 q 490 1056 581 1056 z "},"Ǧ":{"ha":914,"x_min":97,"x_max":796,"o":"m 494 -12 q 281 43 369 -12 q 144 210 192 99 q 97 489 97 321 q 142 767 97 654 q 276 935 188 879 q 489 992 364 992 q 604 980 550 992 q 705 945 658 968 q 783 886 751 922 l 742 789 q 628 856 690 835 q 496 876 567 876 q 297 785 364 876 q 229 490 229 694 q 297 191 229 282 q 504 100 365 100 q 622 110 567 100 q 724 139 676 119 l 678 83 l 678 414 l 493 414 l 493 525 l 796 525 l 796 50 q 712 17 761 31 q 606 -5 663 3 q 494 -12 550 -12 m 431 1063 l 289 1279 l 390 1279 l 490 1140 l 592 1279 l 692 1279 l 550 1063 l 431 1063 z "},"Ĝ":{"ha":914,"x_min":97,"x_max":796,"o":"m 494 -12 q 281 43 369 -12 q 144 210 192 99 q 97 489 97 321 q 142 767 97 654 q 276 935 188 879 q 489 992 364 992 q 604 980 550 992 q 705 945 658 968 q 783 886 751 922 l 742 789 q 628 856 690 835 q 496 876 567 876 q 297 785 364 876 q 229 490 229 694 q 297 191 229 282 q 504 100 365 100 q 622 110 567 100 q 724 139 676 119 l 678 83 l 678 414 l 493 414 l 493 525 l 796 525 l 796 50 q 712 17 761 31 q 606 -5 663 3 q 494 -12 550 -12 m 289 1063 l 431 1279 l 550 1279 l 692 1063 l 590 1063 l 490 1203 l 389 1063 l 289 1063 z "},"Ģ":{"ha":914,"x_min":97,"x_max":796,"o":"m 494 -12 q 281 43 369 -12 q 144 210 192 99 q 97 489 97 321 q 142 767 97 654 q 276 935 188 879 q 489 992 364 992 q 604 980 550 992 q 705 945 658 968 q 783 886 751 922 l 742 789 q 628 856 690 835 q 496 876 567 876 q 297 785 364 876 q 229 490 229 694 q 297 191 229 282 q 504 100 365 100 q 622 110 567 100 q 724 139 676 119 l 678 83 l 678 414 l 493 414 l 493 525 l 796 525 l 796 50 q 712 17 761 31 q 606 -5 663 3 q 494 -12 550 -12 m 496 -403 l 440 -362 q 476 -300 465 -335 q 488 -224 488 -265 l 507 -240 l 424 -240 l 424 -108 l 561 -108 l 561 -210 q 547 -316 561 -268 q 496 -403 532 -364 z "},"Ġ":{"ha":914,"x_min":97,"x_max":796,"o":"m 494 -12 q 281 43 369 -12 q 144 210 192 99 q 97 489 97 321 q 142 767 97 654 q 276 935 188 879 q 489 992 364 992 q 604 980 550 992 q 705 945 658 968 q 783 886 751 922 l 742 789 q 628 856 690 835 q 496 876 567 876 q 297 785 364 876 q 229 490 229 694 q 297 191 229 282 q 504 100 365 100 q 622 110 567 100 q 724 139 676 119 l 678 83 l 678 414 l 493 414 l 493 525 l 796 525 l 796 50 q 712 17 761 31 q 606 -5 663 3 q 494 -12 550 -12 m 417 1114 l 417 1256 l 563 1256 l 563 1114 l 417 1114 z "},"Ḡ":{"ha":914,"x_min":97,"x_max":796,"o":"m 494 -12 q 281 43 369 -12 q 144 210 192 99 q 97 489 97 321 q 142 767 97 654 q 276 935 188 879 q 489 992 364 992 q 604 980 550 992 q 705 945 658 968 q 783 886 751 922 l 742 789 q 628 856 690 835 q 496 876 567 876 q 297 785 364 876 q 229 490 229 694 q 297 191 229 282 q 504 100 365 100 q 622 110 567 100 q 724 139 676 119 l 678 83 l 678 414 l 493 414 l 493 525 l 796 525 l 796 50 q 712 17 761 31 q 606 -5 663 3 q 494 -12 550 -12 m 294 1126 l 294 1228 l 686 1228 l 686 1126 l 294 1126 z "},"H":{"ha":942,"x_min":129,"x_max":813,"o":"m 129 0 l 129 979 l 258 979 l 258 554 l 682 554 l 682 979 l 813 979 l 813 0 l 682 0 l 682 440 l 258 440 l 258 0 l 129 0 z "},"Ħ":{"ha":963,"x_min":29,"x_max":932,"o":"m 139 0 l 139 714 l 29 714 l 29 818 l 139 818 l 139 979 l 269 979 l 269 817 l 693 817 l 693 979 l 822 979 l 822 818 l 932 818 l 932 714 l 822 714 l 822 0 l 693 0 l 693 432 l 269 432 l 269 0 l 139 0 m 269 547 l 693 547 l 693 715 l 269 715 l 269 547 z "},"Ḫ":{"ha":942,"x_min":129,"x_max":813,"o":"m 129 0 l 129 979 l 258 979 l 258 554 l 682 554 l 682 979 l 813 979 l 813 0 l 682 0 l 682 440 l 258 440 l 258 0 l 129 0 m 471 -283 q 329 -232 381 -283 q 275 -89 278 -181 l 360 -82 q 390 -164 363 -136 q 471 -192 417 -192 q 552 -165 524 -192 q 582 -82 581 -137 l 667 -89 q 613 -231 664 -179 q 471 -283 563 -283 z "},"Ĥ":{"ha":942,"x_min":129,"x_max":813,"o":"m 129 0 l 129 979 l 258 979 l 258 554 l 682 554 l 682 979 l 813 979 l 813 0 l 682 0 l 682 440 l 258 440 l 258 0 l 129 0 m 269 1063 l 411 1279 l 531 1279 l 672 1063 l 571 1063 l 471 1203 l 369 1063 l 269 1063 z "},"Ḥ":{"ha":942,"x_min":129,"x_max":813,"o":"m 129 0 l 129 979 l 258 979 l 258 554 l 682 554 l 682 979 l 813 979 l 813 0 l 682 0 l 682 440 l 258 440 l 258 0 l 129 0 m 401 -269 l 401 -133 l 540 -133 l 540 -269 l 401 -269 z "},"I":{"ha":388,"x_min":129,"x_max":258,"o":"m 129 0 l 129 979 l 258 979 l 258 0 l 129 0 z "},"Ĳ":{"ha":890,"x_min":129,"x_max":763,"o":"m 129 0 l 129 979 l 258 979 l 258 0 l 129 0 m 415 -11 l 406 103 l 508 108 q 573 128 544 111 q 617 178 601 146 q 632 257 632 211 l 632 979 l 763 979 l 763 246 q 733 117 763 172 q 652 31 704 63 q 528 -4 600 -1 l 415 -11 z "},"Í":{"ha":388,"x_min":129,"x_max":428,"o":"m 129 0 l 129 979 l 258 979 l 258 0 l 129 0 m 139 1063 l 272 1283 l 428 1283 l 247 1063 l 139 1063 z "},"Ĭ":{"ha":388,"x_min":-1,"x_max":389,"o":"m 129 0 l 129 979 l 258 979 l 258 0 l 129 0 m 193 1056 q 51 1112 101 1056 q -3 1279 0 1168 l 85 1288 q 112 1186 86 1219 q 193 1153 138 1153 q 277 1187 253 1153 q 303 1288 301 1221 l 389 1279 q 335 1112 386 1168 q 193 1056 283 1056 z "},"Î":{"ha":388,"x_min":-8,"x_max":394,"o":"m 129 0 l 129 979 l 258 979 l 258 0 l 129 0 m -8 1063 l 133 1279 l 253 1279 l 394 1063 l 293 1063 l 193 1203 l 92 1063 l -8 1063 z "},"Ȉ":{"ha":388,"x_min":-85,"x_max":317,"o":"m 129 0 l 129 979 l 258 979 l 258 0 l 129 0 m 235 1063 l 93 1279 l 221 1279 l 317 1063 l 235 1063 m 68 1063 l -85 1279 l 42 1279 l 149 1063 l 68 1063 z "},"Ï":{"ha":388,"x_min":4,"x_max":382,"o":"m 129 0 l 129 979 l 258 979 l 258 0 l 129 0 m 246 1110 l 246 1242 l 382 1242 l 382 1110 l 246 1110 m 4 1110 l 4 1242 l 140 1242 l 140 1110 l 4 1110 z "},"Ḯ":{"ha":388,"x_min":13,"x_max":383,"o":"m 129 0 l 129 979 l 258 979 l 258 0 l 129 0 m 139 1238 l 238 1440 l 383 1440 l 238 1238 l 139 1238 m 13 1068 l 13 1183 l 154 1183 l 154 1068 l 13 1068 m 232 1068 l 232 1183 l 374 1183 l 374 1068 l 232 1068 z "},"İ":{"ha":388,"x_min":119,"x_max":265,"o":"m 129 0 l 129 979 l 258 979 l 258 0 l 129 0 m 119 1114 l 119 1256 l 265 1256 l 265 1114 l 119 1114 z "},"Ị":{"ha":388,"x_min":124,"x_max":263,"o":"m 129 0 l 129 979 l 258 979 l 258 0 l 129 0 m 124 -269 l 124 -133 l 263 -133 l 263 -269 l 124 -269 z "},"Ì":{"ha":388,"x_min":-36,"x_max":258,"o":"m 129 0 l 129 979 l 258 979 l 258 0 l 129 0 m 144 1063 l -36 1279 l 110 1279 l 244 1063 l 144 1063 z "},"Ỉ":{"ha":388,"x_min":78,"x_max":319,"o":"m 129 0 l 129 979 l 258 979 l 258 0 l 129 0 m 150 1063 l 150 1089 q 160 1128 150 1113 q 182 1157 169 1144 q 204 1181 194 1169 q 214 1208 214 1193 q 204 1231 214 1225 q 174 1238 194 1238 q 135 1235 156 1238 q 97 1222 115 1232 l 78 1286 q 131 1306 101 1300 q 197 1313 161 1313 q 287 1291 256 1313 q 318 1228 318 1269 q 306 1181 318 1199 q 276 1149 293 1163 q 247 1120 260 1135 q 235 1083 235 1106 l 235 1063 l 150 1063 z "},"Ȋ":{"ha":388,"x_min":-1,"x_max":389,"o":"m 129 0 l 129 979 l 258 979 l 258 0 l 129 0 m 85 1056 l -3 1064 q 51 1232 0 1176 q 193 1288 101 1288 q 335 1231 285 1288 q 389 1064 386 1174 l 303 1056 q 277 1155 301 1121 q 194 1189 253 1189 q 113 1156 139 1189 q 85 1056 88 1124 z "},"Ī":{"ha":388,"x_min":-3,"x_max":389,"o":"m 129 0 l 129 979 l 258 979 l 258 0 l 129 0 m -3 1126 l -3 1228 l 389 1228 l 389 1126 l -3 1126 z "},"Į":{"ha":388,"x_min":72,"x_max":307,"o":"m 129 0 l 129 979 l 258 979 l 258 0 l 129 0 m 211 -276 q 110 -242 147 -276 q 72 -147 72 -208 q 106 -42 72 -92 q 193 44 139 7 l 238 0 q 201 -33 217 -14 q 176 -76 185 -53 q 168 -124 168 -99 q 184 -174 168 -157 q 228 -190 200 -190 q 256 -186 240 -190 q 286 -176 271 -182 l 307 -254 q 261 -271 283 -265 q 211 -276 239 -276 z "},"Ĩ":{"ha":388,"x_min":-56,"x_max":443,"o":"m 129 0 l 129 979 l 258 979 l 258 0 l 129 0 m 26 1076 l -54 1082 q -19 1209 -56 1160 q 82 1258 18 1258 q 160 1239 126 1258 q 213 1210 194 1219 q 249 1188 225 1201 q 297 1174 272 1174 q 344 1198 328 1174 q 360 1264 361 1222 l 440 1258 q 406 1131 443 1181 q 306 1082 369 1082 q 226 1101 260 1082 q 179 1129 193 1121 q 139 1153 164 1139 q 89 1167 114 1167 q 43 1143 60 1167 q 26 1076 26 1119 z "},"J":{"ha":503,"x_min":18,"x_max":375,"o":"m 28 -11 l 18 103 l 121 108 q 185 128 157 111 q 229 178 214 146 q 244 257 244 211 l 244 979 l 375 979 l 375 246 q 346 117 375 172 q 265 31 317 63 q 140 -4 213 -1 l 28 -11 z "},"Ĵ":{"ha":503,"x_min":18,"x_max":511,"o":"m 28 -11 l 18 103 l 121 108 q 185 128 157 111 q 229 178 214 146 q 244 257 244 211 l 244 979 l 375 979 l 375 246 q 346 117 375 172 q 265 31 317 63 q 140 -4 213 -1 l 28 -11 m 108 1063 l 250 1279 l 369 1279 l 511 1063 l 410 1063 l 310 1203 l 208 1063 l 108 1063 z "},"K":{"ha":817,"x_min":129,"x_max":808,"o":"m 129 0 l 129 979 l 258 979 l 258 539 l 265 539 l 621 979 l 779 979 l 354 464 l 364 536 l 808 0 l 636 0 l 265 460 l 258 460 l 258 0 l 129 0 z "},"Ķ":{"ha":817,"x_min":129,"x_max":808,"o":"m 129 0 l 129 979 l 258 979 l 258 539 l 265 539 l 621 979 l 779 979 l 354 464 l 364 536 l 808 0 l 636 0 l 265 460 l 258 460 l 258 0 l 129 0 m 419 -403 l 364 -362 q 400 -300 389 -335 q 411 -224 411 -265 l 431 -240 l 347 -240 l 347 -108 l 485 -108 l 485 -210 q 470 -316 485 -268 q 419 -403 456 -364 z "},"L":{"ha":704,"x_min":129,"x_max":650,"o":"m 129 0 l 129 979 l 258 979 l 258 115 l 650 115 l 650 0 l 129 0 z "},"Ǉ":{"ha":1251,"x_min":129,"x_max":1124,"o":"m 129 0 l 129 979 l 258 979 l 258 115 l 650 115 l 650 0 l 129 0 m 776 -11 l 767 103 l 869 108 q 934 128 906 111 q 978 178 963 146 q 993 257 993 211 l 993 979 l 1124 979 l 1124 246 q 1094 117 1124 172 q 1013 31 1065 63 q 889 -4 961 -1 l 776 -11 z "},"Ĺ":{"ha":704,"x_min":129,"x_max":650,"o":"m 129 0 l 129 979 l 258 979 l 258 115 l 650 115 l 650 0 l 129 0 m 139 1063 l 272 1283 l 428 1283 l 247 1063 l 139 1063 z "},"Ľ":{"ha":704,"x_min":129,"x_max":650,"o":"m 129 0 l 129 979 l 258 979 l 258 115 l 650 115 l 650 0 l 129 0 m 379 657 l 379 979 l 497 979 l 471 657 l 379 657 z "},"Ļ":{"ha":704,"x_min":129,"x_max":650,"o":"m 129 0 l 129 979 l 258 979 l 258 115 l 650 115 l 650 0 l 129 0 m 394 -403 l 339 -362 q 375 -300 364 -335 q 386 -224 386 -265 l 406 -240 l 322 -240 l 322 -108 l 460 -108 l 460 -210 q 445 -316 460 -268 q 394 -403 431 -364 z "},"Ŀ":{"ha":704,"x_min":129,"x_max":650,"o":"m 129 0 l 129 979 l 258 979 l 258 115 l 650 115 l 650 0 l 129 0 m 426 478 l 426 611 l 579 611 l 579 478 l 426 478 z "},"Ḷ":{"ha":704,"x_min":129,"x_max":650,"o":"m 129 0 l 129 979 l 258 979 l 258 115 l 650 115 l 650 0 l 129 0 m 322 -269 l 322 -133 l 461 -133 l 461 -269 l 322 -269 z "},"ǈ":{"ha":1024,"x_min":129,"x_max":940,"o":"m 129 0 l 129 979 l 258 979 l 258 115 l 650 115 l 650 0 l 129 0 m 790 853 l 790 996 l 940 996 l 940 853 l 790 853 m 657 -268 l 646 -160 l 703 -153 q 774 -125 747 -146 q 801 -31 801 -104 l 801 690 l 931 690 l 931 -29 q 920 -123 931 -82 q 886 -192 910 -164 q 822 -236 863 -219 q 719 -261 781 -253 l 657 -268 z "},"Ḻ":{"ha":704,"x_min":129,"x_max":650,"o":"m 129 0 l 129 979 l 258 979 l 258 115 l 650 115 l 650 0 l 129 0 m 199 -235 l 199 -133 l 585 -133 l 585 -235 l 199 -235 z "},"Ł":{"ha":722,"x_min":10,"x_max":669,"o":"m 147 0 l 147 979 l 276 979 l 276 115 l 668 115 l 668 0 l 147 0 m 69 344 l 10 436 l 463 738 l 524 644 l 69 344 z "},"M":{"ha":1085,"x_min":132,"x_max":954,"o":"m 132 0 l 132 979 l 301 979 l 543 322 l 546 322 l 788 979 l 954 979 l 954 0 l 826 0 l 826 782 l 817 782 l 586 164 l 497 164 l 269 782 l 258 782 l 258 0 l 132 0 z "},"Ṃ":{"ha":1085,"x_min":132,"x_max":954,"o":"m 132 0 l 132 979 l 301 979 l 543 322 l 546 322 l 788 979 l 954 979 l 954 0 l 826 0 l 826 782 l 817 782 l 586 164 l 497 164 l 269 782 l 258 782 l 258 0 l 132 0 m 458 -269 l 458 -133 l 597 -133 l 597 -269 l 458 -269 z "},"N":{"ha":957,"x_min":129,"x_max":828,"o":"m 129 0 l 129 979 l 249 979 l 710 189 l 703 189 l 703 979 l 828 979 l 828 0 l 701 0 l 244 785 l 254 785 l 254 0 l 129 0 z "},"Ǌ":{"ha":1460,"x_min":129,"x_max":1331,"o":"m 129 0 l 129 979 l 249 979 l 710 189 l 703 189 l 703 979 l 828 979 l 828 0 l 701 0 l 244 785 l 254 785 l 254 0 l 129 0 m 985 -11 l 975 103 l 1078 108 q 1142 128 1114 111 q 1186 178 1171 146 q 1201 257 1201 211 l 1201 979 l 1332 979 l 1332 246 q 1303 117 1332 172 q 1222 31 1274 63 q 1097 -4 1169 -1 l 985 -11 z "},"Ń":{"ha":957,"x_min":129,"x_max":828,"o":"m 129 0 l 129 979 l 249 979 l 710 189 l 703 189 l 703 979 l 828 979 l 828 0 l 701 0 l 244 785 l 254 785 l 254 0 l 129 0 m 431 1063 l 564 1283 l 719 1283 l 539 1063 l 431 1063 z "},"Ň":{"ha":957,"x_min":129,"x_max":828,"o":"m 129 0 l 129 979 l 249 979 l 710 189 l 703 189 l 703 979 l 828 979 l 828 0 l 701 0 l 244 785 l 254 785 l 254 0 l 129 0 m 425 1063 l 283 1279 l 385 1279 l 485 1140 l 586 1279 l 686 1279 l 544 1063 l 425 1063 z "},"Ņ":{"ha":957,"x_min":129,"x_max":828,"o":"m 129 0 l 129 979 l 249 979 l 710 189 l 703 189 l 703 979 l 828 979 l 828 0 l 701 0 l 244 785 l 254 785 l 254 0 l 129 0 m 485 -403 l 429 -362 q 465 -300 454 -335 q 476 -224 476 -265 l 496 -240 l 413 -240 l 413 -108 l 550 -108 l 550 -210 q 535 -316 550 -268 q 485 -403 521 -364 z "},"Ṅ":{"ha":957,"x_min":129,"x_max":828,"o":"m 129 0 l 129 979 l 249 979 l 710 189 l 703 189 l 703 979 l 828 979 l 828 0 l 701 0 l 244 785 l 254 785 l 254 0 l 129 0 m 411 1114 l 411 1256 l 557 1256 l 557 1114 l 411 1114 z "},"Ṇ":{"ha":957,"x_min":129,"x_max":828,"o":"m 129 0 l 129 979 l 249 979 l 710 189 l 703 189 l 703 979 l 828 979 l 828 0 l 701 0 l 244 785 l 254 785 l 254 0 l 129 0 m 413 -269 l 413 -133 l 551 -133 l 551 -269 l 413 -269 z "},"ǋ":{"ha":1275,"x_min":129,"x_max":1193,"o":"m 129 0 l 129 979 l 249 979 l 710 189 l 703 189 l 703 979 l 828 979 l 828 0 l 701 0 l 244 785 l 254 785 l 254 0 l 129 0 m 1043 853 l 1043 996 l 1193 996 l 1193 853 l 1043 853 m 910 -268 l 899 -160 l 956 -153 q 1027 -125 1000 -146 q 1054 -31 1054 -104 l 1054 690 l 1183 690 l 1183 -29 q 1173 -123 1183 -82 q 1139 -192 1163 -164 q 1074 -236 1115 -219 q 972 -261 1033 -253 l 910 -268 z "},"Ṉ":{"ha":957,"x_min":129,"x_max":828,"o":"m 129 0 l 129 979 l 249 979 l 710 189 l 703 189 l 703 979 l 828 979 l 828 0 l 701 0 l 244 785 l 254 785 l 254 0 l 129 0 m 289 -235 l 289 -133 l 675 -133 l 675 -235 l 289 -235 z "},"Ñ":{"ha":957,"x_min":129,"x_max":828,"o":"m 129 0 l 129 979 l 249 979 l 710 189 l 703 189 l 703 979 l 828 979 l 828 0 l 701 0 l 244 785 l 254 785 l 254 0 l 129 0 m 318 1076 l 238 1082 q 273 1209 236 1160 q 374 1258 310 1258 q 452 1239 418 1258 q 504 1210 486 1219 q 540 1188 517 1201 q 589 1174 564 1174 q 636 1198 619 1174 q 651 1264 653 1222 l 732 1258 q 698 1131 735 1181 q 597 1082 661 1082 q 518 1101 551 1082 q 471 1129 485 1121 q 431 1153 456 1139 q 381 1167 406 1167 q 335 1143 351 1167 q 318 1076 318 1119 z "},"Ŋ":{"ha":957,"x_min":129,"x_max":828,"o":"m 565 -267 l 556 -162 l 603 -156 q 678 -131 650 -149 q 707 -44 707 -112 l 707 90 l 711 -7 l 244 785 l 254 785 l 254 0 l 129 0 l 129 979 l 247 979 l 710 189 l 703 189 l 703 979 l 828 979 l 828 -31 q 822 -100 828 -67 q 803 -160 817 -133 q 766 -208 790 -187 q 705 -242 742 -228 q 615 -260 668 -256 l 565 -267 z "},"O":{"ha":956,"x_min":97,"x_max":858,"o":"m 478 -12 q 316 20 386 -12 q 197 117 246 53 q 122 274 147 181 q 97 489 97 368 q 122 703 97 610 q 197 862 147 797 q 316 959 246 926 q 478 992 386 992 q 640 958 569 992 q 759 862 711 925 q 833 705 807 799 q 858 490 858 611 q 833 276 858 369 q 760 117 808 182 q 640 20 711 53 q 478 -12 569 -12 m 478 103 q 615 144 561 103 q 697 273 668 186 q 725 490 725 360 q 697 708 725 622 q 615 835 669 793 q 478 876 560 876 q 341 835 396 876 q 258 707 286 793 q 229 489 229 621 q 258 272 229 358 q 342 144 286 186 q 478 103 397 103 z "},"Ó":{"ha":956,"x_min":97,"x_max":858,"o":"m 478 -12 q 316 20 386 -12 q 197 117 246 53 q 122 274 147 181 q 97 489 97 368 q 122 703 97 610 q 197 862 147 797 q 316 959 246 926 q 478 992 386 992 q 640 958 569 992 q 759 862 711 925 q 833 705 807 799 q 858 490 858 611 q 833 276 858 369 q 760 117 808 182 q 640 20 711 53 q 478 -12 569 -12 m 478 103 q 615 144 561 103 q 697 273 668 186 q 725 490 725 360 q 697 708 725 622 q 615 835 669 793 q 478 876 560 876 q 341 835 396 876 q 258 707 286 793 q 229 489 229 621 q 258 272 229 358 q 342 144 286 186 q 478 103 397 103 m 424 1063 l 557 1283 l 713 1283 l 532 1063 l 424 1063 z "},"Ŏ":{"ha":956,"x_min":97,"x_max":858,"o":"m 478 -12 q 316 20 386 -12 q 197 117 246 53 q 122 274 147 181 q 97 489 97 368 q 122 703 97 610 q 197 862 147 797 q 316 959 246 926 q 478 992 386 992 q 640 958 569 992 q 759 862 711 925 q 833 705 807 799 q 858 490 858 611 q 833 276 858 369 q 760 117 808 182 q 640 20 711 53 q 478 -12 569 -12 m 478 103 q 615 144 561 103 q 697 273 668 186 q 725 490 725 360 q 697 708 725 622 q 615 835 669 793 q 478 876 560 876 q 341 835 396 876 q 258 707 286 793 q 229 489 229 621 q 258 272 229 358 q 342 144 286 186 q 478 103 397 103 m 478 1056 q 335 1112 386 1056 q 282 1279 285 1168 l 369 1288 q 397 1186 371 1219 q 478 1153 422 1153 q 562 1187 538 1153 q 588 1288 586 1221 l 674 1279 q 619 1112 671 1168 q 478 1056 568 1056 z "},"Ô":{"ha":956,"x_min":97,"x_max":858,"o":"m 478 -12 q 316 20 386 -12 q 197 117 246 53 q 122 274 147 181 q 97 489 97 368 q 122 703 97 610 q 197 862 147 797 q 316 959 246 926 q 478 992 386 992 q 640 958 569 992 q 759 862 711 925 q 833 705 807 799 q 858 490 858 611 q 833 276 858 369 q 760 117 808 182 q 640 20 711 53 q 478 -12 569 -12 m 478 103 q 615 144 561 103 q 697 273 668 186 q 725 490 725 360 q 697 708 725 622 q 615 835 669 793 q 478 876 560 876 q 341 835 396 876 q 258 707 286 793 q 229 489 229 621 q 258 272 229 358 q 342 144 286 186 q 478 103 397 103 m 276 1063 l 418 1279 l 538 1279 l 679 1063 l 578 1063 l 478 1203 l 376 1063 l 276 1063 z "},"Ố":{"ha":956,"x_min":97,"x_max":858,"o":"m 478 -12 q 316 20 386 -12 q 197 117 246 53 q 122 274 147 181 q 97 489 97 368 q 122 703 97 610 q 197 862 147 797 q 316 959 246 926 q 478 992 386 992 q 640 958 569 992 q 759 862 711 925 q 833 705 807 799 q 858 490 858 611 q 833 276 858 369 q 760 117 808 182 q 640 20 711 53 q 478 -12 569 -12 m 478 103 q 615 144 561 103 q 697 273 668 186 q 725 490 725 360 q 697 708 725 622 q 615 835 669 793 q 478 876 560 876 q 341 835 396 876 q 258 707 286 793 q 229 489 229 621 q 258 272 229 358 q 342 144 286 186 q 478 103 397 103 m 286 1067 l 419 1285 l 540 1285 l 672 1067 l 574 1067 l 479 1208 l 383 1067 l 286 1067 m 604 1229 l 688 1440 l 803 1440 l 686 1229 l 604 1229 z "},"Ộ":{"ha":956,"x_min":97,"x_max":858,"o":"m 478 -12 q 316 20 386 -12 q 197 117 246 53 q 122 274 147 181 q 97 489 97 368 q 122 703 97 610 q 197 862 147 797 q 316 959 246 926 q 478 992 386 992 q 640 958 569 992 q 759 862 711 925 q 833 705 807 799 q 858 490 858 611 q 833 276 858 369 q 760 117 808 182 q 640 20 711 53 q 478 -12 569 -12 m 478 103 q 615 144 561 103 q 697 273 668 186 q 725 490 725 360 q 697 708 725 622 q 615 835 669 793 q 478 876 560 876 q 341 835 396 876 q 258 707 286 793 q 229 489 229 621 q 258 272 229 358 q 342 144 286 186 q 478 103 397 103 m 410 -269 l 410 -133 l 549 -133 l 549 -269 l 410 -269 m 276 1063 l 418 1279 l 538 1279 l 679 1063 l 578 1063 l 478 1203 l 376 1063 l 276 1063 z "},"Ồ":{"ha":956,"x_min":97,"x_max":858,"o":"m 478 -12 q 316 20 386 -12 q 197 117 246 53 q 122 274 147 181 q 97 489 97 368 q 122 703 97 610 q 197 862 147 797 q 316 959 246 926 q 478 992 386 992 q 640 958 569 992 q 759 862 711 925 q 833 705 807 799 q 858 490 858 611 q 833 276 858 369 q 760 117 808 182 q 640 20 711 53 q 478 -12 569 -12 m 478 103 q 615 144 561 103 q 697 273 668 186 q 725 490 725 360 q 697 708 725 622 q 615 835 669 793 q 478 876 560 876 q 341 835 396 876 q 258 707 286 793 q 229 489 229 621 q 258 272 229 358 q 342 144 286 186 q 478 103 397 103 m 286 1067 l 419 1285 l 540 1285 l 672 1067 l 574 1067 l 479 1208 l 383 1067 l 286 1067 m 647 1229 l 533 1440 l 647 1440 l 729 1229 l 647 1229 z "},"Ổ":{"ha":956,"x_min":97,"x_max":858,"o":"m 478 -12 q 316 20 386 -12 q 197 117 246 53 q 122 274 147 181 q 97 489 97 368 q 122 703 97 610 q 197 862 147 797 q 316 959 246 926 q 478 992 386 992 q 640 958 569 992 q 759 862 711 925 q 833 705 807 799 q 858 490 858 611 q 833 276 858 369 q 760 117 808 182 q 640 20 711 53 q 478 -12 569 -12 m 478 103 q 615 144 561 103 q 697 273 668 186 q 725 490 725 360 q 697 708 725 622 q 615 835 669 793 q 478 876 560 876 q 341 835 396 876 q 258 707 286 793 q 229 489 229 621 q 258 272 229 358 q 342 144 286 186 q 478 103 397 103 m 286 1067 l 419 1261 l 540 1261 l 672 1067 l 574 1067 l 479 1197 l 383 1067 l 286 1067 m 597 1229 q 606 1267 597 1251 q 628 1297 615 1283 q 649 1324 640 1311 q 657 1349 657 1336 q 644 1374 657 1365 q 610 1382 632 1382 q 578 1376 594 1382 q 549 1361 563 1369 l 529 1419 q 578 1441 549 1433 q 644 1449 607 1449 q 725 1428 696 1449 q 754 1372 754 1408 q 743 1328 754 1346 q 717 1297 732 1311 q 691 1267 703 1283 q 679 1229 679 1251 l 597 1229 z "},"Ỗ":{"ha":956,"x_min":97,"x_max":858,"o":"m 478 -12 q 316 20 386 -12 q 197 117 246 53 q 122 274 147 181 q 97 489 97 368 q 122 703 97 610 q 197 862 147 797 q 316 959 246 926 q 478 992 386 992 q 640 958 569 992 q 759 862 711 925 q 833 705 807 799 q 858 490 858 611 q 833 276 858 369 q 760 117 808 182 q 640 20 711 53 q 478 -12 569 -12 m 478 103 q 615 144 561 103 q 697 273 668 186 q 725 490 725 360 q 697 708 725 622 q 615 835 669 793 q 478 876 560 876 q 341 835 396 876 q 258 707 286 793 q 229 489 229 621 q 258 272 229 358 q 342 144 286 186 q 478 103 397 103 m 285 1067 l 418 1243 l 539 1243 l 671 1067 l 572 1067 l 478 1181 l 383 1067 l 285 1067 m 349 1294 l 278 1299 q 311 1403 283 1365 q 396 1440 339 1440 q 455 1426 431 1440 q 494 1401 479 1411 q 519 1384 501 1396 q 558 1372 538 1372 q 591 1389 579 1372 q 607 1443 603 1406 l 679 1438 q 644 1334 674 1371 q 558 1297 615 1297 q 500 1311 524 1297 q 467 1332 476 1325 q 431 1355 446 1346 q 397 1364 415 1364 q 367 1348 379 1364 q 349 1294 354 1332 z "},"Ȍ":{"ha":956,"x_min":97,"x_max":858,"o":"m 478 -12 q 316 20 386 -12 q 197 117 246 53 q 122 274 147 181 q 97 489 97 368 q 122 703 97 610 q 197 862 147 797 q 316 959 246 926 q 478 992 386 992 q 640 958 569 992 q 759 862 711 925 q 833 705 807 799 q 858 490 858 611 q 833 276 858 369 q 760 117 808 182 q 640 20 711 53 q 478 -12 569 -12 m 478 103 q 615 144 561 103 q 697 273 668 186 q 725 490 725 360 q 697 708 725 622 q 615 835 669 793 q 478 876 560 876 q 341 835 396 876 q 258 707 286 793 q 229 489 229 621 q 258 272 229 358 q 342 144 286 186 q 478 103 397 103 m 519 1063 l 378 1279 l 506 1279 l 601 1063 l 519 1063 m 353 1063 l 200 1279 l 326 1279 l 433 1063 l 353 1063 z "},"Ö":{"ha":956,"x_min":97,"x_max":858,"o":"m 478 -12 q 316 20 386 -12 q 197 117 246 53 q 122 274 147 181 q 97 489 97 368 q 122 703 97 610 q 197 862 147 797 q 316 959 246 926 q 478 992 386 992 q 640 958 569 992 q 759 862 711 925 q 833 705 807 799 q 858 490 858 611 q 833 276 858 369 q 760 117 808 182 q 640 20 711 53 q 478 -12 569 -12 m 478 103 q 615 144 561 103 q 697 273 668 186 q 725 490 725 360 q 697 708 725 622 q 615 835 669 793 q 478 876 560 876 q 341 835 396 876 q 258 707 286 793 q 229 489 229 621 q 258 272 229 358 q 342 144 286 186 q 478 103 397 103 m 531 1110 l 531 1242 l 667 1242 l 667 1110 l 531 1110 m 289 1110 l 289 1242 l 425 1242 l 425 1110 l 289 1110 z "},"Ȫ":{"ha":956,"x_min":97,"x_max":858,"o":"m 478 -12 q 316 20 386 -12 q 197 117 246 53 q 122 274 147 181 q 97 489 97 368 q 122 703 97 610 q 197 862 147 797 q 316 959 246 926 q 478 992 386 992 q 640 958 569 992 q 759 862 711 925 q 833 705 807 799 q 858 490 858 611 q 833 276 858 369 q 760 117 808 182 q 640 20 711 53 q 478 -12 569 -12 m 478 103 q 615 144 561 103 q 697 273 668 186 q 725 490 725 360 q 697 708 725 622 q 615 835 669 793 q 478 876 560 876 q 341 835 396 876 q 258 707 286 793 q 229 489 229 621 q 258 272 229 358 q 342 144 286 186 q 478 103 397 103 m 285 1296 l 285 1390 l 671 1390 l 671 1296 l 285 1296 m 293 1099 l 293 1215 l 431 1215 l 431 1099 l 293 1099 m 525 1099 l 525 1215 l 663 1215 l 663 1099 l 525 1099 z "},"Ȱ":{"ha":956,"x_min":97,"x_max":858,"o":"m 478 -12 q 316 20 386 -12 q 197 117 246 53 q 122 274 147 181 q 97 489 97 368 q 122 703 97 610 q 197 862 147 797 q 316 959 246 926 q 478 992 386 992 q 640 958 569 992 q 759 862 711 925 q 833 705 807 799 q 858 490 858 611 q 833 276 858 369 q 760 117 808 182 q 640 20 711 53 q 478 -12 569 -12 m 478 103 q 615 144 561 103 q 697 273 668 186 q 725 490 725 360 q 697 708 725 622 q 615 835 669 793 q 478 876 560 876 q 341 835 396 876 q 258 707 286 793 q 229 489 229 621 q 258 272 229 358 q 342 144 286 186 q 478 103 397 103 m 300 1294 l 300 1385 l 656 1385 l 656 1294 l 300 1294 m 408 1100 l 408 1218 l 547 1218 l 547 1100 l 408 1100 z "},"Ọ":{"ha":956,"x_min":97,"x_max":858,"o":"m 478 -12 q 316 20 386 -12 q 197 117 246 53 q 122 274 147 181 q 97 489 97 368 q 122 703 97 610 q 197 862 147 797 q 316 959 246 926 q 478 992 386 992 q 640 958 569 992 q 759 862 711 925 q 833 705 807 799 q 858 490 858 611 q 833 276 858 369 q 760 117 808 182 q 640 20 711 53 q 478 -12 569 -12 m 478 103 q 615 144 561 103 q 697 273 668 186 q 725 490 725 360 q 697 708 725 622 q 615 835 669 793 q 478 876 560 876 q 341 835 396 876 q 258 707 286 793 q 229 489 229 621 q 258 272 229 358 q 342 144 286 186 q 478 103 397 103 m 410 -269 l 410 -133 l 549 -133 l 549 -269 l 410 -269 z "},"Ò":{"ha":956,"x_min":97,"x_max":858,"o":"m 478 -12 q 316 20 386 -12 q 197 117 246 53 q 122 274 147 181 q 97 489 97 368 q 122 703 97 610 q 197 862 147 797 q 316 959 246 926 q 478 992 386 992 q 640 958 569 992 q 759 862 711 925 q 833 705 807 799 q 858 490 858 611 q 833 276 858 369 q 760 117 808 182 q 640 20 711 53 q 478 -12 569 -12 m 478 103 q 615 144 561 103 q 697 273 668 186 q 725 490 725 360 q 697 708 725 622 q 615 835 669 793 q 478 876 560 876 q 341 835 396 876 q 258 707 286 793 q 229 489 229 621 q 258 272 229 358 q 342 144 286 186 q 478 103 397 103 m 429 1063 l 249 1279 l 394 1279 l 529 1063 l 429 1063 z "},"Ỏ":{"ha":956,"x_min":97,"x_max":858,"o":"m 478 -12 q 316 20 386 -12 q 197 117 246 53 q 122 274 147 181 q 97 489 97 368 q 122 703 97 610 q 197 862 147 797 q 316 959 246 926 q 478 992 386 992 q 640 958 569 992 q 759 862 711 925 q 833 705 807 799 q 858 490 858 611 q 833 276 858 369 q 760 117 808 182 q 640 20 711 53 q 478 -12 569 -12 m 478 103 q 615 144 561 103 q 697 273 668 186 q 725 490 725 360 q 697 708 725 622 q 615 835 669 793 q 478 876 560 876 q 341 835 396 876 q 258 707 286 793 q 229 489 229 621 q 258 272 229 358 q 342 144 286 186 q 478 103 397 103 m 435 1063 l 435 1089 q 444 1128 435 1113 q 467 1157 454 1144 q 489 1181 479 1169 q 499 1208 499 1193 q 489 1231 499 1225 q 458 1238 479 1238 q 420 1235 440 1238 q 382 1222 400 1232 l 363 1286 q 416 1306 386 1300 q 482 1313 446 1313 q 572 1291 540 1313 q 603 1228 603 1269 q 590 1181 603 1199 q 561 1149 578 1163 q 532 1120 544 1135 q 519 1083 519 1106 l 519 1063 l 435 1063 z "},"Ơ":{"ha":956,"x_min":97,"x_max":869,"o":"m 478 -12 q 316 20 386 -12 q 197 117 246 53 q 122 274 147 181 q 97 489 97 368 q 122 703 97 610 q 197 862 147 797 q 316 959 246 926 q 478 992 386 992 q 640 958 569 992 q 759 862 711 925 q 833 705 807 799 q 858 490 858 611 q 833 276 858 369 q 760 117 808 182 q 640 20 711 53 q 478 -12 569 -12 m 478 103 q 615 144 561 103 q 697 273 668 186 q 725 490 725 360 q 697 708 725 622 q 615 835 669 793 q 478 876 560 876 q 341 835 396 876 q 258 707 286 793 q 229 489 229 621 q 258 272 229 358 q 342 144 286 186 q 478 103 397 103 m 603 900 l 554 985 q 598 981 579 982 q 633 979 617 979 q 698 997 674 979 q 732 1047 722 1014 q 742 1126 742 1079 l 742 1157 l 869 1157 l 869 1113 q 849 1003 869 1051 q 792 927 828 954 q 707 900 756 900 l 603 900 z "},"Ớ":{"ha":956,"x_min":97,"x_max":869,"o":"m 478 -12 q 316 20 386 -12 q 197 117 246 53 q 122 274 147 181 q 97 489 97 368 q 122 703 97 610 q 197 862 147 797 q 316 959 246 926 q 478 992 386 992 q 640 958 569 992 q 759 862 711 925 q 833 705 807 799 q 858 490 858 611 q 833 276 858 369 q 760 117 808 182 q 640 20 711 53 q 478 -12 569 -12 m 478 103 q 615 144 561 103 q 697 273 668 186 q 725 490 725 360 q 697 708 725 622 q 615 835 669 793 q 478 876 560 876 q 341 835 396 876 q 258 707 286 793 q 229 489 229 621 q 258 272 229 358 q 342 144 286 186 q 478 103 397 103 m 603 900 l 554 985 q 598 981 579 982 q 633 979 617 979 q 698 997 674 979 q 732 1047 722 1014 q 742 1126 742 1079 l 742 1157 l 869 1157 l 869 1113 q 849 1003 869 1051 q 792 927 828 954 q 707 900 756 900 l 603 900 m 389 1063 l 522 1283 l 678 1283 l 497 1063 l 389 1063 z "},"Ợ":{"ha":956,"x_min":97,"x_max":869,"o":"m 478 -12 q 316 20 386 -12 q 197 117 246 53 q 122 274 147 181 q 97 489 97 368 q 122 703 97 610 q 197 862 147 797 q 316 959 246 926 q 478 992 386 992 q 640 958 569 992 q 759 862 711 925 q 833 705 807 799 q 858 490 858 611 q 833 276 858 369 q 760 117 808 182 q 640 20 711 53 q 478 -12 569 -12 m 478 103 q 615 144 561 103 q 697 273 668 186 q 725 490 725 360 q 697 708 725 622 q 615 835 669 793 q 478 876 560 876 q 341 835 396 876 q 258 707 286 793 q 229 489 229 621 q 258 272 229 358 q 342 144 286 186 q 478 103 397 103 m 603 900 l 554 985 q 598 981 579 982 q 633 979 617 979 q 698 997 674 979 q 732 1047 722 1014 q 742 1126 742 1079 l 742 1157 l 869 1157 l 869 1113 q 849 1003 869 1051 q 792 927 828 954 q 707 900 756 900 l 603 900 m 410 -269 l 410 -133 l 549 -133 l 549 -269 l 410 -269 z "},"Ờ":{"ha":956,"x_min":97,"x_max":869,"o":"m 478 -12 q 316 20 386 -12 q 197 117 246 53 q 122 274 147 181 q 97 489 97 368 q 122 703 97 610 q 197 862 147 797 q 316 959 246 926 q 478 992 386 992 q 640 958 569 992 q 759 862 711 925 q 833 705 807 799 q 858 490 858 611 q 833 276 858 369 q 760 117 808 182 q 640 20 711 53 q 478 -12 569 -12 m 478 103 q 615 144 561 103 q 697 273 668 186 q 725 490 725 360 q 697 708 725 622 q 615 835 669 793 q 478 876 560 876 q 341 835 396 876 q 258 707 286 793 q 229 489 229 621 q 258 272 229 358 q 342 144 286 186 q 478 103 397 103 m 603 900 l 554 985 q 598 981 579 982 q 633 979 617 979 q 698 997 674 979 q 732 1047 722 1014 q 742 1126 742 1079 l 742 1157 l 869 1157 l 869 1113 q 849 1003 869 1051 q 792 927 828 954 q 707 900 756 900 l 603 900 m 394 1063 l 214 1279 l 360 1279 l 494 1063 l 394 1063 z "},"Ở":{"ha":956,"x_min":97,"x_max":869,"o":"m 478 -12 q 316 20 386 -12 q 197 117 246 53 q 122 274 147 181 q 97 489 97 368 q 122 703 97 610 q 197 862 147 797 q 316 959 246 926 q 478 992 386 992 q 640 958 569 992 q 759 862 711 925 q 833 705 807 799 q 858 490 858 611 q 833 276 858 369 q 760 117 808 182 q 640 20 711 53 q 478 -12 569 -12 m 478 103 q 615 144 561 103 q 697 273 668 186 q 725 490 725 360 q 697 708 725 622 q 615 835 669 793 q 478 876 560 876 q 341 835 396 876 q 258 707 286 793 q 229 489 229 621 q 258 272 229 358 q 342 144 286 186 q 478 103 397 103 m 603 900 l 554 985 q 598 981 579 982 q 633 979 617 979 q 698 997 674 979 q 732 1047 722 1014 q 742 1126 742 1079 l 742 1157 l 869 1157 l 869 1113 q 849 1003 869 1051 q 792 927 828 954 q 707 900 756 900 l 603 900 m 400 1063 l 400 1089 q 410 1128 400 1113 q 432 1157 419 1144 q 454 1181 444 1169 q 464 1208 464 1193 q 454 1231 464 1225 q 424 1238 444 1238 q 385 1235 406 1238 q 347 1222 365 1232 l 328 1286 q 381 1306 351 1300 q 447 1313 411 1313 q 537 1291 506 1313 q 568 1228 568 1269 q 556 1181 568 1199 q 526 1149 543 1163 q 497 1120 510 1135 q 485 1083 485 1106 l 485 1063 l 400 1063 z "},"Ỡ":{"ha":956,"x_min":97,"x_max":869,"o":"m 478 -12 q 316 20 386 -12 q 197 117 246 53 q 122 274 147 181 q 97 489 97 368 q 122 703 97 610 q 197 862 147 797 q 316 959 246 926 q 478 992 386 992 q 640 958 569 992 q 759 862 711 925 q 833 705 807 799 q 858 490 858 611 q 833 276 858 369 q 760 117 808 182 q 640 20 711 53 q 478 -12 569 -12 m 478 103 q 615 144 561 103 q 697 273 668 186 q 725 490 725 360 q 697 708 725 622 q 615 835 669 793 q 478 876 560 876 q 341 835 396 876 q 258 707 286 793 q 229 489 229 621 q 258 272 229 358 q 342 144 286 186 q 478 103 397 103 m 603 900 l 554 985 q 598 981 579 982 q 633 979 617 979 q 698 997 674 979 q 732 1047 722 1014 q 742 1126 742 1079 l 742 1157 l 869 1157 l 869 1113 q 849 1003 869 1051 q 792 927 828 954 q 707 900 756 900 l 603 900 m 250 1078 l 171 1083 q 187 1174 171 1135 q 234 1236 203 1214 q 308 1258 265 1258 q 381 1240 351 1258 q 431 1208 410 1221 q 467 1186 446 1200 q 510 1172 488 1172 q 558 1199 542 1172 q 572 1263 574 1225 l 650 1258 q 635 1167 651 1206 q 588 1106 619 1128 q 515 1083 557 1083 q 444 1102 474 1083 q 394 1133 414 1121 q 359 1156 379 1143 q 313 1169 339 1169 q 266 1144 281 1169 q 250 1078 251 1118 z "},"Ő":{"ha":956,"x_min":97,"x_max":858,"o":"m 478 -12 q 316 20 386 -12 q 197 117 246 53 q 122 274 147 181 q 97 489 97 368 q 122 703 97 610 q 197 862 147 797 q 316 959 246 926 q 478 992 386 992 q 640 958 569 992 q 759 862 711 925 q 833 705 807 799 q 858 490 858 611 q 833 276 858 369 q 760 117 808 182 q 640 20 711 53 q 478 -12 569 -12 m 478 103 q 615 144 561 103 q 697 273 668 186 q 725 490 725 360 q 697 708 725 622 q 615 835 669 793 q 478 876 560 876 q 341 835 396 876 q 258 707 286 793 q 229 489 229 621 q 258 272 229 358 q 342 144 286 186 q 478 103 397 103 m 354 1063 l 449 1279 l 578 1279 l 436 1063 l 354 1063 m 521 1063 l 628 1279 l 756 1279 l 601 1063 l 521 1063 z "},"Ȏ":{"ha":956,"x_min":97,"x_max":858,"o":"m 478 -12 q 316 20 386 -12 q 197 117 246 53 q 122 274 147 181 q 97 489 97 368 q 122 703 97 610 q 197 862 147 797 q 316 959 246 926 q 478 992 386 992 q 640 958 569 992 q 759 862 711 925 q 833 705 807 799 q 858 490 858 611 q 833 276 858 369 q 760 117 808 182 q 640 20 711 53 q 478 -12 569 -12 m 478 103 q 615 144 561 103 q 697 273 668 186 q 725 490 725 360 q 697 708 725 622 q 615 835 669 793 q 478 876 560 876 q 341 835 396 876 q 258 707 286 793 q 229 489 229 621 q 258 272 229 358 q 342 144 286 186 q 478 103 397 103 m 369 1056 l 282 1064 q 335 1232 285 1176 q 478 1288 386 1288 q 620 1231 569 1288 q 674 1064 671 1174 l 588 1056 q 562 1155 586 1121 q 479 1189 538 1189 q 398 1156 424 1189 q 369 1056 372 1124 z "},"Ō":{"ha":956,"x_min":97,"x_max":858,"o":"m 478 -12 q 316 20 386 -12 q 197 117 246 53 q 122 274 147 181 q 97 489 97 368 q 122 703 97 610 q 197 862 147 797 q 316 959 246 926 q 478 992 386 992 q 640 958 569 992 q 759 862 711 925 q 833 705 807 799 q 858 490 858 611 q 833 276 858 369 q 760 117 808 182 q 640 20 711 53 q 478 -12 569 -12 m 478 103 q 615 144 561 103 q 697 273 668 186 q 725 490 725 360 q 697 708 725 622 q 615 835 669 793 q 478 876 560 876 q 341 835 396 876 q 258 707 286 793 q 229 489 229 621 q 258 272 229 358 q 342 144 286 186 q 478 103 397 103 m 282 1126 l 282 1228 l 674 1228 l 674 1126 l 282 1126 z "},"Ṓ":{"ha":956,"x_min":97,"x_max":858,"o":"m 478 -12 q 316 20 386 -12 q 197 117 246 53 q 122 274 147 181 q 97 489 97 368 q 122 703 97 610 q 197 862 147 797 q 316 959 246 926 q 478 992 386 992 q 640 958 569 992 q 759 862 711 925 q 833 705 807 799 q 858 490 858 611 q 833 276 858 369 q 760 117 808 182 q 640 20 711 53 q 478 -12 569 -12 m 478 103 q 615 144 561 103 q 697 273 668 186 q 725 490 725 360 q 697 708 725 622 q 615 835 669 793 q 478 876 560 876 q 341 835 396 876 q 258 707 286 793 q 229 489 229 621 q 258 272 229 358 q 342 144 286 186 q 478 103 397 103 m 292 1100 l 292 1192 l 664 1192 l 664 1100 l 292 1100 m 418 1247 l 515 1450 l 661 1450 l 515 1247 l 418 1247 z "},"Ṑ":{"ha":956,"x_min":97,"x_max":858,"o":"m 478 -12 q 316 20 386 -12 q 197 117 246 53 q 122 274 147 181 q 97 489 97 368 q 122 703 97 610 q 197 862 147 797 q 316 959 246 926 q 478 992 386 992 q 640 958 569 992 q 759 862 711 925 q 833 705 807 799 q 858 490 858 611 q 833 276 858 369 q 760 117 808 182 q 640 20 711 53 q 478 -12 569 -12 m 478 103 q 615 144 561 103 q 697 273 668 186 q 725 490 725 360 q 697 708 725 622 q 615 835 669 793 q 478 876 560 876 q 341 835 396 876 q 258 707 286 793 q 229 489 229 621 q 258 272 229 358 q 342 144 286 186 q 478 103 397 103 m 440 1247 l 294 1450 l 440 1450 l 538 1247 l 440 1247 m 292 1100 l 292 1192 l 664 1192 l 664 1100 l 292 1100 z "},"Ǫ":{"ha":956,"x_min":97,"x_max":858,"o":"m 478 -12 q 316 20 386 -12 q 197 117 246 53 q 122 274 147 181 q 97 489 97 368 q 122 703 97 610 q 197 862 147 797 q 316 959 246 926 q 478 992 386 992 q 640 958 569 992 q 759 862 711 925 q 833 705 807 799 q 858 490 858 611 q 833 276 858 369 q 760 117 808 182 q 640 20 711 53 q 478 -12 569 -12 m 478 103 q 615 144 561 103 q 697 273 668 186 q 725 490 725 360 q 697 708 725 622 q 615 835 669 793 q 478 876 560 876 q 341 835 396 876 q 258 707 286 793 q 229 489 229 621 q 258 272 229 358 q 342 144 286 186 q 478 103 397 103 m 529 -276 q 428 -242 465 -276 q 390 -147 390 -208 q 424 -42 390 -92 q 511 44 457 7 l 556 0 q 519 -33 535 -14 q 494 -76 503 -53 q 486 -124 486 -99 q 502 -174 486 -157 q 546 -190 518 -190 q 574 -186 558 -190 q 604 -176 589 -182 l 625 -254 q 579 -271 601 -265 q 529 -276 557 -276 z "},"Ø":{"ha":956,"x_min":97,"x_max":858,"o":"m 478 -12 q 316 20 386 -12 q 197 117 246 53 q 122 274 147 181 q 97 489 97 368 q 122 703 97 610 q 197 862 147 797 q 316 959 246 926 q 478 992 386 992 q 640 958 569 992 q 759 862 711 925 q 833 705 807 799 q 858 490 858 611 q 833 276 858 369 q 760 117 808 182 q 640 20 711 53 q 478 -12 569 -12 m 478 103 q 615 144 561 103 q 697 273 668 186 q 725 490 725 360 q 697 708 725 622 q 615 835 669 793 q 478 876 560 876 q 341 835 396 876 q 258 707 286 793 q 229 489 229 621 q 258 272 229 358 q 342 144 286 186 q 478 103 397 103 m 281 -69 l 179 -18 l 250 126 l 292 192 l 601 861 l 621 922 l 689 1060 l 789 1008 l 718 865 l 678 799 l 367 129 l 347 68 l 281 -69 z "},"Ǿ":{"ha":956,"x_min":97,"x_max":858,"o":"m 478 -12 q 316 20 386 -12 q 197 117 246 53 q 122 274 147 181 q 97 489 97 368 q 122 703 97 610 q 197 862 147 797 q 316 959 246 926 q 478 992 386 992 q 640 958 569 992 q 759 862 711 925 q 833 705 807 799 q 858 490 858 611 q 833 276 858 369 q 760 117 808 182 q 640 20 711 53 q 478 -12 569 -12 m 478 103 q 615 144 561 103 q 697 273 668 186 q 725 490 725 360 q 697 708 725 622 q 615 835 669 793 q 478 876 560 876 q 341 835 396 876 q 258 707 286 793 q 229 489 229 621 q 258 272 229 358 q 342 144 286 186 q 478 103 397 103 m 281 -69 l 179 -18 l 250 126 l 292 192 l 601 861 l 621 922 l 689 1060 l 789 1008 l 718 865 l 678 799 l 367 129 l 347 68 l 281 -69 m 424 1063 l 557 1283 l 713 1283 l 532 1063 l 424 1063 z "},"Õ":{"ha":956,"x_min":97,"x_max":858,"o":"m 478 -12 q 316 20 386 -12 q 197 117 246 53 q 122 274 147 181 q 97 489 97 368 q 122 703 97 610 q 197 862 147 797 q 316 959 246 926 q 478 992 386 992 q 640 958 569 992 q 759 862 711 925 q 833 705 807 799 q 858 490 858 611 q 833 276 858 369 q 760 117 808 182 q 640 20 711 53 q 478 -12 569 -12 m 478 103 q 615 144 561 103 q 697 273 668 186 q 725 490 725 360 q 697 708 725 622 q 615 835 669 793 q 478 876 560 876 q 341 835 396 876 q 258 707 286 793 q 229 489 229 621 q 258 272 229 358 q 342 144 286 186 q 478 103 397 103 m 311 1076 l 231 1082 q 266 1209 229 1160 q 367 1258 303 1258 q 445 1239 411 1258 q 497 1210 479 1219 q 533 1188 510 1201 q 582 1174 557 1174 q 629 1198 613 1174 q 644 1264 646 1222 l 725 1258 q 691 1131 728 1181 q 590 1082 654 1082 q 511 1101 544 1082 q 464 1129 478 1121 q 424 1153 449 1139 q 374 1167 399 1167 q 328 1143 344 1167 q 311 1076 311 1119 z "},"Ṍ":{"ha":956,"x_min":97,"x_max":858,"o":"m 478 -12 q 316 20 386 -12 q 197 117 246 53 q 122 274 147 181 q 97 489 97 368 q 122 703 97 610 q 197 862 147 797 q 316 959 246 926 q 478 992 386 992 q 640 958 569 992 q 759 862 711 925 q 833 705 807 799 q 858 490 858 611 q 833 276 858 369 q 760 117 808 182 q 640 20 711 53 q 478 -12 569 -12 m 478 103 q 615 144 561 103 q 697 273 668 186 q 725 490 725 360 q 697 708 725 622 q 615 835 669 793 q 478 876 560 876 q 341 835 396 876 q 258 707 286 793 q 229 489 229 621 q 258 272 229 358 q 342 144 286 186 q 478 103 397 103 m 428 1244 l 525 1447 l 671 1447 l 526 1244 l 428 1244 m 558 1065 q 499 1081 522 1065 q 461 1104 475 1096 q 437 1121 453 1108 q 397 1133 421 1133 q 365 1115 375 1133 q 349 1064 354 1097 l 278 1068 q 294 1147 282 1114 q 332 1197 307 1179 q 396 1215 357 1215 q 460 1199 433 1215 q 497 1174 486 1183 q 523 1159 507 1169 q 558 1149 539 1149 q 593 1167 582 1149 q 607 1217 604 1185 l 679 1213 q 645 1104 674 1143 q 558 1065 617 1065 z "},"Ṏ":{"ha":956,"x_min":97,"x_max":858,"o":"m 478 -12 q 316 20 386 -12 q 197 117 246 53 q 122 274 147 181 q 97 489 97 368 q 122 703 97 610 q 197 862 147 797 q 316 959 246 926 q 478 992 386 992 q 640 958 569 992 q 759 862 711 925 q 833 705 807 799 q 858 490 858 611 q 833 276 858 369 q 760 117 808 182 q 640 20 711 53 q 478 -12 569 -12 m 478 103 q 615 144 561 103 q 697 273 668 186 q 725 490 725 360 q 697 708 725 622 q 615 835 669 793 q 478 876 560 876 q 341 835 396 876 q 258 707 286 793 q 229 489 229 621 q 258 272 229 358 q 342 144 286 186 q 478 103 397 103 m 558 1065 q 499 1081 522 1065 q 461 1104 475 1096 q 437 1121 453 1108 q 397 1133 421 1133 q 366 1115 376 1133 q 349 1064 356 1097 l 278 1068 q 294 1147 282 1114 q 332 1197 307 1179 q 396 1215 357 1215 q 460 1199 433 1215 q 497 1174 486 1183 q 523 1159 507 1169 q 558 1149 539 1149 q 593 1167 582 1149 q 607 1217 604 1185 l 679 1213 q 645 1104 674 1143 q 558 1065 617 1065 m 293 1282 l 293 1396 l 431 1396 l 431 1282 l 293 1282 m 525 1282 l 525 1396 l 663 1396 l 663 1282 l 525 1282 z "},"Ȭ":{"ha":956,"x_min":97,"x_max":858,"o":"m 478 -12 q 316 20 386 -12 q 197 117 246 53 q 122 274 147 181 q 97 489 97 368 q 122 703 97 610 q 197 862 147 797 q 316 959 246 926 q 478 992 386 992 q 640 958 569 992 q 759 862 711 925 q 833 705 807 799 q 858 490 858 611 q 833 276 858 369 q 760 117 808 182 q 640 20 711 53 q 478 -12 569 -12 m 478 103 q 615 144 561 103 q 697 273 668 186 q 725 490 725 360 q 697 708 725 622 q 615 835 669 793 q 478 876 560 876 q 341 835 396 876 q 258 707 286 793 q 229 489 229 621 q 258 272 229 358 q 342 144 286 186 q 478 103 397 103 m 285 1297 l 285 1389 l 671 1389 l 671 1297 l 285 1297 m 558 1065 q 499 1081 522 1065 q 461 1104 475 1096 q 437 1121 453 1108 q 397 1133 421 1133 q 365 1115 375 1133 q 349 1064 354 1097 l 278 1069 q 294 1147 282 1114 q 332 1198 307 1179 q 396 1217 357 1217 q 460 1200 433 1217 q 497 1174 486 1183 q 523 1159 507 1169 q 558 1149 539 1149 q 593 1167 582 1149 q 607 1217 604 1185 l 679 1213 q 645 1104 674 1143 q 558 1065 617 1065 z "},"Œ":{"ha":1301,"x_min":97,"x_max":1196,"o":"m 501 0 q 326 33 403 0 q 199 128 250 65 q 123 282 149 192 q 97 489 97 372 q 123 696 97 606 q 200 849 149 786 q 327 946 251 913 q 501 979 403 979 l 1196 979 l 1196 867 l 786 867 l 786 553 l 1172 553 l 1172 439 l 786 439 l 786 113 l 1196 113 l 1196 0 l 501 0 m 507 111 l 658 111 l 658 868 l 506 868 q 299 776 368 868 q 229 489 229 685 q 299 201 229 292 q 507 111 369 111 z "},"P":{"ha":831,"x_min":129,"x_max":751,"o":"m 129 0 l 129 979 l 471 979 q 621 943 558 979 q 717 842 683 907 q 751 683 751 776 q 717 525 751 592 q 619 421 682 458 q 471 383 557 383 l 258 383 l 258 0 l 129 0 m 258 494 l 449 494 q 577 541 532 494 q 622 682 622 588 q 578 822 622 776 q 449 868 533 868 l 258 868 l 258 494 z "},"Þ":{"ha":818,"x_min":129,"x_max":750,"o":"m 129 0 l 129 979 l 258 979 l 258 801 l 469 801 q 619 767 557 801 q 716 667 682 732 q 750 510 750 601 q 715 351 750 418 q 619 249 681 285 q 469 213 557 213 l 258 213 l 258 0 l 129 0 m 258 322 l 447 322 q 576 367 531 322 q 621 508 621 413 q 576 647 621 603 q 447 692 532 692 l 258 692 l 258 322 z "},"Q":{"ha":956,"x_min":97,"x_max":858,"o":"m 707 -282 l 603 -89 q 558 -33 583 -53 q 488 -12 532 -12 l 581 29 q 649 21 621 29 q 697 -8 676 13 q 738 -64 718 -28 l 821 -225 l 707 -282 m 478 -12 q 316 20 386 -12 q 197 117 246 53 q 122 274 147 181 q 97 489 97 368 q 122 703 97 610 q 197 862 147 797 q 316 959 246 926 q 478 992 386 992 q 640 958 569 992 q 759 862 711 925 q 833 705 807 799 q 858 490 858 611 q 833 276 858 369 q 760 117 808 182 q 640 20 711 53 q 478 -12 569 -12 m 478 103 q 615 144 561 103 q 697 273 668 186 q 725 490 725 360 q 697 708 725 622 q 615 835 669 793 q 478 876 560 876 q 341 835 396 876 q 258 707 286 793 q 229 489 229 621 q 258 272 229 358 q 341 144 286 186 q 478 103 396 103 z "},"R":{"ha":860,"x_min":129,"x_max":796,"o":"m 129 0 l 129 979 l 469 979 q 676 907 601 979 q 750 699 750 835 q 727 567 750 622 q 665 476 704 511 q 576 429 626 442 l 574 426 l 583 424 q 624 392 604 415 q 660 324 643 369 l 796 0 l 653 0 l 528 300 q 494 358 513 336 q 452 390 476 381 q 389 399 428 399 l 258 399 l 258 0 l 129 0 m 258 507 l 461 507 q 581 554 542 507 q 621 693 621 601 q 580 826 621 783 q 454 868 539 868 l 258 868 l 258 507 z "},"Ŕ":{"ha":860,"x_min":129,"x_max":796,"o":"m 129 0 l 129 979 l 469 979 q 676 907 601 979 q 750 699 750 835 q 727 567 750 622 q 665 476 704 511 q 576 429 626 442 l 574 426 l 583 424 q 624 392 604 415 q 660 324 643 369 l 796 0 l 653 0 l 528 300 q 494 358 513 336 q 452 390 476 381 q 389 399 428 399 l 258 399 l 258 0 l 129 0 m 258 507 l 461 507 q 581 554 542 507 q 621 693 621 601 q 580 826 621 783 q 454 868 539 868 l 258 868 l 258 507 m 375 1063 l 508 1283 l 664 1283 l 483 1063 l 375 1063 z "},"Ř":{"ha":860,"x_min":129,"x_max":796,"o":"m 129 0 l 129 979 l 469 979 q 676 907 601 979 q 750 699 750 835 q 727 567 750 622 q 665 476 704 511 q 576 429 626 442 l 574 426 l 583 424 q 624 392 604 415 q 660 324 643 369 l 796 0 l 653 0 l 528 300 q 494 358 513 336 q 452 390 476 381 q 389 399 428 399 l 258 399 l 258 0 l 129 0 m 258 507 l 461 507 q 581 554 542 507 q 621 693 621 601 q 580 826 621 783 q 454 868 539 868 l 258 868 l 258 507 m 369 1063 l 228 1279 l 329 1279 l 429 1140 l 531 1279 l 631 1279 l 489 1063 l 369 1063 z "},"Ŗ":{"ha":860,"x_min":129,"x_max":796,"o":"m 129 0 l 129 979 l 469 979 q 676 907 601 979 q 750 699 750 835 q 727 567 750 622 q 665 476 704 511 q 576 429 626 442 l 574 426 l 583 424 q 624 392 604 415 q 660 324 643 369 l 796 0 l 653 0 l 528 300 q 494 358 513 336 q 452 390 476 381 q 389 399 428 399 l 258 399 l 258 0 l 129 0 m 258 507 l 461 507 q 581 554 542 507 q 621 693 621 601 q 580 826 621 783 q 454 868 539 868 l 258 868 l 258 507 m 432 -403 l 376 -362 q 413 -300 401 -335 q 424 -224 424 -265 l 443 -240 l 360 -240 l 360 -108 l 497 -108 l 497 -210 q 483 -316 497 -268 q 432 -403 468 -364 z "},"Ȑ":{"ha":860,"x_min":129,"x_max":796,"o":"m 129 0 l 129 979 l 469 979 q 676 907 601 979 q 750 699 750 835 q 727 567 750 622 q 665 476 704 511 q 576 429 626 442 l 574 426 l 583 424 q 624 392 604 415 q 660 324 643 369 l 796 0 l 653 0 l 528 300 q 494 358 513 336 q 452 390 476 381 q 389 399 428 399 l 258 399 l 258 0 l 129 0 m 258 507 l 461 507 q 581 554 542 507 q 621 693 621 601 q 580 826 621 783 q 454 868 539 868 l 258 868 l 258 507 m 471 1063 l 329 1279 l 457 1279 l 553 1063 l 471 1063 m 304 1063 l 151 1279 l 278 1279 l 385 1063 l 304 1063 z "},"Ṛ":{"ha":860,"x_min":129,"x_max":796,"o":"m 129 0 l 129 979 l 469 979 q 676 907 601 979 q 750 699 750 835 q 727 567 750 622 q 665 476 704 511 q 576 429 626 442 l 574 426 l 583 424 q 624 392 604 415 q 660 324 643 369 l 796 0 l 653 0 l 528 300 q 494 358 513 336 q 452 390 476 381 q 389 399 428 399 l 258 399 l 258 0 l 129 0 m 258 507 l 461 507 q 581 554 542 507 q 621 693 621 601 q 580 826 621 783 q 454 868 539 868 l 258 868 l 258 507 m 360 -269 l 360 -133 l 499 -133 l 499 -269 l 360 -269 z "},"Ȓ":{"ha":860,"x_min":129,"x_max":796,"o":"m 129 0 l 129 979 l 469 979 q 676 907 601 979 q 750 699 750 835 q 727 567 750 622 q 665 476 704 511 q 576 429 626 442 l 574 426 l 583 424 q 624 392 604 415 q 660 324 643 369 l 796 0 l 653 0 l 528 300 q 494 358 513 336 q 452 390 476 381 q 389 399 428 399 l 258 399 l 258 0 l 129 0 m 258 507 l 461 507 q 581 554 542 507 q 621 693 621 601 q 580 826 621 783 q 454 868 539 868 l 258 868 l 258 507 m 321 1056 l 233 1064 q 287 1232 236 1176 q 429 1288 338 1288 q 572 1231 521 1288 q 625 1064 622 1174 l 539 1056 q 513 1155 538 1121 q 431 1189 489 1189 q 349 1156 375 1189 q 321 1056 324 1124 z "},"Ṟ":{"ha":860,"x_min":129,"x_max":796,"o":"m 129 0 l 129 979 l 469 979 q 676 907 601 979 q 750 699 750 835 q 727 567 750 622 q 665 476 704 511 q 576 429 626 442 l 574 426 l 583 424 q 624 392 604 415 q 660 324 643 369 l 796 0 l 653 0 l 528 300 q 494 358 513 336 q 452 390 476 381 q 389 399 428 399 l 258 399 l 258 0 l 129 0 m 258 507 l 461 507 q 581 554 542 507 q 621 693 621 601 q 580 826 621 783 q 454 868 539 868 l 258 868 l 258 507 m 236 -235 l 236 -133 l 622 -133 l 622 -235 l 236 -235 z "},"S":{"ha":789,"x_min":81,"x_max":715,"o":"m 403 -12 q 280 -2 340 -12 q 168 30 219 8 q 81 83 117 51 l 122 190 q 208 138 161 157 q 304 112 254 119 q 403 104 354 104 q 535 142 485 104 q 585 264 585 181 q 569 335 585 307 q 522 382 554 364 q 440 414 489 400 l 304 449 q 145 547 193 479 q 97 711 97 614 q 138 861 97 799 q 253 958 179 924 q 424 992 326 992 q 530 980 479 992 q 622 946 581 968 q 696 890 664 924 l 654 785 q 550 854 608 833 q 431 875 492 875 q 326 858 372 875 q 253 806 279 840 q 226 715 226 771 q 257 619 226 657 q 354 563 288 582 l 489 529 q 660 435 606 501 q 715 271 715 369 q 676 122 715 186 q 567 22 636 57 q 403 -12 497 -12 z "},"Ś":{"ha":789,"x_min":81,"x_max":715,"o":"m 403 -12 q 280 -2 340 -12 q 168 30 219 8 q 81 83 117 51 l 122 190 q 208 138 161 157 q 304 112 254 119 q 403 104 354 104 q 535 142 485 104 q 585 264 585 181 q 569 335 585 307 q 522 382 554 364 q 440 414 489 400 l 304 449 q 145 547 193 479 q 97 711 97 614 q 138 861 97 799 q 253 958 179 924 q 424 992 326 992 q 530 980 479 992 q 622 946 581 968 q 696 890 664 924 l 654 785 q 550 854 608 833 q 431 875 492 875 q 326 858 372 875 q 253 806 279 840 q 226 715 226 771 q 257 619 226 657 q 354 563 288 582 l 489 529 q 660 435 606 501 q 715 271 715 369 q 676 122 715 186 q 567 22 636 57 q 403 -12 497 -12 m 361 1063 l 494 1283 l 650 1283 l 469 1063 l 361 1063 z "},"Ṥ":{"ha":789,"x_min":81,"x_max":715,"o":"m 403 -12 q 280 -2 340 -12 q 168 30 219 8 q 81 83 117 51 l 122 190 q 208 138 161 157 q 304 112 254 119 q 403 104 354 104 q 535 142 485 104 q 585 264 585 181 q 569 335 585 307 q 522 382 554 364 q 440 414 489 400 l 304 449 q 145 547 193 479 q 97 711 97 614 q 138 861 97 799 q 253 958 179 924 q 424 992 326 992 q 530 980 479 992 q 622 946 581 968 q 696 890 664 924 l 654 785 q 550 854 608 833 q 431 875 492 875 q 326 858 372 875 q 253 806 279 840 q 226 715 226 771 q 257 619 226 657 q 354 563 288 582 l 489 529 q 660 435 606 501 q 715 271 715 369 q 676 122 715 186 q 567 22 636 57 q 403 -12 497 -12 m 278 1329 l 278 1447 l 417 1447 l 417 1329 l 278 1329 m 365 1063 l 472 1335 l 615 1335 l 465 1063 l 365 1063 z "},"Š":{"ha":789,"x_min":81,"x_max":715,"o":"m 403 -12 q 280 -2 340 -12 q 168 30 219 8 q 81 83 117 51 l 122 190 q 208 138 161 157 q 304 112 254 119 q 403 104 354 104 q 535 142 485 104 q 585 264 585 181 q 569 335 585 307 q 522 382 554 364 q 440 414 489 400 l 304 449 q 145 547 193 479 q 97 711 97 614 q 138 861 97 799 q 253 958 179 924 q 424 992 326 992 q 530 980 479 992 q 622 946 581 968 q 696 890 664 924 l 654 785 q 550 854 608 833 q 431 875 492 875 q 326 858 372 875 q 253 806 279 840 q 226 715 226 771 q 257 619 226 657 q 354 563 288 582 l 489 529 q 660 435 606 501 q 715 271 715 369 q 676 122 715 186 q 567 22 636 57 q 403 -12 497 -12 m 356 1063 l 214 1279 l 315 1279 l 415 1140 l 517 1279 l 617 1279 l 475 1063 l 356 1063 z "},"Ṧ":{"ha":789,"x_min":81,"x_max":715,"o":"m 403 -12 q 280 -2 340 -12 q 168 30 219 8 q 81 83 117 51 l 122 190 q 208 138 161 157 q 304 112 254 119 q 403 104 354 104 q 535 142 485 104 q 585 264 585 181 q 569 335 585 307 q 522 382 554 364 q 440 414 489 400 l 304 449 q 145 547 193 479 q 97 711 97 614 q 138 861 97 799 q 253 958 179 924 q 424 992 326 992 q 530 980 479 992 q 622 946 581 968 q 696 890 664 924 l 654 785 q 550 854 608 833 q 431 875 492 875 q 326 858 372 875 q 253 806 279 840 q 226 715 226 771 q 257 619 226 657 q 354 563 288 582 l 489 529 q 660 435 606 501 q 715 271 715 369 q 676 122 715 186 q 567 22 636 57 q 403 -12 497 -12 m 356 1069 l 228 1290 l 325 1290 l 415 1143 l 507 1290 l 603 1290 l 475 1069 l 356 1069 m 342 1353 l 342 1471 l 489 1471 l 489 1353 l 342 1353 z "},"Ş":{"ha":789,"x_min":81,"x_max":715,"o":"m 403 -12 q 280 -2 340 -12 q 168 30 219 8 q 81 83 117 51 l 122 190 q 208 138 161 157 q 304 112 254 119 q 403 104 354 104 q 535 142 485 104 q 585 264 585 181 q 569 335 585 307 q 522 382 554 364 q 440 414 489 400 l 304 449 q 145 547 193 479 q 97 711 97 614 q 138 861 97 799 q 253 958 179 924 q 424 992 326 992 q 530 980 479 992 q 622 946 581 968 q 696 890 664 924 l 654 785 q 550 854 608 833 q 431 875 492 875 q 326 858 372 875 q 253 806 279 840 q 226 715 226 771 q 257 619 226 657 q 354 563 288 582 l 489 529 q 660 435 606 501 q 715 271 715 369 q 676 122 715 186 q 567 22 636 57 q 403 -12 497 -12 m 401 -275 q 336 -268 371 -275 q 281 -249 301 -261 l 301 -182 q 344 -200 321 -193 q 396 -207 368 -207 q 447 -195 431 -207 q 464 -158 464 -183 q 450 -126 464 -136 q 414 -115 436 -115 q 388 -118 403 -115 q 360 -125 372 -121 l 336 -104 l 357 28 l 426 28 l 410 -83 l 378 -68 q 409 -60 389 -62 q 451 -57 429 -57 q 501 -68 478 -57 q 538 -102 524 -79 q 553 -158 553 -125 q 534 -223 553 -197 q 481 -262 515 -249 q 401 -275 446 -275 z "},"Ŝ":{"ha":789,"x_min":81,"x_max":715,"o":"m 403 -12 q 280 -2 340 -12 q 168 30 219 8 q 81 83 117 51 l 122 190 q 208 138 161 157 q 304 112 254 119 q 403 104 354 104 q 535 142 485 104 q 585 264 585 181 q 569 335 585 307 q 522 382 554 364 q 440 414 489 400 l 304 449 q 145 547 193 479 q 97 711 97 614 q 138 861 97 799 q 253 958 179 924 q 424 992 326 992 q 530 980 479 992 q 622 946 581 968 q 696 890 664 924 l 654 785 q 550 854 608 833 q 431 875 492 875 q 326 858 372 875 q 253 806 279 840 q 226 715 226 771 q 257 619 226 657 q 354 563 288 582 l 489 529 q 660 435 606 501 q 715 271 715 369 q 676 122 715 186 q 567 22 636 57 q 403 -12 497 -12 m 214 1063 l 356 1279 l 475 1279 l 617 1063 l 515 1063 l 415 1203 l 314 1063 l 214 1063 z "},"Ș":{"ha":789,"x_min":81,"x_max":715,"o":"m 403 -12 q 280 -2 340 -12 q 168 30 219 8 q 81 83 117 51 l 122 190 q 208 138 161 157 q 304 112 254 119 q 403 104 354 104 q 535 142 485 104 q 585 264 585 181 q 569 335 585 307 q 522 382 554 364 q 440 414 489 400 l 304 449 q 145 547 193 479 q 97 711 97 614 q 138 861 97 799 q 253 958 179 924 q 424 992 326 992 q 530 980 479 992 q 622 946 581 968 q 696 890 664 924 l 654 785 q 550 854 608 833 q 431 875 492 875 q 326 858 372 875 q 253 806 279 840 q 226 715 226 771 q 257 619 226 657 q 354 563 288 582 l 489 529 q 660 435 606 501 q 715 271 715 369 q 676 122 715 186 q 567 22 636 57 q 403 -12 497 -12 m 396 -403 l 340 -362 q 376 -300 365 -335 q 388 -224 388 -265 l 407 -240 l 324 -240 l 324 -108 l 461 -108 l 461 -210 q 447 -316 461 -268 q 396 -403 432 -364 z "},"Ṡ":{"ha":789,"x_min":81,"x_max":715,"o":"m 403 -12 q 280 -2 340 -12 q 168 30 219 8 q 81 83 117 51 l 122 190 q 208 138 161 157 q 304 112 254 119 q 403 104 354 104 q 535 142 485 104 q 585 264 585 181 q 569 335 585 307 q 522 382 554 364 q 440 414 489 400 l 304 449 q 145 547 193 479 q 97 711 97 614 q 138 861 97 799 q 253 958 179 924 q 424 992 326 992 q 530 980 479 992 q 622 946 581 968 q 696 890 664 924 l 654 785 q 550 854 608 833 q 431 875 492 875 q 326 858 372 875 q 253 806 279 840 q 226 715 226 771 q 257 619 226 657 q 354 563 288 582 l 489 529 q 660 435 606 501 q 715 271 715 369 q 676 122 715 186 q 567 22 636 57 q 403 -12 497 -12 m 342 1114 l 342 1256 l 488 1256 l 488 1114 l 342 1114 z "},"Ṣ":{"ha":789,"x_min":81,"x_max":715,"o":"m 403 -12 q 280 -2 340 -12 q 168 30 219 8 q 81 83 117 51 l 122 190 q 208 138 161 157 q 304 112 254 119 q 403 104 354 104 q 535 142 485 104 q 585 264 585 181 q 569 335 585 307 q 522 382 554 364 q 440 414 489 400 l 304 449 q 145 547 193 479 q 97 711 97 614 q 138 861 97 799 q 253 958 179 924 q 424 992 326 992 q 530 980 479 992 q 622 946 581 968 q 696 890 664 924 l 654 785 q 550 854 608 833 q 431 875 492 875 q 326 858 372 875 q 253 806 279 840 q 226 715 226 771 q 257 619 226 657 q 354 563 288 582 l 489 529 q 660 435 606 501 q 715 271 715 369 q 676 122 715 186 q 567 22 636 57 q 403 -12 497 -12 m 324 -269 l 324 -133 l 463 -133 l 463 -269 l 324 -269 z "},"Ṩ":{"ha":789,"x_min":81,"x_max":715,"o":"m 403 -12 q 280 -2 340 -12 q 168 30 219 8 q 81 83 117 51 l 122 190 q 208 138 161 157 q 304 112 254 119 q 403 104 354 104 q 535 142 485 104 q 585 264 585 181 q 569 335 585 307 q 522 382 554 364 q 440 414 489 400 l 304 449 q 145 547 193 479 q 97 711 97 614 q 138 861 97 799 q 253 958 179 924 q 424 992 326 992 q 530 980 479 992 q 622 946 581 968 q 696 890 664 924 l 654 785 q 550 854 608 833 q 431 875 492 875 q 326 858 372 875 q 253 806 279 840 q 226 715 226 771 q 257 619 226 657 q 354 563 288 582 l 489 529 q 660 435 606 501 q 715 271 715 369 q 676 122 715 186 q 567 22 636 57 q 403 -12 497 -12 m 324 -269 l 324 -133 l 463 -133 l 463 -269 l 324 -269 m 342 1114 l 342 1256 l 488 1256 l 488 1114 l 342 1114 z "},"ẞ":{"ha":911,"x_min":129,"x_max":814,"o":"m 540 -12 q 430 6 481 -12 q 333 60 379 24 l 368 160 q 442 113 410 128 q 517 99 475 99 q 640 143 594 99 q 685 272 685 188 q 638 401 685 360 q 510 442 590 442 l 389 442 l 389 546 l 478 546 q 556 566 521 546 q 613 624 592 586 q 633 718 633 663 q 590 840 633 800 q 465 879 547 879 q 309 818 360 879 q 258 626 258 757 l 258 0 l 129 0 l 129 631 q 165 826 129 746 q 276 949 201 907 q 464 992 350 992 q 626 960 558 992 q 728 872 693 929 q 764 735 764 814 q 749 638 764 682 q 709 562 735 594 q 650 510 683 529 l 650 506 q 769 422 725 488 q 814 260 814 356 q 781 121 814 182 q 687 24 749 60 q 540 -12 625 -12 z "},"T":{"ha":769,"x_min":43,"x_max":725,"o":"m 319 0 l 319 864 l 43 864 l 43 979 l 725 979 l 725 864 l 450 864 l 450 0 l 319 0 z "},"Ŧ":{"ha":769,"x_min":43,"x_max":725,"o":"m 319 0 l 319 864 l 43 864 l 43 979 l 725 979 l 725 864 l 450 864 l 450 0 l 319 0 m 153 418 l 153 529 l 615 529 l 615 418 l 153 418 z "},"Ť":{"ha":769,"x_min":43,"x_max":725,"o":"m 319 0 l 319 864 l 43 864 l 43 979 l 725 979 l 725 864 l 450 864 l 450 0 l 319 0 m 325 1063 l 183 1279 l 285 1279 l 385 1140 l 486 1279 l 586 1279 l 444 1063 l 325 1063 z "},"Ţ":{"ha":769,"x_min":43,"x_max":725,"o":"m 319 0 l 319 864 l 43 864 l 43 979 l 725 979 l 725 864 l 450 864 l 450 0 l 319 0 m 393 -275 q 328 -268 363 -275 q 272 -249 293 -261 l 293 -182 q 336 -200 313 -193 q 388 -207 360 -207 q 439 -195 422 -207 q 456 -158 456 -183 q 442 -126 456 -136 q 406 -115 428 -115 q 379 -118 394 -115 q 351 -125 364 -121 l 328 -104 l 349 28 l 418 28 l 401 -83 l 369 -68 q 401 -60 381 -62 q 443 -57 421 -57 q 492 -68 469 -57 q 530 -102 515 -79 q 544 -158 544 -125 q 526 -223 544 -197 q 472 -262 507 -249 q 393 -275 438 -275 z "},"Ț":{"ha":769,"x_min":43,"x_max":725,"o":"m 319 0 l 319 864 l 43 864 l 43 979 l 725 979 l 725 864 l 450 864 l 450 0 l 319 0 m 388 -403 l 332 -362 q 368 -300 357 -335 q 379 -224 379 -265 l 399 -240 l 315 -240 l 315 -108 l 453 -108 l 453 -210 q 438 -316 453 -268 q 388 -403 424 -364 z "},"Ṭ":{"ha":769,"x_min":43,"x_max":725,"o":"m 319 0 l 319 864 l 43 864 l 43 979 l 725 979 l 725 864 l 450 864 l 450 0 l 319 0 m 315 -269 l 315 -133 l 454 -133 l 454 -269 l 315 -269 z "},"Ṯ":{"ha":769,"x_min":43,"x_max":725,"o":"m 319 0 l 319 864 l 43 864 l 43 979 l 725 979 l 725 864 l 450 864 l 450 0 l 319 0 m 192 -235 l 192 -133 l 578 -133 l 578 -235 l 192 -235 z "},"U":{"ha":889,"x_min":117,"x_max":771,"o":"m 444 -12 q 198 75 279 -12 q 117 344 117 163 l 117 979 l 247 979 l 247 346 q 295 163 247 217 q 444 108 343 108 q 594 163 547 108 q 640 346 640 217 l 640 979 l 771 979 l 771 344 q 690 75 771 163 q 444 -12 608 -12 z "},"Ú":{"ha":889,"x_min":117,"x_max":771,"o":"m 444 -12 q 198 75 279 -12 q 117 344 117 163 l 117 979 l 247 979 l 247 346 q 295 163 247 217 q 444 108 343 108 q 594 163 547 108 q 640 346 640 217 l 640 979 l 771 979 l 771 344 q 690 75 771 163 q 444 -12 608 -12 m 389 1063 l 522 1283 l 678 1283 l 497 1063 l 389 1063 z "},"Ŭ":{"ha":889,"x_min":117,"x_max":771,"o":"m 444 -12 q 198 75 279 -12 q 117 344 117 163 l 117 979 l 247 979 l 247 346 q 295 163 247 217 q 444 108 343 108 q 594 163 547 108 q 640 346 640 217 l 640 979 l 771 979 l 771 344 q 690 75 771 163 q 444 -12 608 -12 m 443 1056 q 301 1112 351 1056 q 247 1279 250 1168 l 335 1288 q 362 1186 336 1219 q 443 1153 388 1153 q 527 1187 503 1153 q 553 1288 551 1221 l 639 1279 q 585 1112 636 1168 q 443 1056 533 1056 z "},"Û":{"ha":889,"x_min":117,"x_max":771,"o":"m 444 -12 q 198 75 279 -12 q 117 344 117 163 l 117 979 l 247 979 l 247 346 q 295 163 247 217 q 444 108 343 108 q 594 163 547 108 q 640 346 640 217 l 640 979 l 771 979 l 771 344 q 690 75 771 163 q 444 -12 608 -12 m 242 1063 l 383 1279 l 503 1279 l 644 1063 l 543 1063 l 443 1203 l 342 1063 l 242 1063 z "},"Ȕ":{"ha":889,"x_min":117,"x_max":771,"o":"m 444 -12 q 198 75 279 -12 q 117 344 117 163 l 117 979 l 247 979 l 247 346 q 295 163 247 217 q 444 108 343 108 q 594 163 547 108 q 640 346 640 217 l 640 979 l 771 979 l 771 344 q 690 75 771 163 q 444 -12 608 -12 m 485 1063 l 343 1279 l 471 1279 l 567 1063 l 485 1063 m 318 1063 l 165 1279 l 292 1279 l 399 1063 l 318 1063 z "},"Ü":{"ha":889,"x_min":117,"x_max":771,"o":"m 444 -12 q 198 75 279 -12 q 117 344 117 163 l 117 979 l 247 979 l 247 346 q 295 163 247 217 q 444 108 343 108 q 594 163 547 108 q 640 346 640 217 l 640 979 l 771 979 l 771 344 q 690 75 771 163 q 444 -12 608 -12 m 496 1110 l 496 1242 l 632 1242 l 632 1110 l 496 1110 m 254 1110 l 254 1242 l 390 1242 l 390 1110 l 254 1110 z "},"Ụ":{"ha":889,"x_min":117,"x_max":771,"o":"m 444 -12 q 198 75 279 -12 q 117 344 117 163 l 117 979 l 247 979 l 247 346 q 295 163 247 217 q 444 108 343 108 q 594 163 547 108 q 640 346 640 217 l 640 979 l 771 979 l 771 344 q 690 75 771 163 q 444 -12 608 -12 m 374 -269 l 374 -133 l 513 -133 l 513 -269 l 374 -269 z "},"Ù":{"ha":889,"x_min":117,"x_max":771,"o":"m 444 -12 q 198 75 279 -12 q 117 344 117 163 l 117 979 l 247 979 l 247 346 q 295 163 247 217 q 444 108 343 108 q 594 163 547 108 q 640 346 640 217 l 640 979 l 771 979 l 771 344 q 690 75 771 163 q 444 -12 608 -12 m 394 1063 l 214 1279 l 360 1279 l 494 1063 l 394 1063 z "},"Ủ":{"ha":889,"x_min":117,"x_max":771,"o":"m 444 -12 q 198 75 279 -12 q 117 344 117 163 l 117 979 l 247 979 l 247 346 q 295 163 247 217 q 444 108 343 108 q 594 163 547 108 q 640 346 640 217 l 640 979 l 771 979 l 771 344 q 690 75 771 163 q 444 -12 608 -12 m 400 1063 l 400 1089 q 410 1128 400 1113 q 432 1157 419 1144 q 454 1181 444 1169 q 464 1208 464 1193 q 454 1231 464 1225 q 424 1238 444 1238 q 385 1235 406 1238 q 347 1222 365 1232 l 328 1286 q 381 1306 351 1300 q 447 1313 411 1313 q 537 1291 506 1313 q 568 1228 568 1269 q 556 1181 568 1199 q 526 1149 543 1163 q 497 1120 510 1135 q 485 1083 485 1106 l 485 1063 l 400 1063 z "},"Ư":{"ha":889,"x_min":117,"x_max":900,"o":"m 444 -12 q 198 75 279 -12 q 117 344 117 163 l 117 979 l 247 979 l 247 346 q 295 163 247 217 q 444 108 343 108 q 594 163 547 108 q 640 346 640 217 l 640 979 l 771 979 l 771 344 q 690 75 771 163 q 444 -12 608 -12 m 747 900 l 665 953 l 665 979 q 729 994 706 981 q 763 1041 753 1008 q 774 1131 774 1074 l 774 1157 l 900 1157 l 900 1111 q 883 1006 900 1051 q 833 934 867 961 q 747 900 799 907 z "},"Ứ":{"ha":889,"x_min":117,"x_max":900,"o":"m 444 -12 q 198 75 279 -12 q 117 344 117 163 l 117 979 l 247 979 l 247 346 q 295 163 247 217 q 444 108 343 108 q 594 163 547 108 q 640 346 640 217 l 640 979 l 771 979 l 771 344 q 690 75 771 163 q 444 -12 608 -12 m 747 900 l 665 953 l 665 979 q 729 994 706 981 q 763 1041 753 1008 q 774 1131 774 1074 l 774 1157 l 900 1157 l 900 1111 q 883 1006 900 1051 q 833 934 867 961 q 747 900 799 907 m 390 1063 l 524 1283 l 679 1283 l 499 1063 l 390 1063 z "},"Ự":{"ha":889,"x_min":117,"x_max":900,"o":"m 444 -12 q 198 75 279 -12 q 117 344 117 163 l 117 979 l 247 979 l 247 346 q 295 163 247 217 q 444 108 343 108 q 594 163 547 108 q 640 346 640 217 l 640 979 l 771 979 l 771 344 q 690 75 771 163 q 444 -12 608 -12 m 747 900 l 665 953 l 665 979 q 729 994 706 981 q 763 1041 753 1008 q 774 1131 774 1074 l 774 1157 l 900 1157 l 900 1111 q 883 1006 900 1051 q 833 934 867 961 q 747 900 799 907 m 375 -269 l 375 -133 l 514 -133 l 514 -269 l 375 -269 z "},"Ừ":{"ha":889,"x_min":117,"x_max":900,"o":"m 444 -12 q 198 75 279 -12 q 117 344 117 163 l 117 979 l 247 979 l 247 346 q 295 163 247 217 q 444 108 343 108 q 594 163 547 108 q 640 346 640 217 l 640 979 l 771 979 l 771 344 q 690 75 771 163 q 444 -12 608 -12 m 747 900 l 665 953 l 665 979 q 729 994 706 981 q 763 1041 753 1008 q 774 1131 774 1074 l 774 1157 l 900 1157 l 900 1111 q 883 1006 900 1051 q 833 934 867 961 q 747 900 799 907 m 396 1063 l 215 1279 l 361 1279 l 496 1063 l 396 1063 z "},"Ử":{"ha":889,"x_min":117,"x_max":900,"o":"m 444 -12 q 198 75 279 -12 q 117 344 117 163 l 117 979 l 247 979 l 247 346 q 295 163 247 217 q 444 108 343 108 q 594 163 547 108 q 640 346 640 217 l 640 979 l 771 979 l 771 344 q 690 75 771 163 q 444 -12 608 -12 m 747 900 l 665 953 l 665 979 q 729 994 706 981 q 763 1041 753 1008 q 774 1131 774 1074 l 774 1157 l 900 1157 l 900 1111 q 883 1006 900 1051 q 833 934 867 961 q 747 900 799 907 m 401 1063 l 401 1089 q 411 1128 401 1113 q 433 1157 421 1144 q 456 1181 446 1169 q 465 1208 465 1193 q 456 1231 465 1225 q 425 1238 446 1238 q 387 1235 407 1238 q 349 1222 367 1232 l 329 1286 q 383 1306 353 1300 q 449 1313 413 1313 q 538 1291 507 1313 q 569 1228 569 1269 q 557 1181 569 1199 q 528 1149 544 1163 q 499 1120 511 1135 q 486 1083 486 1106 l 486 1063 l 401 1063 z "},"Ữ":{"ha":889,"x_min":117,"x_max":900,"o":"m 444 -12 q 198 75 279 -12 q 117 344 117 163 l 117 979 l 247 979 l 247 346 q 295 163 247 217 q 444 108 343 108 q 594 163 547 108 q 640 346 640 217 l 640 979 l 771 979 l 771 344 q 690 75 771 163 q 444 -12 608 -12 m 747 900 l 665 953 l 665 979 q 729 994 706 981 q 763 1041 753 1008 q 774 1131 774 1074 l 774 1157 l 900 1157 l 900 1111 q 883 1006 900 1051 q 833 934 867 961 q 747 900 799 907 m 251 1078 l 172 1083 q 188 1174 172 1135 q 235 1236 204 1214 q 310 1258 267 1258 q 382 1240 353 1258 q 432 1208 411 1221 q 468 1186 447 1200 q 511 1172 489 1172 q 559 1199 543 1172 q 574 1263 575 1225 l 651 1258 q 637 1167 653 1206 q 590 1106 621 1128 q 517 1083 558 1083 q 445 1102 475 1083 q 396 1133 415 1121 q 360 1156 381 1143 q 314 1169 340 1169 q 267 1144 282 1169 q 251 1078 253 1118 z "},"Ű":{"ha":889,"x_min":117,"x_max":771,"o":"m 444 -12 q 198 75 279 -12 q 117 344 117 163 l 117 979 l 247 979 l 247 346 q 295 163 247 217 q 444 108 343 108 q 594 163 547 108 q 640 346 640 217 l 640 979 l 771 979 l 771 344 q 690 75 771 163 q 444 -12 608 -12 m 319 1063 l 414 1279 l 543 1279 l 401 1063 l 319 1063 m 486 1063 l 593 1279 l 721 1279 l 567 1063 l 486 1063 z "},"Ȗ":{"ha":889,"x_min":117,"x_max":771,"o":"m 444 -12 q 198 75 279 -12 q 117 344 117 163 l 117 979 l 247 979 l 247 346 q 295 163 247 217 q 444 108 343 108 q 594 163 547 108 q 640 346 640 217 l 640 979 l 771 979 l 771 344 q 690 75 771 163 q 444 -12 608 -12 m 335 1056 l 247 1064 q 301 1232 250 1176 q 443 1288 351 1288 q 585 1231 535 1288 q 639 1064 636 1174 l 553 1056 q 527 1155 551 1121 q 444 1189 503 1189 q 363 1156 389 1189 q 335 1056 338 1124 z "},"Ū":{"ha":889,"x_min":117,"x_max":771,"o":"m 444 -12 q 198 75 279 -12 q 117 344 117 163 l 117 979 l 247 979 l 247 346 q 295 163 247 217 q 444 108 343 108 q 594 163 547 108 q 640 346 640 217 l 640 979 l 771 979 l 771 344 q 690 75 771 163 q 444 -12 608 -12 m 247 1126 l 247 1228 l 639 1228 l 639 1126 l 247 1126 z "},"Ṻ":{"ha":889,"x_min":117,"x_max":771,"o":"m 444 -12 q 198 75 279 -12 q 117 344 117 163 l 117 979 l 247 979 l 247 346 q 295 163 247 217 q 444 108 343 108 q 594 163 547 108 q 640 346 640 217 l 640 979 l 771 979 l 771 344 q 690 75 771 163 q 444 -12 608 -12 m 250 1108 l 250 1204 l 636 1204 l 636 1108 l 250 1108 m 258 1286 l 258 1400 l 396 1400 l 396 1286 l 258 1286 m 490 1286 l 490 1400 l 628 1400 l 628 1286 l 490 1286 z "},"Ų":{"ha":889,"x_min":117,"x_max":771,"o":"m 444 -12 q 198 75 279 -12 q 117 344 117 163 l 117 979 l 247 979 l 247 346 q 295 163 247 217 q 444 108 343 108 q 594 163 547 108 q 640 346 640 217 l 640 979 l 771 979 l 771 344 q 690 75 771 163 q 444 -12 608 -12 m 482 -276 q 381 -242 418 -276 q 343 -147 343 -208 q 376 -42 343 -92 q 464 44 410 7 l 508 0 q 472 -33 488 -14 q 447 -76 456 -53 q 439 -124 439 -99 q 455 -174 439 -157 q 499 -190 471 -190 q 526 -186 511 -190 q 557 -176 542 -182 l 578 -254 q 532 -271 554 -265 q 482 -276 510 -276 z "},"Ů":{"ha":889,"x_min":117,"x_max":771,"o":"m 444 -12 q 198 75 279 -12 q 117 344 117 163 l 117 979 l 247 979 l 247 346 q 295 163 247 217 q 444 108 343 108 q 594 163 547 108 q 640 346 640 217 l 640 979 l 771 979 l 771 344 q 690 75 771 163 q 444 -12 608 -12 m 443 1050 q 360 1072 396 1050 q 303 1130 325 1093 q 282 1211 282 1167 q 303 1293 282 1257 q 360 1351 324 1329 q 443 1372 396 1372 q 526 1351 489 1372 q 583 1293 563 1329 q 604 1211 604 1257 q 583 1130 604 1167 q 526 1072 563 1093 q 443 1050 489 1050 m 442 1113 q 508 1141 482 1113 q 535 1211 535 1169 q 508 1282 535 1256 q 442 1308 482 1308 q 378 1281 404 1308 q 351 1213 351 1254 q 377 1140 351 1168 q 442 1113 403 1113 z "},"Ũ":{"ha":889,"x_min":117,"x_max":771,"o":"m 444 -12 q 198 75 279 -12 q 117 344 117 163 l 117 979 l 247 979 l 247 346 q 295 163 247 217 q 444 108 343 108 q 594 163 547 108 q 640 346 640 217 l 640 979 l 771 979 l 771 344 q 690 75 771 163 q 444 -12 608 -12 m 276 1076 l 196 1082 q 231 1209 194 1160 q 332 1258 268 1258 q 410 1239 376 1258 q 463 1210 444 1219 q 499 1188 475 1201 q 547 1174 522 1174 q 594 1198 578 1174 q 610 1264 611 1222 l 690 1258 q 656 1131 693 1181 q 556 1082 619 1082 q 476 1101 510 1082 q 429 1129 443 1121 q 389 1153 414 1139 q 339 1167 364 1167 q 293 1143 310 1167 q 276 1076 276 1119 z "},"Ṹ":{"ha":889,"x_min":117,"x_max":771,"o":"m 444 -12 q 198 75 279 -12 q 117 344 117 163 l 117 979 l 247 979 l 247 346 q 295 163 247 217 q 444 108 343 108 q 594 163 547 108 q 640 346 640 217 l 640 979 l 771 979 l 771 344 q 690 75 771 163 q 444 -12 608 -12 m 393 1244 l 490 1447 l 636 1447 l 492 1244 l 393 1244 m 524 1065 q 464 1081 488 1065 q 426 1104 440 1096 q 402 1121 418 1108 q 363 1133 386 1133 q 330 1115 340 1133 q 314 1064 319 1097 l 243 1068 q 260 1147 247 1114 q 297 1197 272 1179 q 361 1215 322 1215 q 425 1199 399 1215 q 463 1174 451 1183 q 488 1159 472 1169 q 524 1149 504 1149 q 558 1167 547 1149 q 572 1217 569 1185 l 644 1213 q 610 1104 639 1143 q 524 1065 582 1065 z "},"V":{"ha":813,"x_min":7,"x_max":804,"o":"m 351 0 l 7 979 l 146 979 l 406 165 l 406 165 l 667 979 l 804 979 l 460 0 l 351 0 z "},"W":{"ha":1276,"x_min":63,"x_max":1214,"o":"m 304 0 l 63 979 l 199 979 l 371 164 l 381 164 l 589 979 l 692 979 l 901 164 l 910 164 l 1083 979 l 1214 979 l 971 0 l 847 0 l 643 796 l 633 796 l 426 0 l 304 0 z "},"Ẃ":{"ha":1276,"x_min":63,"x_max":1214,"o":"m 304 0 l 63 979 l 199 979 l 371 164 l 381 164 l 589 979 l 692 979 l 901 164 l 910 164 l 1083 979 l 1214 979 l 971 0 l 847 0 l 643 796 l 633 796 l 426 0 l 304 0 m 585 1063 l 718 1283 l 874 1283 l 693 1063 l 585 1063 z "},"Ŵ":{"ha":1276,"x_min":63,"x_max":1214,"o":"m 304 0 l 63 979 l 199 979 l 371 164 l 381 164 l 589 979 l 692 979 l 901 164 l 910 164 l 1083 979 l 1214 979 l 971 0 l 847 0 l 643 796 l 633 796 l 426 0 l 304 0 m 438 1063 l 579 1279 l 699 1279 l 840 1063 l 739 1063 l 639 1203 l 538 1063 l 438 1063 z "},"Ẅ":{"ha":1276,"x_min":63,"x_max":1214,"o":"m 304 0 l 63 979 l 199 979 l 371 164 l 381 164 l 589 979 l 692 979 l 901 164 l 910 164 l 1083 979 l 1214 979 l 971 0 l 847 0 l 643 796 l 633 796 l 426 0 l 304 0 m 692 1110 l 692 1242 l 828 1242 l 828 1110 l 692 1110 m 450 1110 l 450 1242 l 586 1242 l 586 1110 l 450 1110 z "},"Ẁ":{"ha":1276,"x_min":63,"x_max":1214,"o":"m 304 0 l 63 979 l 199 979 l 371 164 l 381 164 l 589 979 l 692 979 l 901 164 l 910 164 l 1083 979 l 1214 979 l 971 0 l 847 0 l 643 796 l 633 796 l 426 0 l 304 0 m 590 1063 l 410 1279 l 556 1279 l 690 1063 l 590 1063 z "},"X":{"ha":804,"x_min":38,"x_max":767,"o":"m 38 0 l 317 526 l 318 479 l 51 979 l 200 979 l 401 572 l 401 572 l 606 979 l 754 979 l 485 479 l 485 526 l 767 0 l 618 0 l 403 432 l 400 432 l 185 0 l 38 0 z "},"Y":{"ha":740,"x_min":8,"x_max":733,"o":"m 306 0 l 306 510 l 329 410 l 8 979 l 151 979 l 369 561 l 375 561 l 593 979 l 733 979 l 413 410 l 436 510 l 436 0 l 306 0 z "},"Ý":{"ha":740,"x_min":8,"x_max":733,"o":"m 306 0 l 306 510 l 329 410 l 8 979 l 151 979 l 369 561 l 375 561 l 593 979 l 733 979 l 413 410 l 436 510 l 436 0 l 306 0 m 317 1063 l 450 1283 l 606 1283 l 425 1063 l 317 1063 z "},"Ŷ":{"ha":740,"x_min":8,"x_max":733,"o":"m 306 0 l 306 510 l 329 410 l 8 979 l 151 979 l 369 561 l 375 561 l 593 979 l 733 979 l 413 410 l 436 510 l 436 0 l 306 0 m 169 1063 l 311 1279 l 431 1279 l 572 1063 l 471 1063 l 371 1203 l 269 1063 l 169 1063 z "},"Ÿ":{"ha":740,"x_min":8,"x_max":733,"o":"m 306 0 l 306 510 l 329 410 l 8 979 l 151 979 l 369 561 l 375 561 l 593 979 l 733 979 l 413 410 l 436 510 l 436 0 l 306 0 m 424 1110 l 424 1242 l 560 1242 l 560 1110 l 424 1110 m 182 1110 l 182 1242 l 318 1242 l 318 1110 l 182 1110 z "},"Ẏ":{"ha":740,"x_min":8,"x_max":733,"o":"m 306 0 l 306 510 l 329 410 l 8 979 l 151 979 l 369 561 l 375 561 l 593 979 l 733 979 l 413 410 l 436 510 l 436 0 l 306 0 m 297 1114 l 297 1256 l 443 1256 l 443 1114 l 297 1114 z "},"Ỵ":{"ha":740,"x_min":8,"x_max":733,"o":"m 306 0 l 306 510 l 329 410 l 8 979 l 151 979 l 369 561 l 375 561 l 593 979 l 733 979 l 413 410 l 436 510 l 436 0 l 306 0 m 301 -269 l 301 -133 l 440 -133 l 440 -269 l 301 -269 z "},"Ỳ":{"ha":740,"x_min":8,"x_max":733,"o":"m 306 0 l 306 510 l 329 410 l 8 979 l 151 979 l 369 561 l 375 561 l 593 979 l 733 979 l 413 410 l 436 510 l 436 0 l 306 0 m 322 1063 l 142 1279 l 288 1279 l 422 1063 l 322 1063 z "},"Ƴ":{"ha":732,"x_min":8,"x_max":779,"o":"m 306 0 l 306 510 l 329 410 l 8 979 l 151 979 l 369 561 l 375 561 l 540 871 q 614 965 572 936 q 708 993 656 993 q 746 990 729 993 q 779 978 763 986 l 779 875 q 757 883 769 881 q 732 885 744 885 q 676 867 696 885 q 638 814 657 850 l 413 410 l 436 510 l 436 0 l 306 0 z "},"Ỷ":{"ha":740,"x_min":8,"x_max":733,"o":"m 306 0 l 306 510 l 329 410 l 8 979 l 151 979 l 369 561 l 375 561 l 593 979 l 733 979 l 413 410 l 436 510 l 436 0 l 306 0 m 328 1063 l 328 1089 q 338 1128 328 1113 q 360 1157 347 1144 q 382 1181 372 1169 q 392 1208 392 1193 q 382 1231 392 1225 q 351 1238 372 1238 q 313 1235 333 1238 q 275 1222 293 1232 l 256 1286 q 309 1306 279 1300 q 375 1313 339 1313 q 465 1291 433 1313 q 496 1228 496 1269 q 483 1181 496 1199 q 454 1149 471 1163 q 425 1120 438 1135 q 413 1083 413 1106 l 413 1063 l 328 1063 z "},"Ȳ":{"ha":740,"x_min":8,"x_max":733,"o":"m 306 0 l 306 510 l 329 410 l 8 979 l 151 979 l 369 561 l 375 561 l 593 979 l 733 979 l 413 410 l 436 510 l 436 0 l 306 0 m 175 1126 l 175 1228 l 567 1228 l 567 1126 l 175 1126 z "},"Ỹ":{"ha":740,"x_min":8,"x_max":733,"o":"m 306 0 l 306 510 l 329 410 l 8 979 l 151 979 l 369 561 l 375 561 l 593 979 l 733 979 l 413 410 l 436 510 l 436 0 l 306 0 m 204 1076 l 124 1082 q 159 1209 122 1160 q 260 1258 196 1258 q 338 1239 304 1258 q 390 1210 372 1219 q 426 1188 403 1201 q 475 1174 450 1174 q 522 1198 506 1174 q 538 1264 539 1222 l 618 1258 q 584 1131 621 1181 q 483 1082 547 1082 q 404 1101 438 1082 q 357 1129 371 1121 q 317 1153 342 1139 q 267 1167 292 1167 q 221 1143 238 1167 q 204 1076 204 1119 z "},"Z":{"ha":725,"x_min":69,"x_max":667,"o":"m 69 0 l 69 86 l 531 921 l 546 865 l 69 865 l 69 979 l 654 979 l 654 894 l 192 58 l 176 114 l 667 114 l 667 0 l 69 0 z "},"Ź":{"ha":725,"x_min":69,"x_max":667,"o":"m 69 0 l 69 86 l 531 921 l 546 865 l 69 865 l 69 979 l 654 979 l 654 894 l 192 58 l 176 114 l 667 114 l 667 0 l 69 0 m 307 1063 l 440 1283 l 596 1283 l 415 1063 l 307 1063 z "},"Ž":{"ha":725,"x_min":69,"x_max":667,"o":"m 69 0 l 69 86 l 531 921 l 546 865 l 69 865 l 69 979 l 654 979 l 654 894 l 192 58 l 176 114 l 667 114 l 667 0 l 69 0 m 301 1063 l 160 1279 l 261 1279 l 361 1140 l 463 1279 l 563 1279 l 421 1063 l 301 1063 z "},"Ż":{"ha":725,"x_min":69,"x_max":667,"o":"m 69 0 l 69 86 l 531 921 l 546 865 l 69 865 l 69 979 l 654 979 l 654 894 l 192 58 l 176 114 l 667 114 l 667 0 l 69 0 m 288 1114 l 288 1256 l 433 1256 l 433 1114 l 288 1114 z "},"Ẓ":{"ha":725,"x_min":69,"x_max":667,"o":"m 69 0 l 69 86 l 531 921 l 546 865 l 69 865 l 69 979 l 654 979 l 654 894 l 192 58 l 176 114 l 667 114 l 667 0 l 69 0 m 300 -269 l 300 -133 l 439 -133 l 439 -269 l 300 -269 z "},"a":{"ha":743,"x_min":89,"x_max":636,"o":"m 306 -12 q 195 17 244 -12 q 117 94 146 46 q 89 199 89 143 q 129 319 89 272 q 246 387 169 365 q 429 408 322 408 l 528 408 l 528 317 l 447 317 q 344 311 388 317 q 272 293 300 306 q 231 258 244 281 q 217 200 217 235 q 253 118 217 146 q 340 90 290 90 q 420 115 381 90 q 485 181 460 139 q 510 275 510 224 l 510 471 q 471 568 510 539 q 357 597 432 597 q 258 583 310 597 q 153 533 207 569 l 111 629 q 198 671 154 656 q 288 694 242 686 q 382 703 335 703 q 515 677 457 703 q 604 598 572 651 q 636 460 636 544 l 636 0 l 528 0 l 528 143 l 519 143 q 469 65 499 101 q 399 8 439 29 q 306 -12 358 -12 z "},"á":{"ha":743,"x_min":89,"x_max":636,"o":"m 306 -12 q 195 17 244 -12 q 117 94 146 46 q 89 199 89 143 q 129 319 89 272 q 246 387 169 365 q 429 408 322 408 l 528 408 l 528 317 l 447 317 q 344 311 388 317 q 272 293 300 306 q 231 258 244 281 q 217 200 217 235 q 253 118 217 146 q 340 90 290 90 q 420 115 381 90 q 485 181 460 139 q 510 275 510 224 l 510 471 q 471 568 510 539 q 357 597 432 597 q 258 583 310 597 q 153 533 207 569 l 111 629 q 198 671 154 656 q 288 694 242 686 q 382 703 335 703 q 515 677 457 703 q 604 598 572 651 q 636 460 636 544 l 636 0 l 528 0 l 528 143 l 519 143 q 469 65 499 101 q 399 8 439 29 q 306 -12 358 -12 m 318 778 l 435 1033 l 579 1033 l 419 778 l 318 778 z "},"ă":{"ha":743,"x_min":89,"x_max":636,"o":"m 306 -12 q 195 17 244 -12 q 117 94 146 46 q 89 199 89 143 q 129 319 89 272 q 246 387 169 365 q 429 408 322 408 l 528 408 l 528 317 l 447 317 q 344 311 388 317 q 272 293 300 306 q 231 258 244 281 q 217 200 217 235 q 253 118 217 146 q 340 90 290 90 q 420 115 381 90 q 485 181 460 139 q 510 275 510 224 l 510 471 q 471 568 510 539 q 357 597 432 597 q 258 583 310 597 q 153 533 207 569 l 111 629 q 198 671 154 656 q 288 694 242 686 q 382 703 335 703 q 515 677 457 703 q 604 598 572 651 q 636 460 636 544 l 636 0 l 528 0 l 528 143 l 519 143 q 469 65 499 101 q 399 8 439 29 q 306 -12 358 -12 m 375 774 q 268 803 310 774 q 206 891 226 833 q 183 1031 186 949 l 271 1038 q 297 910 275 950 q 375 869 319 869 q 453 910 431 869 q 479 1038 475 950 l 567 1031 q 543 891 564 949 q 481 803 522 833 q 375 774 440 774 z "},"ắ":{"ha":743,"x_min":89,"x_max":636,"o":"m 306 -12 q 195 17 244 -12 q 117 94 146 46 q 89 199 89 143 q 129 319 89 272 q 246 387 169 365 q 429 408 322 408 l 528 408 l 528 317 l 447 317 q 344 311 388 317 q 272 293 300 306 q 231 258 244 281 q 217 200 217 235 q 253 118 217 146 q 340 90 290 90 q 420 115 381 90 q 485 181 460 139 q 510 275 510 224 l 510 471 q 471 568 510 539 q 357 597 432 597 q 258 583 310 597 q 153 533 207 569 l 111 629 q 198 671 154 656 q 288 694 242 686 q 382 703 335 703 q 515 677 457 703 q 604 598 572 651 q 636 460 636 544 l 636 0 l 528 0 l 528 143 l 519 143 q 469 65 499 101 q 399 8 439 29 q 306 -12 358 -12 m 375 774 q 229 825 279 774 q 178 969 179 876 l 258 976 q 291 889 260 917 q 375 861 322 861 q 460 888 429 861 q 492 976 490 915 l 574 969 q 522 825 572 876 q 375 774 471 774 m 326 953 l 415 1154 l 547 1154 l 413 953 l 326 953 z "},"ặ":{"ha":743,"x_min":89,"x_max":636,"o":"m 306 -12 q 195 17 244 -12 q 117 94 146 46 q 89 199 89 143 q 129 319 89 272 q 246 387 169 365 q 429 408 322 408 l 528 408 l 528 317 l 447 317 q 344 311 388 317 q 272 293 300 306 q 231 258 244 281 q 217 200 217 235 q 253 118 217 146 q 340 90 290 90 q 420 115 381 90 q 485 181 460 139 q 510 275 510 224 l 510 471 q 471 568 510 539 q 357 597 432 597 q 258 583 310 597 q 153 533 207 569 l 111 629 q 198 671 154 656 q 288 694 242 686 q 382 703 335 703 q 515 677 457 703 q 604 598 572 651 q 636 460 636 544 l 636 0 l 528 0 l 528 143 l 519 143 q 469 65 499 101 q 399 8 439 29 q 306 -12 358 -12 m 258 -269 l 258 -133 l 397 -133 l 397 -269 l 258 -269 m 375 774 q 268 803 310 774 q 206 891 226 833 q 183 1031 186 949 l 271 1038 q 297 910 275 950 q 375 869 319 869 q 453 910 431 869 q 479 1038 475 950 l 567 1031 q 543 891 564 949 q 481 803 522 833 q 375 774 440 774 z "},"ằ":{"ha":743,"x_min":89,"x_max":636,"o":"m 306 -12 q 195 17 244 -12 q 117 94 146 46 q 89 199 89 143 q 129 319 89 272 q 246 387 169 365 q 429 408 322 408 l 528 408 l 528 317 l 447 317 q 344 311 388 317 q 272 293 300 306 q 231 258 244 281 q 217 200 217 235 q 253 118 217 146 q 340 90 290 90 q 420 115 381 90 q 485 181 460 139 q 510 275 510 224 l 510 471 q 471 568 510 539 q 357 597 432 597 q 258 583 310 597 q 153 533 207 569 l 111 629 q 198 671 154 656 q 288 694 242 686 q 382 703 335 703 q 515 677 457 703 q 604 598 572 651 q 636 460 636 544 l 636 0 l 528 0 l 528 143 l 519 143 q 469 65 499 101 q 399 8 439 29 q 306 -12 358 -12 m 375 774 q 229 825 279 774 q 178 969 179 876 l 258 976 q 291 889 260 917 q 375 861 322 861 q 460 888 429 861 q 492 976 490 915 l 574 969 q 522 825 572 876 q 375 774 471 774 m 340 953 l 210 1154 l 342 1154 l 428 953 l 340 953 z "},"ẳ":{"ha":743,"x_min":89,"x_max":636,"o":"m 306 -12 q 195 17 244 -12 q 117 94 146 46 q 89 199 89 143 q 129 319 89 272 q 246 387 169 365 q 429 408 322 408 l 528 408 l 528 317 l 447 317 q 344 311 388 317 q 272 293 300 306 q 231 258 244 281 q 217 200 217 235 q 253 118 217 146 q 340 90 290 90 q 420 115 381 90 q 485 181 460 139 q 510 275 510 224 l 510 471 q 471 568 510 539 q 357 597 432 597 q 258 583 310 597 q 153 533 207 569 l 111 629 q 198 671 154 656 q 288 694 242 686 q 382 703 335 703 q 515 677 457 703 q 604 598 572 651 q 636 460 636 544 l 636 0 l 528 0 l 528 143 l 519 143 q 469 65 499 101 q 399 8 439 29 q 306 -12 358 -12 m 375 774 q 229 825 279 774 q 178 969 179 876 l 258 976 q 291 889 260 917 q 375 861 322 861 q 460 888 429 861 q 492 976 490 915 l 574 969 q 522 825 572 876 q 375 774 471 774 m 331 953 q 340 993 331 976 q 361 1024 349 1010 q 382 1051 374 1039 q 390 1078 390 1064 q 378 1103 390 1094 q 342 1113 365 1113 q 310 1106 328 1113 q 278 1090 293 1100 l 258 1153 q 310 1174 279 1167 q 379 1182 340 1182 q 464 1162 433 1182 q 494 1104 494 1142 q 483 1058 494 1076 q 456 1024 471 1039 q 428 992 440 1010 q 415 953 417 975 l 331 953 z "},"ẵ":{"ha":743,"x_min":89,"x_max":636,"o":"m 306 -12 q 195 17 244 -12 q 117 94 146 46 q 89 199 89 143 q 129 319 89 272 q 246 387 169 365 q 429 408 322 408 l 528 408 l 528 317 l 447 317 q 344 311 388 317 q 272 293 300 306 q 231 258 244 281 q 217 200 217 235 q 253 118 217 146 q 340 90 290 90 q 420 115 381 90 q 485 181 460 139 q 510 275 510 224 l 510 471 q 471 568 510 539 q 357 597 432 597 q 258 583 310 597 q 153 533 207 569 l 111 629 q 198 671 154 656 q 288 694 242 686 q 382 703 335 703 q 515 677 457 703 q 604 598 572 651 q 636 460 636 544 l 636 0 l 528 0 l 528 143 l 519 143 q 469 65 499 101 q 399 8 439 29 q 306 -12 358 -12 m 375 774 q 235 819 286 774 q 178 947 183 865 l 256 956 q 297 884 265 907 q 375 861 328 861 q 456 884 425 861 q 494 956 486 907 l 574 947 q 517 819 568 865 q 375 774 465 774 m 246 1021 l 175 1026 q 192 1102 179 1071 q 229 1151 204 1133 q 293 1169 254 1169 q 352 1155 328 1169 q 392 1129 376 1140 q 417 1113 399 1125 q 456 1101 435 1101 q 490 1120 478 1101 q 504 1172 501 1139 l 576 1167 q 542 1061 571 1100 q 456 1022 513 1022 q 397 1037 421 1022 q 364 1058 374 1051 q 328 1082 343 1072 q 294 1092 313 1092 q 263 1074 274 1092 q 246 1021 251 1056 z "},"ǎ":{"ha":743,"x_min":89,"x_max":636,"o":"m 306 -12 q 195 17 244 -12 q 117 94 146 46 q 89 199 89 143 q 129 319 89 272 q 246 387 169 365 q 429 408 322 408 l 528 408 l 528 317 l 447 317 q 344 311 388 317 q 272 293 300 306 q 231 258 244 281 q 217 200 217 235 q 253 118 217 146 q 340 90 290 90 q 420 115 381 90 q 485 181 460 139 q 510 275 510 224 l 510 471 q 471 568 510 539 q 357 597 432 597 q 258 583 310 597 q 153 533 207 569 l 111 629 q 198 671 154 656 q 288 694 242 686 q 382 703 335 703 q 515 677 457 703 q 604 598 572 651 q 636 460 636 544 l 636 0 l 528 0 l 528 143 l 519 143 q 469 65 499 101 q 399 8 439 29 q 306 -12 358 -12 m 314 778 l 185 1033 l 283 1033 l 375 860 l 468 1033 l 565 1033 l 436 778 l 314 778 z "},"â":{"ha":743,"x_min":89,"x_max":636,"o":"m 306 -12 q 195 17 244 -12 q 117 94 146 46 q 89 199 89 143 q 129 319 89 272 q 246 387 169 365 q 429 408 322 408 l 528 408 l 528 317 l 447 317 q 344 311 388 317 q 272 293 300 306 q 231 258 244 281 q 217 200 217 235 q 253 118 217 146 q 340 90 290 90 q 420 115 381 90 q 485 181 460 139 q 510 275 510 224 l 510 471 q 471 568 510 539 q 357 597 432 597 q 258 583 310 597 q 153 533 207 569 l 111 629 q 198 671 154 656 q 288 694 242 686 q 382 703 335 703 q 515 677 457 703 q 604 598 572 651 q 636 460 636 544 l 636 0 l 528 0 l 528 143 l 519 143 q 469 65 499 101 q 399 8 439 29 q 306 -12 358 -12 m 185 786 l 314 1033 l 436 1033 l 565 786 l 468 786 l 375 950 l 283 786 l 185 786 z "},"ấ":{"ha":743,"x_min":89,"x_max":697,"o":"m 306 -12 q 195 17 244 -12 q 117 94 146 46 q 89 199 89 143 q 129 319 89 272 q 246 387 169 365 q 429 408 322 408 l 528 408 l 528 317 l 447 317 q 344 311 388 317 q 272 293 300 306 q 231 258 244 281 q 217 200 217 235 q 253 118 217 146 q 340 90 290 90 q 420 115 381 90 q 485 181 460 139 q 510 275 510 224 l 510 471 q 471 568 510 539 q 357 597 432 597 q 258 583 310 597 q 153 533 207 569 l 111 629 q 198 671 154 656 q 288 694 242 686 q 382 703 335 703 q 515 677 457 703 q 604 598 572 651 q 636 460 636 544 l 636 0 l 528 0 l 528 143 l 519 143 q 469 65 499 101 q 399 8 439 29 q 306 -12 358 -12 m 183 789 l 317 1008 l 438 1008 l 569 789 l 471 789 l 376 931 l 281 789 l 183 789 m 501 951 l 585 1164 l 697 1164 l 582 951 l 501 951 z "},"ậ":{"ha":743,"x_min":89,"x_max":636,"o":"m 306 -12 q 195 17 244 -12 q 117 94 146 46 q 89 199 89 143 q 129 319 89 272 q 246 387 169 365 q 429 408 322 408 l 528 408 l 528 317 l 447 317 q 344 311 388 317 q 272 293 300 306 q 231 258 244 281 q 217 200 217 235 q 253 118 217 146 q 340 90 290 90 q 420 115 381 90 q 485 181 460 139 q 510 275 510 224 l 510 471 q 471 568 510 539 q 357 597 432 597 q 258 583 310 597 q 153 533 207 569 l 111 629 q 198 671 154 656 q 288 694 242 686 q 382 703 335 703 q 515 677 457 703 q 604 598 572 651 q 636 460 636 544 l 636 0 l 528 0 l 528 143 l 519 143 q 469 65 499 101 q 399 8 439 29 q 306 -12 358 -12 m 258 -269 l 258 -133 l 397 -133 l 397 -269 l 258 -269 m 185 786 l 314 1033 l 436 1033 l 565 786 l 468 786 l 375 950 l 283 786 l 185 786 z "},"ầ":{"ha":743,"x_min":89,"x_max":636,"o":"m 306 -12 q 195 17 244 -12 q 117 94 146 46 q 89 199 89 143 q 129 319 89 272 q 246 387 169 365 q 429 408 322 408 l 528 408 l 528 317 l 447 317 q 344 311 388 317 q 272 293 300 306 q 231 258 244 281 q 217 200 217 235 q 253 118 217 146 q 340 90 290 90 q 420 115 381 90 q 485 181 460 139 q 510 275 510 224 l 510 471 q 471 568 510 539 q 357 597 432 597 q 258 583 310 597 q 153 533 207 569 l 111 629 q 198 671 154 656 q 288 694 242 686 q 382 703 335 703 q 515 677 457 703 q 604 598 572 651 q 636 460 636 544 l 636 0 l 528 0 l 528 143 l 519 143 q 469 65 499 101 q 399 8 439 29 q 306 -12 358 -12 m 183 789 l 317 1008 l 438 1008 l 569 789 l 471 789 l 376 931 l 281 789 l 183 789 m 544 951 l 431 1164 l 544 1164 l 626 951 l 544 951 z "},"ẩ":{"ha":743,"x_min":89,"x_max":657,"o":"m 306 -12 q 195 17 244 -12 q 117 94 146 46 q 89 199 89 143 q 129 319 89 272 q 246 387 169 365 q 429 408 322 408 l 528 408 l 528 317 l 447 317 q 344 311 388 317 q 272 293 300 306 q 231 258 244 281 q 217 200 217 235 q 253 118 217 146 q 340 90 290 90 q 420 115 381 90 q 485 181 460 139 q 510 275 510 224 l 510 471 q 471 568 510 539 q 357 597 432 597 q 258 583 310 597 q 153 533 207 569 l 111 629 q 198 671 154 656 q 288 694 242 686 q 382 703 335 703 q 515 677 457 703 q 604 598 572 651 q 636 460 636 544 l 636 0 l 528 0 l 528 143 l 519 143 q 469 65 499 101 q 399 8 439 29 q 306 -12 358 -12 m 183 793 l 317 1013 l 438 1013 l 569 793 l 471 793 l 376 935 l 281 793 l 183 793 m 499 960 q 508 998 499 982 q 529 1028 517 1014 q 551 1053 542 1042 q 560 1079 560 1065 q 546 1103 560 1094 q 511 1111 532 1111 q 479 1106 496 1111 q 450 1090 463 1100 l 431 1150 q 479 1172 450 1164 q 546 1179 508 1179 q 627 1159 597 1179 q 657 1103 657 1139 q 645 1058 657 1076 q 619 1026 633 1040 q 592 997 604 1013 q 579 960 581 981 l 499 960 z "},"ẫ":{"ha":743,"x_min":89,"x_max":636,"o":"m 306 -12 q 195 17 244 -12 q 117 94 146 46 q 89 199 89 143 q 129 319 89 272 q 246 387 169 365 q 429 408 322 408 l 528 408 l 528 317 l 447 317 q 344 311 388 317 q 272 293 300 306 q 231 258 244 281 q 217 200 217 235 q 253 118 217 146 q 340 90 290 90 q 420 115 381 90 q 485 181 460 139 q 510 275 510 224 l 510 471 q 471 568 510 539 q 357 597 432 597 q 258 583 310 597 q 153 533 207 569 l 111 629 q 198 671 154 656 q 288 694 242 686 q 382 703 335 703 q 515 677 457 703 q 604 598 572 651 q 636 460 636 544 l 636 0 l 528 0 l 528 143 l 519 143 q 469 65 499 101 q 399 8 439 29 q 306 -12 358 -12 m 182 789 l 315 982 l 436 982 l 568 789 l 469 789 l 375 911 l 281 789 l 182 789 m 246 1028 l 175 1032 q 190 1109 178 1076 q 228 1160 203 1142 q 293 1178 253 1178 q 352 1163 328 1178 q 392 1138 376 1147 q 417 1121 399 1133 q 456 1108 435 1108 q 488 1126 476 1108 q 504 1181 500 1143 l 576 1174 q 543 1069 571 1108 q 456 1029 515 1029 q 397 1044 421 1029 q 364 1065 374 1058 q 328 1088 343 1079 q 294 1097 313 1097 q 264 1081 276 1097 q 246 1028 251 1064 z "},"ȁ":{"ha":743,"x_min":89,"x_max":636,"o":"m 306 -12 q 195 17 244 -12 q 117 94 146 46 q 89 199 89 143 q 129 319 89 272 q 246 387 169 365 q 429 408 322 408 l 528 408 l 528 317 l 447 317 q 344 311 388 317 q 272 293 300 306 q 231 258 244 281 q 217 200 217 235 q 253 118 217 146 q 340 90 290 90 q 420 115 381 90 q 485 181 460 139 q 510 275 510 224 l 510 471 q 471 568 510 539 q 357 597 432 597 q 258 583 310 597 q 153 533 207 569 l 111 629 q 198 671 154 656 q 288 694 242 686 q 382 703 335 703 q 515 677 457 703 q 604 598 572 651 q 636 460 636 544 l 636 0 l 528 0 l 528 143 l 519 143 q 469 65 499 101 q 399 8 439 29 q 306 -12 358 -12 m 424 778 l 325 1033 l 446 1033 l 500 778 l 424 778 m 256 778 l 156 1033 l 275 1033 l 331 778 l 256 778 z "},"ä":{"ha":743,"x_min":89,"x_max":636,"o":"m 306 -12 q 195 17 244 -12 q 117 94 146 46 q 89 199 89 143 q 129 319 89 272 q 246 387 169 365 q 429 408 322 408 l 528 408 l 528 317 l 447 317 q 344 311 388 317 q 272 293 300 306 q 231 258 244 281 q 217 200 217 235 q 253 118 217 146 q 340 90 290 90 q 420 115 381 90 q 485 181 460 139 q 510 275 510 224 l 510 471 q 471 568 510 539 q 357 597 432 597 q 258 583 310 597 q 153 533 207 569 l 111 629 q 198 671 154 656 q 288 694 242 686 q 382 703 335 703 q 515 677 457 703 q 604 598 572 651 q 636 460 636 544 l 636 0 l 528 0 l 528 143 l 519 143 q 469 65 499 101 q 399 8 439 29 q 306 -12 358 -12 m 428 853 l 428 989 l 564 989 l 564 853 l 428 853 m 186 853 l 186 989 l 322 989 l 322 853 l 186 853 z "},"ȧ":{"ha":743,"x_min":89,"x_max":636,"o":"m 306 -12 q 195 17 244 -12 q 117 94 146 46 q 89 199 89 143 q 129 319 89 272 q 246 387 169 365 q 429 408 322 408 l 528 408 l 528 317 l 447 317 q 344 311 388 317 q 272 293 300 306 q 231 258 244 281 q 217 200 217 235 q 253 118 217 146 q 340 90 290 90 q 420 115 381 90 q 485 181 460 139 q 510 275 510 224 l 510 471 q 471 568 510 539 q 357 597 432 597 q 258 583 310 597 q 153 533 207 569 l 111 629 q 198 671 154 656 q 288 694 242 686 q 382 703 335 703 q 515 677 457 703 q 604 598 572 651 q 636 460 636 544 l 636 0 l 528 0 l 528 143 l 519 143 q 469 65 499 101 q 399 8 439 29 q 306 -12 358 -12 m 306 857 l 306 993 l 444 993 l 444 857 l 306 857 z "},"ạ":{"ha":743,"x_min":89,"x_max":636,"o":"m 306 -12 q 195 17 244 -12 q 117 94 146 46 q 89 199 89 143 q 129 319 89 272 q 246 387 169 365 q 429 408 322 408 l 528 408 l 528 317 l 447 317 q 344 311 388 317 q 272 293 300 306 q 231 258 244 281 q 217 200 217 235 q 253 118 217 146 q 340 90 290 90 q 420 115 381 90 q 485 181 460 139 q 510 275 510 224 l 510 471 q 471 568 510 539 q 357 597 432 597 q 258 583 310 597 q 153 533 207 569 l 111 629 q 198 671 154 656 q 288 694 242 686 q 382 703 335 703 q 515 677 457 703 q 604 598 572 651 q 636 460 636 544 l 636 0 l 528 0 l 528 143 l 519 143 q 469 65 499 101 q 399 8 439 29 q 306 -12 358 -12 m 258 -269 l 258 -133 l 397 -133 l 397 -269 l 258 -269 z "},"à":{"ha":743,"x_min":89,"x_max":636,"o":"m 306 -12 q 195 17 244 -12 q 117 94 146 46 q 89 199 89 143 q 129 319 89 272 q 246 387 169 365 q 429 408 322 408 l 528 408 l 528 317 l 447 317 q 344 311 388 317 q 272 293 300 306 q 231 258 244 281 q 217 200 217 235 q 253 118 217 146 q 340 90 290 90 q 420 115 381 90 q 485 181 460 139 q 510 275 510 224 l 510 471 q 471 568 510 539 q 357 597 432 597 q 258 583 310 597 q 153 533 207 569 l 111 629 q 198 671 154 656 q 288 694 242 686 q 382 703 335 703 q 515 677 457 703 q 604 598 572 651 q 636 460 636 544 l 636 0 l 528 0 l 528 143 l 519 143 q 469 65 499 101 q 399 8 439 29 q 306 -12 358 -12 m 331 782 l 172 1033 l 315 1033 l 432 782 l 331 782 z "},"ả":{"ha":743,"x_min":89,"x_max":636,"o":"m 306 -12 q 195 17 244 -12 q 117 94 146 46 q 89 199 89 143 q 129 319 89 272 q 246 387 169 365 q 429 408 322 408 l 528 408 l 528 317 l 447 317 q 344 311 388 317 q 272 293 300 306 q 231 258 244 281 q 217 200 217 235 q 253 118 217 146 q 340 90 290 90 q 420 115 381 90 q 485 181 460 139 q 510 275 510 224 l 510 471 q 471 568 510 539 q 357 597 432 597 q 258 583 310 597 q 153 533 207 569 l 111 629 q 198 671 154 656 q 288 694 242 686 q 382 703 335 703 q 515 677 457 703 q 604 598 572 651 q 636 460 636 544 l 636 0 l 528 0 l 528 143 l 519 143 q 469 65 499 101 q 399 8 439 29 q 306 -12 358 -12 m 326 782 l 326 811 q 338 862 326 842 q 362 897 349 882 q 385 926 375 911 q 396 963 396 942 q 383 992 396 982 q 344 1003 371 1003 q 310 999 329 1003 q 272 985 292 994 l 250 1053 q 308 1074 276 1067 q 378 1082 340 1082 q 478 1056 443 1082 q 513 981 513 1031 q 499 924 513 946 q 467 885 485 901 q 436 851 450 869 q 422 804 422 833 l 422 782 l 326 782 z "},"ȃ":{"ha":743,"x_min":89,"x_max":636,"o":"m 306 -12 q 195 17 244 -12 q 117 94 146 46 q 89 199 89 143 q 129 319 89 272 q 246 387 169 365 q 429 408 322 408 l 528 408 l 528 317 l 447 317 q 344 311 388 317 q 272 293 300 306 q 231 258 244 281 q 217 200 217 235 q 253 118 217 146 q 340 90 290 90 q 420 115 381 90 q 485 181 460 139 q 510 275 510 224 l 510 471 q 471 568 510 539 q 357 597 432 597 q 258 583 310 597 q 153 533 207 569 l 111 629 q 198 671 154 656 q 288 694 242 686 q 382 703 335 703 q 515 677 457 703 q 604 598 572 651 q 636 460 636 544 l 636 0 l 528 0 l 528 143 l 519 143 q 469 65 499 101 q 399 8 439 29 q 306 -12 358 -12 m 271 774 l 183 782 q 207 922 186 864 q 269 1008 228 979 q 375 1038 310 1038 q 482 1008 440 1038 q 544 922 524 979 q 567 782 564 864 l 479 774 q 453 902 475 861 q 375 943 431 943 q 297 902 319 943 q 271 774 275 861 z "},"ā":{"ha":743,"x_min":89,"x_max":636,"o":"m 306 -12 q 195 17 244 -12 q 117 94 146 46 q 89 199 89 143 q 129 319 89 272 q 246 387 169 365 q 429 408 322 408 l 528 408 l 528 317 l 447 317 q 344 311 388 317 q 272 293 300 306 q 231 258 244 281 q 217 200 217 235 q 253 118 217 146 q 340 90 290 90 q 420 115 381 90 q 485 181 460 139 q 510 275 510 224 l 510 471 q 471 568 510 539 q 357 597 432 597 q 258 583 310 597 q 153 533 207 569 l 111 629 q 198 671 154 656 q 288 694 242 686 q 382 703 335 703 q 515 677 457 703 q 604 598 572 651 q 636 460 636 544 l 636 0 l 528 0 l 528 143 l 519 143 q 469 65 499 101 q 399 8 439 29 q 306 -12 358 -12 m 182 871 l 182 972 l 568 972 l 568 871 l 182 871 z "},"ą":{"ha":743,"x_min":89,"x_max":681,"o":"m 306 -12 q 195 17 244 -12 q 117 94 146 46 q 89 199 89 143 q 129 319 89 272 q 246 387 169 365 q 429 408 322 408 l 528 408 l 528 317 l 447 317 q 344 311 388 317 q 272 293 300 306 q 231 258 244 281 q 217 200 217 235 q 253 118 217 146 q 340 90 290 90 q 420 115 381 90 q 485 181 460 139 q 510 275 510 224 l 510 471 q 471 568 510 539 q 357 597 432 597 q 258 583 310 597 q 153 533 207 569 l 111 629 q 198 671 154 656 q 288 694 242 686 q 382 703 335 703 q 515 677 457 703 q 604 598 572 651 q 636 460 636 544 l 636 0 l 528 0 l 528 143 l 519 143 q 469 65 499 101 q 399 8 439 29 q 306 -12 358 -12 m 586 -276 q 485 -242 522 -276 q 447 -147 447 -208 q 481 -42 447 -92 q 568 44 514 7 l 613 0 q 576 -33 592 -14 q 551 -76 560 -53 q 543 -124 543 -99 q 559 -174 543 -157 q 603 -190 575 -190 q 631 -186 615 -190 q 661 -176 646 -182 l 682 -254 q 636 -271 658 -265 q 586 -276 614 -276 z "},"å":{"ha":743,"x_min":89,"x_max":636,"o":"m 306 -12 q 195 17 244 -12 q 117 94 146 46 q 89 199 89 143 q 129 319 89 272 q 246 387 169 365 q 429 408 322 408 l 528 408 l 528 317 l 447 317 q 344 311 388 317 q 272 293 300 306 q 231 258 244 281 q 217 200 217 235 q 253 118 217 146 q 340 90 290 90 q 420 115 381 90 q 485 181 460 139 q 510 275 510 224 l 510 471 q 471 568 510 539 q 357 597 432 597 q 258 583 310 597 q 153 533 207 569 l 111 629 q 198 671 154 656 q 288 694 242 686 q 382 703 335 703 q 515 677 457 703 q 604 598 572 651 q 636 460 636 544 l 636 0 l 528 0 l 528 143 l 519 143 q 469 65 499 101 q 399 8 439 29 q 306 -12 358 -12 m 375 776 q 289 799 326 776 q 228 859 251 821 q 206 943 206 897 q 228 1029 206 992 q 289 1089 251 1067 q 375 1111 326 1111 q 460 1089 422 1111 q 522 1028 499 1067 q 544 943 544 990 q 522 858 544 896 q 460 799 499 821 q 375 776 422 776 m 375 842 q 444 871 417 842 q 471 944 471 900 q 444 1019 471 990 q 374 1047 417 1047 q 306 1019 333 1047 q 279 944 279 990 q 306 871 279 900 q 375 842 333 842 z "},"ǻ":{"ha":743,"x_min":89,"x_max":644,"o":"m 306 -12 q 195 17 244 -12 q 117 94 146 46 q 89 199 89 143 q 129 319 89 272 q 246 387 169 365 q 429 408 322 408 l 528 408 l 528 317 l 447 317 q 344 311 388 317 q 272 293 300 306 q 231 258 244 281 q 217 200 217 235 q 253 118 217 146 q 340 90 290 90 q 420 115 381 90 q 485 181 460 139 q 510 275 510 224 l 510 471 q 471 568 510 539 q 357 597 432 597 q 258 583 310 597 q 153 533 207 569 l 111 629 q 198 671 154 656 q 288 694 242 686 q 382 703 335 703 q 515 677 457 703 q 604 598 572 651 q 636 460 636 544 l 636 0 l 528 0 l 528 143 l 519 143 q 469 65 499 101 q 399 8 439 29 q 306 -12 358 -12 m 375 769 q 287 792 325 769 q 226 854 249 815 q 203 940 203 893 q 226 1028 203 989 q 288 1089 249 1067 q 375 1111 326 1111 q 423 1104 401 1111 q 465 1088 444 1097 l 521 1165 l 644 1165 l 519 1033 q 540 990 532 1014 q 547 940 547 967 q 525 854 547 893 q 464 792 503 815 q 375 769 425 769 m 375 839 q 444 867 417 839 q 471 940 471 896 q 444 1015 471 988 q 375 1043 417 1043 q 306 1015 333 1043 q 279 940 279 988 q 306 867 279 896 q 375 839 333 839 z "},"ã":{"ha":743,"x_min":89,"x_max":636,"o":"m 306 -12 q 195 17 244 -12 q 117 94 146 46 q 89 199 89 143 q 129 319 89 272 q 246 387 169 365 q 429 408 322 408 l 528 408 l 528 317 l 447 317 q 344 311 388 317 q 272 293 300 306 q 231 258 244 281 q 217 200 217 235 q 253 118 217 146 q 340 90 290 90 q 420 115 381 90 q 485 181 460 139 q 510 275 510 224 l 510 471 q 471 568 510 539 q 357 597 432 597 q 258 583 310 597 q 153 533 207 569 l 111 629 q 198 671 154 656 q 288 694 242 686 q 382 703 335 703 q 515 677 457 703 q 604 598 572 651 q 636 460 636 544 l 636 0 l 528 0 l 528 143 l 519 143 q 469 65 499 101 q 399 8 439 29 q 306 -12 358 -12 m 232 822 l 157 828 q 188 955 157 906 q 278 1004 219 1004 q 348 984 319 1004 q 394 953 376 964 q 426 931 407 946 q 468 917 446 917 q 506 940 496 917 q 518 1007 517 964 l 593 1003 q 563 874 594 922 q 472 825 532 825 q 401 845 431 825 q 356 876 371 865 q 324 899 344 885 q 282 913 304 913 q 245 890 257 913 q 232 822 233 867 z "},"æ":{"ha":1147,"x_min":89,"x_max":1069,"o":"m 303 -12 q 196 15 244 -12 q 118 92 147 43 q 89 203 89 142 q 133 324 89 279 q 250 388 176 368 q 413 408 324 408 l 542 408 l 542 318 l 429 318 q 317 308 365 318 q 242 274 268 299 q 217 201 217 249 q 252 118 217 146 q 331 90 288 90 q 420 117 379 90 q 485 183 461 143 q 510 268 510 224 l 510 482 q 471 565 510 533 q 354 597 432 597 q 252 581 303 597 q 153 532 201 565 l 111 629 q 195 670 151 654 q 284 694 239 686 q 376 703 329 703 q 515 662 464 703 q 582 547 565 621 l 590 547 q 674 665 619 626 q 803 703 728 703 q 950 663 890 703 q 1040 546 1010 624 q 1069 358 1069 468 l 1069 307 l 597 307 l 597 399 l 983 399 l 958 368 q 941 499 958 446 q 890 577 924 551 q 806 603 857 603 q 675 541 719 603 q 631 358 631 479 l 631 322 q 680 152 631 210 q 832 94 729 94 q 933 108 890 94 q 1013 151 975 122 l 1057 61 q 949 4 1007 21 q 822 -12 890 -12 q 703 8 753 -12 q 619 69 653 29 q 567 165 586 110 l 558 165 q 503 74 539 115 q 417 10 467 33 q 303 -12 368 -12 z "},"ǽ":{"ha":1147,"x_min":89,"x_max":1069,"o":"m 303 -12 q 196 15 244 -12 q 118 92 147 43 q 89 203 89 142 q 133 324 89 279 q 250 388 176 368 q 413 408 324 408 l 542 408 l 542 318 l 429 318 q 317 308 365 318 q 242 274 268 299 q 217 201 217 249 q 252 118 217 146 q 331 90 288 90 q 420 117 379 90 q 485 183 461 143 q 510 268 510 224 l 510 482 q 471 565 510 533 q 354 597 432 597 q 252 581 303 597 q 153 532 201 565 l 111 629 q 195 670 151 654 q 284 694 239 686 q 376 703 329 703 q 515 662 464 703 q 582 547 565 621 l 590 547 q 674 665 619 626 q 803 703 728 703 q 950 663 890 703 q 1040 546 1010 624 q 1069 358 1069 468 l 1069 307 l 597 307 l 597 399 l 983 399 l 958 368 q 941 499 958 446 q 890 577 924 551 q 806 603 857 603 q 675 541 719 603 q 631 358 631 479 l 631 322 q 680 152 631 210 q 832 94 729 94 q 933 108 890 94 q 1013 151 975 122 l 1057 61 q 949 4 1007 21 q 822 -12 890 -12 q 703 8 753 -12 q 619 69 653 29 q 567 165 586 110 l 558 165 q 503 74 539 115 q 417 10 467 33 q 303 -12 368 -12 m 535 778 l 651 1033 l 796 1033 l 636 778 l 535 778 z "},"b":{"ha":776,"x_min":110,"x_max":699,"o":"m 436 -12 q 313 25 364 -12 q 232 143 261 63 l 226 143 l 226 0 l 110 0 l 110 979 l 239 979 l 239 556 l 243 556 q 319 666 271 629 q 438 703 367 703 q 579 658 521 703 q 668 534 638 614 q 699 346 699 454 q 668 156 699 236 q 578 31 638 75 q 436 -12 519 -12 m 404 93 q 528 158 488 93 q 569 346 569 224 q 528 533 569 468 q 403 597 486 597 q 278 533 319 597 q 238 346 238 468 q 278 158 238 224 q 404 93 319 93 z "},"ɓ":{"ha":776,"x_min":110,"x_max":699,"o":"m 435 -12 q 312 25 363 -12 q 231 143 261 63 l 225 143 l 225 0 l 110 0 l 110 775 q 131 892 110 844 q 198 966 153 940 q 313 992 243 992 q 367 988 339 992 q 407 978 394 983 l 396 878 q 367 885 389 882 q 328 888 346 888 q 260 860 282 888 q 239 772 239 832 l 238 556 l 243 556 q 319 666 272 629 q 438 703 365 703 q 578 658 519 703 q 667 534 636 614 q 699 346 699 454 q 667 156 699 236 q 578 31 636 75 q 435 -12 519 -12 m 403 93 q 528 158 486 93 q 569 346 569 224 q 528 533 569 468 q 403 597 486 597 q 278 533 318 597 q 238 346 238 468 q 278 158 238 224 q 403 93 318 93 z "},"c":{"ha":618,"x_min":78,"x_max":583,"o":"m 374 -12 q 215 28 282 -12 q 113 149 149 69 q 78 342 78 228 q 114 537 78 456 q 216 660 150 618 q 374 703 282 703 q 494 682 440 703 q 583 626 547 661 l 539 528 q 471 573 508 556 q 388 590 433 590 q 255 529 301 590 q 208 340 208 468 q 256 158 208 217 q 386 100 303 100 q 470 117 433 100 q 533 158 507 135 l 581 63 q 492 8 544 28 q 374 -12 440 -12 z "},"ć":{"ha":618,"x_min":78,"x_max":583,"o":"m 374 -12 q 215 28 282 -12 q 113 149 149 69 q 78 342 78 228 q 114 537 78 456 q 216 660 150 618 q 374 703 282 703 q 494 682 440 703 q 583 626 547 661 l 539 528 q 471 573 508 556 q 388 590 433 590 q 255 529 301 590 q 208 340 208 468 q 256 158 208 217 q 386 100 303 100 q 470 117 433 100 q 533 158 507 135 l 581 63 q 492 8 544 28 q 374 -12 440 -12 m 306 778 l 422 1033 l 567 1033 l 407 778 l 306 778 z "},"č":{"ha":618,"x_min":78,"x_max":583,"o":"m 374 -12 q 215 28 282 -12 q 113 149 149 69 q 78 342 78 228 q 114 537 78 456 q 216 660 150 618 q 374 703 282 703 q 494 682 440 703 q 583 626 547 661 l 539 528 q 471 573 508 556 q 388 590 433 590 q 255 529 301 590 q 208 340 208 468 q 256 158 208 217 q 386 100 303 100 q 470 117 433 100 q 533 158 507 135 l 581 63 q 492 8 544 28 q 374 -12 440 -12 m 301 778 l 172 1033 l 271 1033 l 363 860 l 456 1033 l 553 1033 l 424 778 l 301 778 z "},"ç":{"ha":618,"x_min":78,"x_max":583,"o":"m 374 -12 q 215 28 282 -12 q 113 149 149 69 q 78 342 78 228 q 114 537 78 456 q 216 660 150 618 q 374 703 282 703 q 494 682 440 703 q 583 626 547 661 l 539 528 q 471 573 508 556 q 388 590 433 590 q 255 529 301 590 q 208 340 208 468 q 256 158 208 217 q 386 100 303 100 q 470 117 433 100 q 533 158 507 135 l 581 63 q 492 8 544 28 q 374 -12 440 -12 m 375 -275 q 310 -268 344 -275 q 254 -249 275 -261 l 275 -182 q 318 -200 294 -193 q 369 -207 342 -207 q 421 -195 404 -207 q 438 -158 438 -183 q 424 -126 438 -136 q 388 -115 410 -115 q 361 -118 376 -115 q 333 -125 346 -121 l 310 -104 l 331 28 l 400 28 l 383 -83 l 351 -68 q 383 -60 363 -62 q 425 -57 403 -57 q 474 -68 451 -57 q 512 -102 497 -79 q 526 -158 526 -125 q 508 -223 526 -197 q 454 -262 489 -249 q 375 -275 419 -275 z "},"ḉ":{"ha":618,"x_min":78,"x_max":583,"o":"m 374 -12 q 215 28 282 -12 q 113 149 149 69 q 78 342 78 228 q 114 537 78 456 q 216 660 150 618 q 374 703 282 703 q 494 682 440 703 q 583 626 547 661 l 539 528 q 471 573 508 556 q 388 590 433 590 q 255 529 301 590 q 208 340 208 468 q 256 158 208 217 q 386 100 303 100 q 470 117 433 100 q 533 158 507 135 l 581 63 q 492 8 544 28 q 374 -12 440 -12 m 375 -275 q 310 -268 344 -275 q 254 -249 275 -261 l 275 -182 q 318 -200 294 -193 q 369 -207 342 -207 q 421 -195 404 -207 q 438 -158 438 -183 q 424 -126 438 -136 q 388 -115 410 -115 q 361 -118 376 -115 q 333 -125 346 -121 l 310 -104 l 331 28 l 400 28 l 383 -83 l 351 -68 q 383 -60 363 -62 q 425 -57 403 -57 q 474 -68 451 -57 q 512 -102 497 -79 q 526 -158 526 -125 q 508 -223 526 -197 q 454 -262 489 -249 q 375 -275 419 -275 m 306 778 l 422 1033 l 567 1033 l 407 778 l 306 778 z "},"ĉ":{"ha":618,"x_min":78,"x_max":583,"o":"m 374 -12 q 215 28 282 -12 q 113 149 149 69 q 78 342 78 228 q 114 537 78 456 q 216 660 150 618 q 374 703 282 703 q 494 682 440 703 q 583 626 547 661 l 539 528 q 471 573 508 556 q 388 590 433 590 q 255 529 301 590 q 208 340 208 468 q 256 158 208 217 q 386 100 303 100 q 470 117 433 100 q 533 158 507 135 l 581 63 q 492 8 544 28 q 374 -12 440 -12 m 172 786 l 301 1033 l 424 1033 l 553 786 l 456 786 l 363 950 l 271 786 l 172 786 z "},"ċ":{"ha":618,"x_min":78,"x_max":583,"o":"m 374 -12 q 215 28 282 -12 q 113 149 149 69 q 78 342 78 228 q 114 537 78 456 q 216 660 150 618 q 374 703 282 703 q 494 682 440 703 q 583 626 547 661 l 539 528 q 471 573 508 556 q 388 590 433 590 q 255 529 301 590 q 208 340 208 468 q 256 158 208 217 q 386 100 303 100 q 470 117 433 100 q 533 158 507 135 l 581 63 q 492 8 544 28 q 374 -12 440 -12 m 293 857 l 293 993 l 432 993 l 432 857 l 293 857 z "},"d":{"ha":776,"x_min":78,"x_max":667,"o":"m 340 -12 q 198 31 257 -12 q 108 156 139 75 q 78 346 78 236 q 108 534 78 454 q 198 658 139 614 q 338 703 257 703 q 460 666 413 703 q 531 556 507 629 l 536 556 l 536 979 l 667 979 l 667 0 l 550 0 l 550 143 l 543 143 q 465 25 515 63 q 340 -12 415 -12 m 372 93 q 498 160 457 93 q 539 346 539 226 q 498 531 539 465 q 374 597 457 597 q 248 531 289 597 q 207 346 207 465 q 247 160 207 226 q 372 93 288 93 z "},"ð":{"ha":731,"x_min":78,"x_max":668,"o":"m 371 -12 q 213 25 278 -12 q 113 135 147 63 q 78 315 78 208 q 109 492 78 418 q 199 606 140 567 q 340 646 258 646 q 465 603 414 646 q 538 492 517 561 l 540 492 q 493 684 532 603 q 386 822 454 765 l 404 818 l 224 725 l 190 796 l 340 874 l 336 854 q 275 888 311 872 q 197 913 239 904 l 221 992 q 342 960 288 982 q 444 903 397 938 l 413 906 l 582 992 l 615 922 l 490 856 l 489 869 q 587 741 547 815 q 647 574 626 667 q 668 369 668 481 q 633 161 668 246 q 532 32 599 76 q 371 -12 465 -12 m 371 92 q 495 146 454 92 q 536 315 536 200 q 494 486 536 432 q 371 540 453 540 q 249 484 292 540 q 207 315 207 428 q 250 149 207 206 q 371 92 293 92 z "},"ď":{"ha":776,"x_min":78,"x_max":826,"o":"m 340 -12 q 198 31 257 -12 q 108 156 139 75 q 78 346 78 236 q 108 534 78 454 q 198 658 139 614 q 338 703 257 703 q 460 666 413 703 q 531 556 507 629 l 536 556 l 536 979 l 667 979 l 667 0 l 550 0 l 550 143 l 543 143 q 465 25 515 63 q 340 -12 415 -12 m 372 93 q 498 160 457 93 q 539 346 539 226 q 498 531 539 465 q 374 597 457 597 q 248 531 289 597 q 207 346 207 465 q 247 160 207 226 q 372 93 288 93 m 722 710 l 722 979 l 826 979 l 799 710 l 722 710 z "},"đ":{"ha":790,"x_min":78,"x_max":758,"o":"m 340 -12 q 198 31 257 -12 q 108 152 139 74 q 78 336 78 231 q 109 519 78 440 q 199 641 140 597 q 339 685 257 685 q 460 649 413 685 q 532 538 507 613 l 538 538 l 538 768 l 328 768 l 328 854 l 538 854 l 538 979 l 667 979 l 667 857 l 758 857 l 758 768 l 667 768 l 667 0 l 550 0 l 550 144 l 544 144 q 466 26 517 65 q 340 -12 415 -12 m 372 89 q 498 153 457 89 q 539 335 539 217 q 498 517 539 451 q 374 582 457 582 q 281 553 318 582 q 225 468 243 524 q 207 335 207 413 q 247 152 207 215 q 372 89 288 89 z "},"ḍ":{"ha":776,"x_min":78,"x_max":667,"o":"m 340 -12 q 198 31 257 -12 q 108 156 139 75 q 78 346 78 236 q 108 534 78 454 q 198 658 139 614 q 338 703 257 703 q 460 666 413 703 q 531 556 507 629 l 536 556 l 536 979 l 667 979 l 667 0 l 550 0 l 550 143 l 543 143 q 465 25 515 63 q 340 -12 415 -12 m 372 93 q 498 160 457 93 q 539 346 539 226 q 498 531 539 465 q 374 597 457 597 q 248 531 289 597 q 207 346 207 465 q 247 160 207 226 q 372 93 288 93 m 289 -269 l 289 -133 l 428 -133 l 428 -269 l 289 -269 z "},"ɗ":{"ha":776,"x_min":78,"x_max":833,"o":"m 339 -12 q 197 31 256 -12 q 108 156 139 75 q 78 346 78 236 q 108 534 78 454 q 197 658 139 614 q 338 703 256 703 q 458 666 411 703 q 531 556 506 629 l 536 556 l 536 775 q 558 893 536 844 q 624 967 579 942 q 739 992 669 992 q 792 988 765 992 q 833 978 819 983 l 822 878 q 793 885 815 882 q 754 888 771 888 q 687 858 707 888 q 667 772 667 828 l 667 0 l 550 0 l 550 143 l 543 143 q 465 25 514 63 q 339 -12 415 -12 m 372 93 q 498 160 457 93 q 539 346 539 226 q 498 531 539 465 q 372 597 457 597 q 247 531 288 597 q 207 346 207 465 q 247 160 207 226 q 372 93 288 93 z "},"ḏ":{"ha":776,"x_min":78,"x_max":667,"o":"m 340 -12 q 198 31 257 -12 q 108 156 139 75 q 78 346 78 236 q 108 534 78 454 q 198 658 139 614 q 338 703 257 703 q 460 666 413 703 q 531 556 507 629 l 536 556 l 536 979 l 667 979 l 667 0 l 550 0 l 550 143 l 543 143 q 465 25 515 63 q 340 -12 415 -12 m 372 93 q 498 160 457 93 q 539 346 539 226 q 498 531 539 465 q 374 597 457 597 q 248 531 289 597 q 207 346 207 465 q 247 160 207 226 q 372 93 288 93 m 165 -235 l 165 -133 l 551 -133 l 551 -235 l 165 -235 z "},"ǆ":{"ha":1414,"x_min":78,"x_max":1347,"o":"m 340 -12 q 198 31 257 -12 q 108 156 139 75 q 78 346 78 236 q 108 534 78 454 q 198 658 139 614 q 338 703 257 703 q 460 666 413 703 q 531 556 507 629 l 536 556 l 536 979 l 667 979 l 667 0 l 550 0 l 550 143 l 543 143 q 465 25 515 63 q 340 -12 415 -12 m 372 93 q 498 160 457 93 q 539 346 539 226 q 498 531 539 465 q 374 597 457 597 q 248 531 289 597 q 207 346 207 465 q 247 160 207 226 q 372 93 288 93 m 851 0 l 851 83 l 1206 628 l 1214 583 l 863 583 l 863 690 l 1333 690 l 1333 607 l 978 63 l 969 108 l 1349 108 l 1349 0 l 851 0 m 1042 778 l 913 1033 l 1011 1033 l 1103 860 l 1196 1033 l 1293 1033 l 1164 778 l 1042 778 z "},"e":{"ha":718,"x_min":78,"x_max":640,"o":"m 401 -12 q 227 26 300 -12 q 116 143 154 64 q 78 346 78 222 q 111 533 78 453 q 210 658 144 614 q 371 703 275 703 q 522 663 461 703 q 611 546 582 624 q 640 357 640 468 l 640 306 l 178 306 l 178 399 l 551 399 l 529 369 q 488 551 529 499 q 369 603 447 603 q 285 578 324 603 q 224 502 247 554 q 201 363 201 450 l 201 331 q 226 193 201 244 q 297 118 251 142 q 407 94 342 94 q 498 106 450 94 q 583 151 546 118 l 628 61 q 518 3 576 19 q 401 -12 460 -12 z "},"é":{"ha":718,"x_min":78,"x_max":640,"o":"m 401 -12 q 227 26 300 -12 q 116 143 154 64 q 78 346 78 222 q 111 533 78 453 q 210 658 144 614 q 371 703 275 703 q 522 663 461 703 q 611 546 582 624 q 640 357 640 468 l 640 306 l 178 306 l 178 399 l 551 399 l 529 369 q 488 551 529 499 q 369 603 447 603 q 285 578 324 603 q 224 502 247 554 q 201 363 201 450 l 201 331 q 226 193 201 244 q 297 118 251 142 q 407 94 342 94 q 498 106 450 94 q 583 151 546 118 l 628 61 q 518 3 576 19 q 401 -12 460 -12 m 313 778 l 429 1033 l 574 1033 l 414 778 l 313 778 z "},"ĕ":{"ha":718,"x_min":78,"x_max":640,"o":"m 401 -12 q 227 26 300 -12 q 116 143 154 64 q 78 346 78 222 q 111 533 78 453 q 210 658 144 614 q 371 703 275 703 q 522 663 461 703 q 611 546 582 624 q 640 357 640 468 l 640 306 l 178 306 l 178 399 l 551 399 l 529 369 q 488 551 529 499 q 369 603 447 603 q 285 578 324 603 q 224 502 247 554 q 201 363 201 450 l 201 331 q 226 193 201 244 q 297 118 251 142 q 407 94 342 94 q 498 106 450 94 q 583 151 546 118 l 628 61 q 518 3 576 19 q 401 -12 460 -12 m 369 774 q 263 803 304 774 q 201 891 221 833 q 178 1031 181 949 l 265 1038 q 292 910 269 950 q 369 869 314 869 q 447 910 425 869 q 474 1038 469 950 l 561 1031 q 538 891 558 949 q 476 803 517 833 q 369 774 435 774 z "},"ě":{"ha":718,"x_min":78,"x_max":640,"o":"m 401 -12 q 227 26 300 -12 q 116 143 154 64 q 78 346 78 222 q 111 533 78 453 q 210 658 144 614 q 371 703 275 703 q 522 663 461 703 q 611 546 582 624 q 640 357 640 468 l 640 306 l 178 306 l 178 399 l 551 399 l 529 369 q 488 551 529 499 q 369 603 447 603 q 285 578 324 603 q 224 502 247 554 q 201 363 201 450 l 201 331 q 226 193 201 244 q 297 118 251 142 q 407 94 342 94 q 498 106 450 94 q 583 151 546 118 l 628 61 q 518 3 576 19 q 401 -12 460 -12 m 308 778 l 179 1033 l 278 1033 l 369 860 l 463 1033 l 560 1033 l 431 778 l 308 778 z "},"ḝ":{"ha":718,"x_min":78,"x_max":640,"o":"m 401 -12 q 227 26 300 -12 q 116 143 154 64 q 78 346 78 222 q 111 533 78 453 q 210 658 144 614 q 371 703 275 703 q 522 663 461 703 q 611 546 582 624 q 640 357 640 468 l 640 306 l 178 306 l 178 399 l 551 399 l 529 369 q 488 551 529 499 q 369 603 447 603 q 285 578 324 603 q 224 502 247 554 q 201 363 201 450 l 201 331 q 226 193 201 244 q 297 118 251 142 q 407 94 342 94 q 498 106 450 94 q 583 151 546 118 l 628 61 q 518 3 576 19 q 401 -12 460 -12 m 375 -275 q 310 -268 344 -275 q 254 -249 275 -261 l 275 -182 q 318 -200 294 -193 q 369 -207 342 -207 q 421 -195 404 -207 q 438 -158 438 -183 q 424 -126 438 -136 q 388 -115 410 -115 q 361 -118 376 -115 q 333 -125 346 -121 l 310 -104 l 331 28 l 400 28 l 383 -83 l 351 -68 q 383 -60 363 -62 q 425 -57 403 -57 q 474 -68 451 -57 q 512 -102 497 -79 q 526 -158 526 -125 q 508 -223 526 -197 q 454 -262 489 -249 q 375 -275 419 -275 m 369 774 q 263 803 304 774 q 201 891 221 833 q 178 1031 181 949 l 265 1038 q 292 910 269 950 q 369 869 314 869 q 447 910 425 869 q 474 1038 469 950 l 561 1031 q 538 891 558 949 q 476 803 517 833 q 369 774 435 774 z "},"ê":{"ha":718,"x_min":78,"x_max":640,"o":"m 401 -12 q 227 26 300 -12 q 116 143 154 64 q 78 346 78 222 q 111 533 78 453 q 210 658 144 614 q 371 703 275 703 q 522 663 461 703 q 611 546 582 624 q 640 357 640 468 l 640 306 l 178 306 l 178 399 l 551 399 l 529 369 q 488 551 529 499 q 369 603 447 603 q 285 578 324 603 q 224 502 247 554 q 201 363 201 450 l 201 331 q 226 193 201 244 q 297 118 251 142 q 407 94 342 94 q 498 106 450 94 q 583 151 546 118 l 628 61 q 518 3 576 19 q 401 -12 460 -12 m 179 786 l 308 1033 l 431 1033 l 560 786 l 463 786 l 369 950 l 278 786 l 179 786 z "},"ế":{"ha":718,"x_min":78,"x_max":692,"o":"m 401 -12 q 227 26 300 -12 q 116 143 154 64 q 78 346 78 222 q 111 533 78 453 q 210 658 144 614 q 371 703 275 703 q 522 663 461 703 q 611 546 582 624 q 640 357 640 468 l 640 306 l 178 306 l 178 399 l 551 399 l 529 369 q 488 551 529 499 q 369 603 447 603 q 285 578 324 603 q 224 502 247 554 q 201 363 201 450 l 201 331 q 226 193 201 244 q 297 118 251 142 q 407 94 342 94 q 498 106 450 94 q 583 151 546 118 l 628 61 q 518 3 576 19 q 401 -12 460 -12 m 178 789 l 311 1008 l 432 1008 l 564 789 l 465 789 l 371 931 l 275 789 l 178 789 m 496 951 l 579 1164 l 692 1164 l 576 951 l 496 951 z "},"ệ":{"ha":718,"x_min":78,"x_max":640,"o":"m 401 -12 q 227 26 300 -12 q 116 143 154 64 q 78 346 78 222 q 111 533 78 453 q 210 658 144 614 q 371 703 275 703 q 522 663 461 703 q 611 546 582 624 q 640 357 640 468 l 640 306 l 178 306 l 178 399 l 551 399 l 529 369 q 488 551 529 499 q 369 603 447 603 q 285 578 324 603 q 224 502 247 554 q 201 363 201 450 l 201 331 q 226 193 201 244 q 297 118 251 142 q 407 94 342 94 q 498 106 450 94 q 583 151 546 118 l 628 61 q 518 3 576 19 q 401 -12 460 -12 m 297 -269 l 297 -133 l 436 -133 l 436 -269 l 297 -269 m 179 786 l 308 1033 l 431 1033 l 560 786 l 463 786 l 369 950 l 278 786 l 179 786 z "},"ề":{"ha":718,"x_min":78,"x_max":640,"o":"m 401 -12 q 227 26 300 -12 q 116 143 154 64 q 78 346 78 222 q 111 533 78 453 q 210 658 144 614 q 371 703 275 703 q 522 663 461 703 q 611 546 582 624 q 640 357 640 468 l 640 306 l 178 306 l 178 399 l 551 399 l 529 369 q 488 551 529 499 q 369 603 447 603 q 285 578 324 603 q 224 502 247 554 q 201 363 201 450 l 201 331 q 226 193 201 244 q 297 118 251 142 q 407 94 342 94 q 498 106 450 94 q 583 151 546 118 l 628 61 q 518 3 576 19 q 401 -12 460 -12 m 178 789 l 311 1008 l 432 1008 l 564 789 l 465 789 l 371 931 l 275 789 l 178 789 m 539 951 l 425 1164 l 539 1164 l 621 951 l 539 951 z "},"ể":{"ha":718,"x_min":78,"x_max":650,"o":"m 401 -12 q 227 26 300 -12 q 116 143 154 64 q 78 346 78 222 q 111 533 78 453 q 210 658 144 614 q 371 703 275 703 q 522 663 461 703 q 611 546 582 624 q 640 357 640 468 l 640 306 l 178 306 l 178 399 l 551 399 l 529 369 q 488 551 529 499 q 369 603 447 603 q 285 578 324 603 q 224 502 247 554 q 201 363 201 450 l 201 331 q 226 193 201 244 q 297 118 251 142 q 407 94 342 94 q 498 106 450 94 q 583 151 546 118 l 628 61 q 518 3 576 19 q 401 -12 460 -12 m 178 793 l 311 1013 l 432 1013 l 564 793 l 465 793 l 371 935 l 275 793 l 178 793 m 493 960 q 502 998 493 982 q 524 1028 511 1014 q 545 1053 536 1042 q 554 1079 554 1065 q 540 1103 554 1094 q 506 1111 526 1111 q 474 1106 490 1111 q 444 1090 457 1100 l 425 1150 q 474 1172 444 1164 q 540 1179 503 1179 q 622 1159 592 1179 q 651 1103 651 1139 q 640 1058 651 1076 q 613 1026 628 1040 q 587 997 599 1013 q 574 960 575 981 l 493 960 z "},"ễ":{"ha":718,"x_min":78,"x_max":640,"o":"m 401 -12 q 227 26 300 -12 q 116 143 154 64 q 78 346 78 222 q 111 533 78 453 q 210 658 144 614 q 371 703 275 703 q 522 663 461 703 q 611 546 582 624 q 640 357 640 468 l 640 306 l 178 306 l 178 399 l 551 399 l 529 369 q 488 551 529 499 q 369 603 447 603 q 285 578 324 603 q 224 502 247 554 q 201 363 201 450 l 201 331 q 226 193 201 244 q 297 118 251 142 q 407 94 342 94 q 498 106 450 94 q 583 151 546 118 l 628 61 q 518 3 576 19 q 401 -12 460 -12 m 176 789 l 310 982 l 431 982 l 563 789 l 464 789 l 369 911 l 275 789 l 176 789 m 240 1028 l 169 1032 q 185 1109 172 1076 q 222 1160 197 1142 q 288 1178 247 1178 q 347 1163 322 1178 q 386 1138 371 1147 q 411 1121 393 1133 q 450 1108 429 1108 q 483 1126 471 1108 q 499 1181 494 1143 l 571 1174 q 538 1069 565 1108 q 450 1029 510 1029 q 392 1044 415 1029 q 358 1065 368 1058 q 322 1088 338 1079 q 289 1097 307 1097 q 258 1081 271 1097 q 240 1028 246 1064 z "},"ȅ":{"ha":718,"x_min":78,"x_max":640,"o":"m 401 -12 q 227 26 300 -12 q 116 143 154 64 q 78 346 78 222 q 111 533 78 453 q 210 658 144 614 q 371 703 275 703 q 522 663 461 703 q 611 546 582 624 q 640 357 640 468 l 640 306 l 178 306 l 178 399 l 551 399 l 529 369 q 488 551 529 499 q 369 603 447 603 q 285 578 324 603 q 224 502 247 554 q 201 363 201 450 l 201 331 q 226 193 201 244 q 297 118 251 142 q 407 94 342 94 q 498 106 450 94 q 583 151 546 118 l 628 61 q 518 3 576 19 q 401 -12 460 -12 m 418 778 l 319 1033 l 440 1033 l 494 778 l 418 778 m 250 778 l 150 1033 l 269 1033 l 325 778 l 250 778 z "},"ë":{"ha":718,"x_min":78,"x_max":640,"o":"m 401 -12 q 227 26 300 -12 q 116 143 154 64 q 78 346 78 222 q 111 533 78 453 q 210 658 144 614 q 371 703 275 703 q 522 663 461 703 q 611 546 582 624 q 640 357 640 468 l 640 306 l 178 306 l 178 399 l 551 399 l 529 369 q 488 551 529 499 q 369 603 447 603 q 285 578 324 603 q 224 502 247 554 q 201 363 201 450 l 201 331 q 226 193 201 244 q 297 118 251 142 q 407 94 342 94 q 498 106 450 94 q 583 151 546 118 l 628 61 q 518 3 576 19 q 401 -12 460 -12 m 422 853 l 422 989 l 558 989 l 558 853 l 422 853 m 181 853 l 181 989 l 317 989 l 317 853 l 181 853 z "},"ė":{"ha":718,"x_min":78,"x_max":640,"o":"m 401 -12 q 227 26 300 -12 q 116 143 154 64 q 78 346 78 222 q 111 533 78 453 q 210 658 144 614 q 371 703 275 703 q 522 663 461 703 q 611 546 582 624 q 640 357 640 468 l 640 306 l 178 306 l 178 399 l 551 399 l 529 369 q 488 551 529 499 q 369 603 447 603 q 285 578 324 603 q 224 502 247 554 q 201 363 201 450 l 201 331 q 226 193 201 244 q 297 118 251 142 q 407 94 342 94 q 498 106 450 94 q 583 151 546 118 l 628 61 q 518 3 576 19 q 401 -12 460 -12 m 300 857 l 300 993 l 439 993 l 439 857 l 300 857 z "},"ẹ":{"ha":718,"x_min":78,"x_max":640,"o":"m 401 -12 q 227 26 300 -12 q 116 143 154 64 q 78 346 78 222 q 111 533 78 453 q 210 658 144 614 q 371 703 275 703 q 522 663 461 703 q 611 546 582 624 q 640 357 640 468 l 640 306 l 178 306 l 178 399 l 551 399 l 529 369 q 488 551 529 499 q 369 603 447 603 q 285 578 324 603 q 224 502 247 554 q 201 363 201 450 l 201 331 q 226 193 201 244 q 297 118 251 142 q 407 94 342 94 q 498 106 450 94 q 583 151 546 118 l 628 61 q 518 3 576 19 q 401 -12 460 -12 m 297 -269 l 297 -133 l 436 -133 l 436 -269 l 297 -269 z "},"è":{"ha":718,"x_min":78,"x_max":640,"o":"m 401 -12 q 227 26 300 -12 q 116 143 154 64 q 78 346 78 222 q 111 533 78 453 q 210 658 144 614 q 371 703 275 703 q 522 663 461 703 q 611 546 582 624 q 640 357 640 468 l 640 306 l 178 306 l 178 399 l 551 399 l 529 369 q 488 551 529 499 q 369 603 447 603 q 285 578 324 603 q 224 502 247 554 q 201 363 201 450 l 201 331 q 226 193 201 244 q 297 118 251 142 q 407 94 342 94 q 498 106 450 94 q 583 151 546 118 l 628 61 q 518 3 576 19 q 401 -12 460 -12 m 325 782 l 167 1033 l 310 1033 l 426 782 l 325 782 z "},"ẻ":{"ha":718,"x_min":78,"x_max":640,"o":"m 401 -12 q 227 26 300 -12 q 116 143 154 64 q 78 346 78 222 q 111 533 78 453 q 210 658 144 614 q 371 703 275 703 q 522 663 461 703 q 611 546 582 624 q 640 357 640 468 l 640 306 l 178 306 l 178 399 l 551 399 l 529 369 q 488 551 529 499 q 369 603 447 603 q 285 578 324 603 q 224 502 247 554 q 201 363 201 450 l 201 331 q 226 193 201 244 q 297 118 251 142 q 407 94 342 94 q 498 106 450 94 q 583 151 546 118 l 628 61 q 518 3 576 19 q 401 -12 460 -12 m 321 782 l 321 811 q 332 862 321 842 q 356 897 343 882 q 380 926 369 911 q 390 963 390 942 q 378 992 390 982 q 339 1003 365 1003 q 305 999 324 1003 q 267 985 286 994 l 244 1053 q 303 1074 271 1067 q 372 1082 335 1082 q 472 1056 438 1082 q 507 981 507 1031 q 493 924 507 946 q 462 885 479 901 q 431 851 444 869 q 417 804 417 833 l 417 782 l 321 782 z "},"ȇ":{"ha":718,"x_min":78,"x_max":640,"o":"m 401 -12 q 227 26 300 -12 q 116 143 154 64 q 78 346 78 222 q 111 533 78 453 q 210 658 144 614 q 371 703 275 703 q 522 663 461 703 q 611 546 582 624 q 640 357 640 468 l 640 306 l 178 306 l 178 399 l 551 399 l 529 369 q 488 551 529 499 q 369 603 447 603 q 285 578 324 603 q 224 502 247 554 q 201 363 201 450 l 201 331 q 226 193 201 244 q 297 118 251 142 q 407 94 342 94 q 498 106 450 94 q 583 151 546 118 l 628 61 q 518 3 576 19 q 401 -12 460 -12 m 265 774 l 178 782 q 201 922 181 864 q 263 1008 222 979 q 369 1038 304 1038 q 476 1008 435 1038 q 538 922 518 979 q 561 782 558 864 l 474 774 q 447 902 469 861 q 369 943 425 943 q 292 902 314 943 q 265 774 269 861 z "},"ē":{"ha":718,"x_min":78,"x_max":640,"o":"m 401 -12 q 227 26 300 -12 q 116 143 154 64 q 78 346 78 222 q 111 533 78 453 q 210 658 144 614 q 371 703 275 703 q 522 663 461 703 q 611 546 582 624 q 640 357 640 468 l 640 306 l 178 306 l 178 399 l 551 399 l 529 369 q 488 551 529 499 q 369 603 447 603 q 285 578 324 603 q 224 502 247 554 q 201 363 201 450 l 201 331 q 226 193 201 244 q 297 118 251 142 q 407 94 342 94 q 498 106 450 94 q 583 151 546 118 l 628 61 q 518 3 576 19 q 401 -12 460 -12 m 176 871 l 176 972 l 563 972 l 563 871 l 176 871 z "},"ḗ":{"ha":718,"x_min":78,"x_max":640,"o":"m 401 -12 q 227 26 300 -12 q 116 143 154 64 q 78 346 78 222 q 111 533 78 453 q 210 658 144 614 q 371 703 275 703 q 522 663 461 703 q 611 546 582 624 q 640 357 640 468 l 640 306 l 178 306 l 178 399 l 551 399 l 529 369 q 488 551 529 499 q 369 603 447 603 q 285 578 324 603 q 224 502 247 554 q 201 363 201 450 l 201 331 q 226 193 201 244 q 297 118 251 142 q 407 94 342 94 q 498 106 450 94 q 583 151 546 118 l 628 61 q 518 3 576 19 q 401 -12 460 -12 m 186 815 l 186 908 l 553 908 l 553 815 l 186 815 m 300 968 l 399 1171 l 540 1171 l 394 968 l 300 968 z "},"ḕ":{"ha":718,"x_min":78,"x_max":640,"o":"m 401 -12 q 227 26 300 -12 q 116 143 154 64 q 78 346 78 222 q 111 533 78 453 q 210 658 144 614 q 371 703 275 703 q 522 663 461 703 q 611 546 582 624 q 640 357 640 468 l 640 306 l 178 306 l 178 399 l 551 399 l 529 369 q 488 551 529 499 q 369 603 447 603 q 285 578 324 603 q 224 502 247 554 q 201 363 201 450 l 201 331 q 226 193 201 244 q 297 118 251 142 q 407 94 342 94 q 498 106 450 94 q 583 151 546 118 l 628 61 q 518 3 576 19 q 401 -12 460 -12 m 186 815 l 186 908 l 553 908 l 553 815 l 186 815 m 344 968 l 200 1171 l 340 1171 l 439 968 l 344 968 z "},"ę":{"ha":718,"x_min":78,"x_max":640,"o":"m 401 -12 q 227 26 300 -12 q 116 143 154 64 q 78 346 78 222 q 111 533 78 453 q 210 658 144 614 q 371 703 275 703 q 522 663 461 703 q 611 546 582 624 q 640 357 640 468 l 640 306 l 178 306 l 178 399 l 551 399 l 529 369 q 488 551 529 499 q 369 603 447 603 q 285 578 324 603 q 224 502 247 554 q 201 363 201 450 l 201 331 q 226 193 201 244 q 297 118 251 142 q 407 94 342 94 q 498 106 450 94 q 583 151 546 118 l 628 61 q 518 3 576 19 q 401 -12 460 -12 m 454 -276 q 353 -242 390 -276 q 315 -147 315 -208 q 349 -42 315 -92 q 436 44 382 7 l 481 0 q 444 -33 460 -14 q 419 -76 428 -53 q 411 -124 411 -99 q 427 -174 411 -157 q 471 -190 443 -190 q 499 -186 483 -190 q 529 -176 514 -182 l 550 -254 q 504 -271 526 -265 q 454 -276 482 -276 z "},"ẽ":{"ha":718,"x_min":78,"x_max":640,"o":"m 401 -12 q 227 26 300 -12 q 116 143 154 64 q 78 346 78 222 q 111 533 78 453 q 210 658 144 614 q 371 703 275 703 q 522 663 461 703 q 611 546 582 624 q 640 357 640 468 l 640 306 l 178 306 l 178 399 l 551 399 l 529 369 q 488 551 529 499 q 369 603 447 603 q 285 578 324 603 q 224 502 247 554 q 201 363 201 450 l 201 331 q 226 193 201 244 q 297 118 251 142 q 407 94 342 94 q 498 106 450 94 q 583 151 546 118 l 628 61 q 518 3 576 19 q 401 -12 460 -12 m 226 822 l 151 828 q 183 955 151 906 q 272 1004 214 1004 q 342 984 314 1004 q 389 953 371 964 q 421 931 401 946 q 463 917 440 917 q 501 940 490 917 q 513 1007 511 964 l 588 1003 q 558 874 589 922 q 467 825 526 825 q 395 845 425 825 q 350 876 365 865 q 319 899 339 885 q 276 913 299 913 q 240 890 251 913 q 226 822 228 867 z "},"ə":{"ha":718,"x_min":76,"x_max":640,"o":"m 340 -12 q 194 28 253 -12 q 106 147 136 69 q 76 332 76 224 l 76 385 l 540 385 l 540 292 l 167 292 l 186 319 q 226 141 186 194 q 343 88 267 88 q 433 115 394 88 q 494 195 472 142 q 517 329 517 249 l 517 361 q 492 499 517 447 q 421 573 467 550 q 308 596 375 596 q 217 585 265 596 q 135 538 169 574 l 89 629 q 197 686 139 669 q 313 703 256 703 q 490 665 417 703 q 601 549 563 628 q 640 344 640 469 q 606 158 640 239 q 506 33 572 78 q 340 -12 440 -12 z "},"ʒ":{"ha":688,"x_min":44,"x_max":626,"o":"m 314 -267 q 165 -243 238 -267 q 44 -179 92 -219 l 86 -81 q 183 -137 126 -117 q 301 -157 239 -157 q 449 -113 399 -157 q 499 22 499 -69 q 443 159 499 117 q 283 201 388 201 l 186 200 l 182 281 l 471 624 l 469 583 l 69 583 l 69 690 l 585 690 l 585 606 l 308 275 l 282 297 l 332 297 q 551 228 475 297 q 626 31 626 160 q 589 -128 626 -61 q 482 -231 551 -194 q 314 -267 413 -267 z "},"ǯ":{"ha":688,"x_min":44,"x_max":626,"o":"m 314 -267 q 165 -243 238 -267 q 44 -179 92 -219 l 86 -81 q 183 -137 126 -117 q 301 -157 239 -157 q 449 -113 399 -157 q 499 22 499 -69 q 443 159 499 117 q 283 201 388 201 l 186 200 l 182 281 l 471 624 l 469 583 l 69 583 l 69 690 l 585 690 l 585 606 l 308 275 l 282 297 l 332 297 q 551 228 475 297 q 626 31 626 160 q 589 -128 626 -61 q 482 -231 551 -194 q 314 -267 413 -267 m 265 778 l 136 1033 l 235 1033 l 326 860 l 419 1033 l 517 1033 l 388 778 l 265 778 z "},"f":{"ha":503,"x_min":33,"x_max":488,"o":"m 149 0 l 149 590 l 33 590 l 33 690 l 181 690 l 149 656 l 149 717 q 213 912 149 847 q 408 983 278 976 l 478 988 l 488 881 l 408 875 q 342 862 372 872 q 295 822 313 851 q 278 733 278 793 l 278 671 l 244 690 l 458 690 l 458 590 l 278 590 l 278 0 l 149 0 z "},"g":{"ha":774,"x_min":78,"x_max":664,"o":"m 353 -262 q 226 -241 292 -262 q 108 -183 160 -219 l 147 -82 q 216 -119 181 -103 q 288 -144 251 -135 q 353 -153 324 -153 q 494 -104 444 -153 q 543 40 543 -56 l 543 171 l 535 171 q 464 63 511 101 q 342 24 417 24 q 201 63 260 24 q 110 179 142 103 q 78 363 78 256 q 110 547 78 471 q 201 663 142 624 q 343 703 261 703 q 464 663 415 703 q 538 549 513 624 l 543 549 l 543 690 l 664 690 l 664 44 q 626 -118 664 -49 q 519 -225 589 -187 q 353 -262 450 -262 m 372 129 q 496 189 454 129 q 538 364 538 249 q 496 538 538 479 q 372 597 454 597 q 248 538 290 597 q 206 364 206 479 q 248 189 206 249 q 372 129 290 129 z "},"ğ":{"ha":774,"x_min":78,"x_max":664,"o":"m 353 -262 q 226 -241 292 -262 q 108 -183 160 -219 l 147 -82 q 216 -119 181 -103 q 288 -144 251 -135 q 353 -153 324 -153 q 494 -104 444 -153 q 543 40 543 -56 l 543 171 l 535 171 q 464 63 511 101 q 342 24 417 24 q 201 63 260 24 q 110 179 142 103 q 78 363 78 256 q 110 547 78 471 q 201 663 142 624 q 343 703 261 703 q 464 663 415 703 q 538 549 513 624 l 543 549 l 543 690 l 664 690 l 664 44 q 626 -118 664 -49 q 519 -225 589 -187 q 353 -262 450 -262 m 372 129 q 496 189 454 129 q 538 364 538 249 q 496 538 538 479 q 372 597 454 597 q 248 538 290 597 q 206 364 206 479 q 248 189 206 249 q 372 129 290 129 m 364 774 q 257 803 299 774 q 195 891 215 833 q 172 1031 175 949 l 260 1038 q 286 910 264 950 q 364 869 308 869 q 442 910 419 869 q 468 1038 464 950 l 556 1031 q 532 891 553 949 q 470 803 511 833 q 364 774 429 774 z "},"ǧ":{"ha":774,"x_min":78,"x_max":664,"o":"m 353 -262 q 226 -241 292 -262 q 108 -183 160 -219 l 147 -82 q 216 -119 181 -103 q 288 -144 251 -135 q 353 -153 324 -153 q 494 -104 444 -153 q 543 40 543 -56 l 543 171 l 535 171 q 464 63 511 101 q 342 24 417 24 q 201 63 260 24 q 110 179 142 103 q 78 363 78 256 q 110 547 78 471 q 201 663 142 624 q 343 703 261 703 q 464 663 415 703 q 538 549 513 624 l 543 549 l 543 690 l 664 690 l 664 44 q 626 -118 664 -49 q 519 -225 589 -187 q 353 -262 450 -262 m 372 129 q 496 189 454 129 q 538 364 538 249 q 496 538 538 479 q 372 597 454 597 q 248 538 290 597 q 206 364 206 479 q 248 189 206 249 q 372 129 290 129 m 303 778 l 174 1033 l 272 1033 l 364 860 l 457 1033 l 554 1033 l 425 778 l 303 778 z "},"ĝ":{"ha":774,"x_min":78,"x_max":664,"o":"m 353 -262 q 226 -241 292 -262 q 108 -183 160 -219 l 147 -82 q 216 -119 181 -103 q 288 -144 251 -135 q 353 -153 324 -153 q 494 -104 444 -153 q 543 40 543 -56 l 543 171 l 535 171 q 464 63 511 101 q 342 24 417 24 q 201 63 260 24 q 110 179 142 103 q 78 363 78 256 q 110 547 78 471 q 201 663 142 624 q 343 703 261 703 q 464 663 415 703 q 538 549 513 624 l 543 549 l 543 690 l 664 690 l 664 44 q 626 -118 664 -49 q 519 -225 589 -187 q 353 -262 450 -262 m 372 129 q 496 189 454 129 q 538 364 538 249 q 496 538 538 479 q 372 597 454 597 q 248 538 290 597 q 206 364 206 479 q 248 189 206 249 q 372 129 290 129 m 174 786 l 303 1033 l 425 1033 l 554 786 l 457 786 l 364 950 l 272 786 l 174 786 z "},"ģ":{"ha":774,"x_min":78,"x_max":664,"o":"m 353 -262 q 226 -241 292 -262 q 108 -183 160 -219 l 147 -82 q 216 -119 181 -103 q 288 -144 251 -135 q 353 -153 324 -153 q 494 -104 444 -153 q 543 40 543 -56 l 543 171 l 535 171 q 464 63 511 101 q 342 24 417 24 q 201 63 260 24 q 110 179 142 103 q 78 363 78 256 q 110 547 78 471 q 201 663 142 624 q 343 703 261 703 q 464 663 415 703 q 538 549 513 624 l 543 549 l 543 690 l 664 690 l 664 44 q 626 -118 664 -49 q 519 -225 589 -187 q 353 -262 450 -262 m 372 129 q 496 189 454 129 q 538 364 538 249 q 496 538 538 479 q 372 597 454 597 q 248 538 290 597 q 206 364 206 479 q 248 189 206 249 q 372 129 290 129 m 293 804 l 293 906 q 308 1013 293 963 q 360 1101 324 1063 l 415 1060 q 376 990 388 1026 q 365 918 365 954 l 342 936 l 433 936 l 433 804 l 293 804 z "},"ġ":{"ha":774,"x_min":78,"x_max":664,"o":"m 353 -262 q 226 -241 292 -262 q 108 -183 160 -219 l 147 -82 q 216 -119 181 -103 q 288 -144 251 -135 q 353 -153 324 -153 q 494 -104 444 -153 q 543 40 543 -56 l 543 171 l 535 171 q 464 63 511 101 q 342 24 417 24 q 201 63 260 24 q 110 179 142 103 q 78 363 78 256 q 110 547 78 471 q 201 663 142 624 q 343 703 261 703 q 464 663 415 703 q 538 549 513 624 l 543 549 l 543 690 l 664 690 l 664 44 q 626 -118 664 -49 q 519 -225 589 -187 q 353 -262 450 -262 m 372 129 q 496 189 454 129 q 538 364 538 249 q 496 538 538 479 q 372 597 454 597 q 248 538 290 597 q 206 364 206 479 q 248 189 206 249 q 372 129 290 129 m 294 857 l 294 993 l 433 993 l 433 857 l 294 857 z "},"ḡ":{"ha":774,"x_min":78,"x_max":664,"o":"m 353 -262 q 226 -241 292 -262 q 108 -183 160 -219 l 147 -82 q 216 -119 181 -103 q 288 -144 251 -135 q 353 -153 324 -153 q 494 -104 444 -153 q 543 40 543 -56 l 543 171 l 535 171 q 464 63 511 101 q 342 24 417 24 q 201 63 260 24 q 110 179 142 103 q 78 363 78 256 q 110 547 78 471 q 201 663 142 624 q 343 703 261 703 q 464 663 415 703 q 538 549 513 624 l 543 549 l 543 690 l 664 690 l 664 44 q 626 -118 664 -49 q 519 -225 589 -187 q 353 -262 450 -262 m 372 129 q 496 189 454 129 q 538 364 538 249 q 496 538 538 479 q 372 597 454 597 q 248 538 290 597 q 206 364 206 479 q 248 189 206 249 q 372 129 290 129 m 171 871 l 171 972 l 557 972 l 557 871 l 171 871 z "},"ǥ":{"ha":774,"x_min":78,"x_max":747,"o":"m 350 -262 q 223 -245 289 -262 q 106 -192 157 -228 l 140 -100 q 210 -132 174 -119 q 284 -150 247 -144 q 350 -156 321 -156 q 458 -134 415 -156 q 521 -64 501 -112 l 517 -79 l 324 -79 l 324 -11 l 556 -11 l 535 -14 q 539 10 538 -3 q 540 38 540 22 l 540 207 l 532 207 q 460 96 510 136 q 339 56 411 56 q 197 94 256 56 q 108 204 138 132 q 78 378 78 276 q 108 553 78 481 q 197 665 138 626 q 339 703 256 703 q 463 660 411 703 q 538 542 514 618 l 543 546 l 543 690 l 664 690 l 664 44 q 662 0 664 19 q 656 -35 660 -19 l 636 -11 l 747 -11 l 747 -79 l 636 -79 l 649 -60 q 544 -212 622 -162 q 350 -262 465 -262 m 372 156 q 463 182 426 156 q 519 256 500 208 q 539 369 539 303 q 496 538 539 478 q 372 597 453 597 q 281 572 318 597 q 225 496 244 546 q 206 378 206 446 q 224 258 206 308 q 281 182 243 208 q 372 156 318 156 z "},"h":{"ha":760,"x_min":110,"x_max":651,"o":"m 110 0 l 110 979 l 233 979 l 233 565 l 243 565 q 318 662 267 621 q 443 703 369 703 q 553 678 507 703 q 626 599 600 653 q 651 456 651 544 l 651 0 l 522 0 l 522 447 q 508 528 522 497 q 469 576 494 560 q 406 592 443 592 q 324 569 361 592 q 263 509 286 547 q 239 424 239 471 l 239 0 l 110 0 z "},"ħ":{"ha":772,"x_min":28,"x_max":664,"o":"m 122 0 l 122 768 l 28 768 l 28 857 l 122 857 l 122 979 l 246 979 l 246 857 l 458 857 l 458 768 l 246 768 l 246 535 l 253 535 q 328 644 278 604 q 453 685 379 685 q 610 620 557 685 q 664 429 664 556 l 664 0 l 535 0 l 535 421 q 523 502 535 468 q 485 554 511 536 q 415 572 460 572 q 331 547 368 572 q 273 481 294 522 q 251 389 251 440 l 251 0 l 122 0 z "},"ḫ":{"ha":760,"x_min":110,"x_max":651,"o":"m 110 0 l 110 979 l 233 979 l 233 565 l 243 565 q 318 662 267 621 q 443 703 369 703 q 553 678 507 703 q 626 599 600 653 q 651 456 651 544 l 651 0 l 522 0 l 522 447 q 508 528 522 497 q 469 576 494 560 q 406 592 443 592 q 324 569 361 592 q 263 509 286 547 q 239 424 239 471 l 239 0 l 110 0 m 388 -283 q 246 -232 297 -283 q 192 -89 194 -181 l 276 -82 q 306 -164 279 -136 q 388 -192 333 -192 q 469 -165 440 -192 q 499 -82 497 -137 l 583 -89 q 530 -231 581 -179 q 388 -283 479 -283 z "},"ȟ":{"ha":760,"x_min":110,"x_max":651,"o":"m 110 0 l 110 979 l 233 979 l 233 565 l 243 565 q 318 662 267 621 q 443 703 369 703 q 553 678 507 703 q 626 599 600 653 q 651 456 651 544 l 651 0 l 522 0 l 522 447 q 508 528 522 497 q 469 576 494 560 q 406 592 443 592 q 324 569 361 592 q 263 509 286 547 q 239 424 239 471 l 239 0 l 110 0 m 306 1063 l 164 1279 l 265 1279 l 365 1140 l 467 1279 l 567 1279 l 425 1063 l 306 1063 z "},"ĥ":{"ha":760,"x_min":110,"x_max":651,"o":"m 110 0 l 110 979 l 233 979 l 233 565 l 243 565 q 318 662 267 621 q 443 703 369 703 q 553 678 507 703 q 626 599 600 653 q 651 456 651 544 l 651 0 l 522 0 l 522 447 q 508 528 522 497 q 469 576 494 560 q 406 592 443 592 q 324 569 361 592 q 263 509 286 547 q 239 424 239 471 l 239 0 l 110 0 m 164 1063 l 306 1279 l 425 1279 l 567 1063 l 465 1063 l 365 1203 l 264 1063 l 164 1063 z "},"ḥ":{"ha":760,"x_min":110,"x_max":651,"o":"m 110 0 l 110 979 l 233 979 l 233 565 l 243 565 q 318 662 267 621 q 443 703 369 703 q 553 678 507 703 q 626 599 600 653 q 651 456 651 544 l 651 0 l 522 0 l 522 447 q 508 528 522 497 q 469 576 494 560 q 406 592 443 592 q 324 569 361 592 q 263 509 286 547 q 239 424 239 471 l 239 0 l 110 0 m 318 -269 l 318 -133 l 457 -133 l 457 -269 l 318 -269 z "},"i":{"ha":349,"x_min":97,"x_max":249,"o":"m 97 853 l 97 996 l 249 996 l 249 853 l 97 853 m 110 0 l 110 690 l 239 690 l 239 0 l 110 0 z "},"ı":{"ha":349,"x_min":110,"x_max":239,"o":"m 110 0 l 110 690 l 239 690 l 239 0 l 110 0 z "},"í":{"ha":349,"x_min":110,"x_max":376,"o":"m 110 0 l 110 690 l 239 690 l 239 0 l 110 0 m 117 778 l 233 1033 l 378 1033 l 218 778 l 117 778 z "},"ĭ":{"ha":349,"x_min":-18,"x_max":365,"o":"m 110 0 l 110 690 l 239 690 l 239 0 l 110 0 m 174 774 q 67 803 108 774 q 5 891 25 833 q -18 1031 -15 949 l 69 1038 q 96 910 74 950 q 174 869 118 869 q 251 910 229 869 q 278 1038 274 950 l 365 1031 q 342 891 363 949 q 280 803 321 833 q 174 774 239 774 z "},"î":{"ha":349,"x_min":-18,"x_max":364,"o":"m 110 0 l 110 690 l 239 690 l 239 0 l 110 0 m -17 786 l 113 1033 l 235 1033 l 364 786 l 267 786 l 174 950 l 82 786 l -17 786 z "},"ȉ":{"ha":349,"x_min":-46,"x_max":299,"o":"m 110 0 l 110 690 l 239 690 l 239 0 l 110 0 m 222 778 l 124 1033 l 244 1033 l 299 778 l 222 778 m 54 778 l -46 1033 l 74 1033 l 129 778 l 54 778 z "},"ï":{"ha":349,"x_min":-15,"x_max":363,"o":"m 110 0 l 110 690 l 239 690 l 239 0 l 110 0 m 226 853 l 226 989 l 363 989 l 363 853 l 226 853 m -15 853 l -15 989 l 121 989 l 121 853 l -15 853 z "},"ḯ":{"ha":349,"x_min":-11,"x_max":363,"o":"m 110 0 l 110 690 l 239 690 l 239 0 l 110 0 m 122 949 l 222 1153 l 363 1153 l 217 949 l 122 949 m -11 782 l -11 899 l 126 899 l 126 782 l -11 782 m 221 782 l 221 899 l 358 899 l 358 782 l 221 782 z "},"ị":{"ha":349,"x_min":97,"x_max":249,"o":"m 97 853 l 97 996 l 249 996 l 249 853 l 97 853 m 110 0 l 110 690 l 239 690 l 239 0 l 110 0 m 101 -269 l 101 -133 l 240 -133 l 240 -269 l 101 -269 z "},"ì":{"ha":349,"x_min":-31,"x_max":239,"o":"m 110 0 l 110 690 l 239 690 l 239 0 l 110 0 m 129 782 l -29 1033 l 114 1033 l 231 782 l 129 782 z "},"ỉ":{"ha":349,"x_min":49,"x_max":311,"o":"m 110 0 l 110 690 l 239 690 l 239 0 l 110 0 m 125 782 l 125 811 q 136 862 125 842 q 160 897 147 882 q 184 926 174 911 q 194 963 194 942 q 182 992 194 982 q 143 1003 169 1003 q 109 999 128 1003 q 71 985 90 994 l 49 1053 q 107 1074 75 1067 q 176 1082 139 1082 q 276 1056 242 1082 q 311 981 311 1031 q 297 924 311 946 q 266 885 283 901 q 235 851 249 869 q 221 804 221 833 l 221 782 l 125 782 z "},"ȋ":{"ha":349,"x_min":-18,"x_max":365,"o":"m 110 0 l 110 690 l 239 690 l 239 0 l 110 0 m 69 774 l -18 782 q 6 922 -15 864 q 67 1008 26 979 q 174 1038 108 1038 q 281 1008 239 1038 q 342 922 322 979 q 365 782 363 864 l 278 774 q 251 902 274 861 q 174 943 229 943 q 96 902 118 943 q 69 774 74 861 z "},"ĳ":{"ha":668,"x_min":97,"x_max":585,"o":"m 97 853 l 97 996 l 249 996 l 249 853 l 97 853 m 110 0 l 110 690 l 239 690 l 239 0 l 110 0 m 435 853 l 435 996 l 585 996 l 585 853 l 435 853 m 301 -268 l 290 -160 l 347 -153 q 419 -125 392 -146 q 446 -31 446 -104 l 446 690 l 575 690 l 575 -29 q 565 -123 575 -82 q 531 -192 554 -164 q 466 -236 507 -219 q 364 -261 425 -253 l 301 -268 z "},"ī":{"ha":349,"x_min":-19,"x_max":367,"o":"m 110 0 l 110 690 l 239 690 l 239 0 l 110 0 m -19 871 l -19 972 l 367 972 l 367 871 l -19 871 z "},"į":{"ha":349,"x_min":51,"x_max":286,"o":"m 110 0 l 110 690 l 239 690 l 239 0 l 110 0 m 99 853 l 99 996 l 249 996 l 249 853 l 99 853 m 192 -276 q 90 -242 128 -276 q 53 -147 53 -208 q 86 -42 53 -92 q 174 44 119 7 l 218 0 q 181 -33 197 -14 q 157 -76 165 -53 q 149 -124 149 -99 q 165 -174 149 -157 q 208 -190 181 -190 q 236 -186 221 -190 q 267 -176 251 -182 l 288 -254 q 242 -271 264 -265 q 192 -276 219 -276 z "},"ĩ":{"ha":349,"x_min":-44,"x_max":393,"o":"m 110 0 l 110 690 l 239 690 l 239 0 l 110 0 m 31 822 l -44 828 q -13 955 -44 906 q 76 1004 18 1004 q 147 984 118 1004 q 193 953 175 964 q 225 931 206 946 q 267 917 244 917 q 305 940 294 917 q 317 1007 315 964 l 392 1003 q 362 874 393 922 q 271 825 331 825 q 199 845 229 825 q 154 876 169 865 q 123 899 143 885 q 81 913 103 913 q 44 890 56 913 q 31 822 32 867 z "},"j":{"ha":319,"x_min":-58,"x_max":236,"o":"m 86 853 l 86 996 l 236 996 l 236 853 l 86 853 m -47 -268 l -58 -160 l -1 -153 q 70 -125 43 -146 q 97 -31 97 -104 l 97 690 l 226 690 l 226 -29 q 216 -123 226 -82 q 182 -192 206 -164 q 117 -236 158 -219 q 15 -261 76 -253 l -47 -268 z "},"ȷ":{"ha":319,"x_min":-58,"x_max":226,"o":"m -47 -268 l -58 -160 l -1 -153 q 70 -125 43 -146 q 97 -31 97 -104 l 97 690 l 226 690 l 226 -29 q 216 -123 226 -82 q 182 -192 206 -164 q 117 -236 158 -219 q 15 -261 76 -253 l -47 -268 z "},"ĵ":{"ha":319,"x_min":-58,"x_max":353,"o":"m -47 -268 l -58 -160 l -1 -153 q 70 -125 43 -146 q 97 -31 97 -104 l 97 690 l 226 690 l 226 -29 q 216 -123 226 -82 q 182 -192 206 -164 q 117 -236 158 -219 q 15 -261 76 -253 l -47 -268 m -29 786 l 100 1033 l 222 1033 l 351 786 l 254 786 l 161 950 l 69 786 l -29 786 z "},"k":{"ha":657,"x_min":110,"x_max":656,"o":"m 110 0 l 110 979 l 239 979 l 239 382 l 246 382 l 479 690 l 631 690 l 346 329 l 351 382 l 656 0 l 496 0 l 246 318 l 239 318 l 239 0 l 110 0 z "},"ǩ":{"ha":657,"x_min":110,"x_max":656,"o":"m 110 0 l 110 979 l 239 979 l 239 382 l 246 382 l 479 690 l 631 690 l 346 329 l 351 382 l 656 0 l 496 0 l 246 318 l 239 318 l 239 0 l 110 0 m 306 1063 l 164 1279 l 265 1279 l 365 1140 l 467 1279 l 567 1279 l 425 1063 l 306 1063 z "},"ķ":{"ha":657,"x_min":110,"x_max":656,"o":"m 110 0 l 110 979 l 239 979 l 239 382 l 246 382 l 479 690 l 631 690 l 346 329 l 351 382 l 656 0 l 496 0 l 246 318 l 239 318 l 239 0 l 110 0 m 339 -403 l 283 -362 q 319 -300 308 -335 q 331 -224 331 -265 l 350 -240 l 267 -240 l 267 -108 l 404 -108 l 404 -210 q 390 -316 404 -268 q 339 -403 375 -364 z "},"ĸ":{"ha":657,"x_min":110,"x_max":656,"o":"m 110 0 l 110 690 l 239 690 l 239 382 l 246 382 l 479 690 l 631 690 l 346 329 l 351 382 l 656 0 l 496 0 l 246 318 l 239 318 l 239 0 l 110 0 z "},"l":{"ha":408,"x_min":110,"x_max":389,"o":"m 290 -12 q 156 38 203 -12 q 110 189 110 88 l 110 979 l 239 979 l 239 199 q 245 147 239 171 q 268 107 251 122 q 315 92 285 92 q 351 94 333 92 q 382 101 369 97 l 389 3 q 340 -9 363 -6 q 290 -12 318 -12 z "},"ĺ":{"ha":408,"x_min":110,"x_max":410,"o":"m 290 -12 q 156 38 203 -12 q 110 189 110 88 l 110 979 l 239 979 l 239 199 q 245 147 239 171 q 268 107 251 122 q 315 92 285 92 q 351 94 333 92 q 382 101 369 97 l 389 3 q 340 -9 363 -6 q 290 -12 318 -12 m 121 1063 l 254 1283 l 410 1283 l 229 1063 l 121 1063 z "},"ľ":{"ha":408,"x_min":110,"x_max":399,"o":"m 290 -12 q 156 38 203 -12 q 110 189 110 88 l 110 979 l 239 979 l 239 199 q 245 147 239 171 q 268 107 251 122 q 315 92 285 92 q 351 94 333 92 q 382 101 369 97 l 389 3 q 340 -9 363 -6 q 290 -12 318 -12 m 294 710 l 294 979 l 399 979 l 371 710 l 294 710 z "},"ļ":{"ha":408,"x_min":110,"x_max":389,"o":"m 290 -12 q 156 38 203 -12 q 110 189 110 88 l 110 979 l 239 979 l 239 199 q 245 147 239 171 q 268 107 251 122 q 315 92 285 92 q 351 94 333 92 q 382 101 369 97 l 389 3 q 340 -9 363 -6 q 290 -12 318 -12 m 251 -401 l 196 -361 q 232 -299 221 -333 q 243 -222 243 -264 l 263 -239 l 179 -239 l 179 -107 l 317 -107 l 317 -208 q 302 -315 317 -267 q 251 -401 288 -362 z "},"ŀ":{"ha":469,"x_min":110,"x_max":486,"o":"m 290 -12 q 156 38 203 -12 q 110 189 110 88 l 110 979 l 239 979 l 239 199 q 245 147 239 171 q 268 107 251 122 q 315 92 285 92 q 351 94 333 92 q 382 101 369 97 l 389 3 q 340 -9 363 -6 q 290 -12 318 -12 m 332 432 l 332 565 l 485 565 l 485 432 l 332 432 z "},"ḷ":{"ha":408,"x_min":110,"x_max":389,"o":"m 290 -12 q 156 38 203 -12 q 110 189 110 88 l 110 979 l 239 979 l 239 199 q 245 147 239 171 q 268 107 251 122 q 315 92 285 92 q 351 94 333 92 q 382 101 369 97 l 389 3 q 340 -9 363 -6 q 290 -12 318 -12 m 179 -268 l 179 -132 l 318 -132 l 318 -268 l 179 -268 z "},"ǉ":{"ha":728,"x_min":110,"x_max":646,"o":"m 290 -12 q 156 38 203 -12 q 110 189 110 88 l 110 979 l 239 979 l 239 199 q 245 147 239 171 q 268 107 251 122 q 315 92 285 92 q 351 94 333 92 q 382 101 369 97 l 389 3 q 340 -9 363 -6 q 290 -12 318 -12 m 494 853 l 494 996 l 644 996 l 644 853 l 494 853 m 361 -268 l 350 -160 l 407 -153 q 478 -125 451 -146 q 506 -31 506 -104 l 506 690 l 635 690 l 635 -29 q 624 -123 635 -82 q 590 -192 614 -164 q 526 -236 567 -219 q 424 -261 485 -253 l 361 -268 z "},"ḻ":{"ha":408,"x_min":56,"x_max":442,"o":"m 290 -12 q 156 38 203 -12 q 110 189 110 88 l 110 979 l 239 979 l 239 199 q 245 147 239 171 q 268 107 251 122 q 315 92 285 92 q 351 94 333 92 q 382 101 369 97 l 389 3 q 340 -9 363 -6 q 290 -12 318 -12 m 56 -233 l 56 -132 l 442 -132 l 442 -233 l 56 -233 z "},"ł":{"ha":408,"x_min":-14,"x_max":389,"o":"m 290 -12 q 156 38 203 -12 q 110 189 110 88 l 110 979 l 239 979 l 239 199 q 245 147 239 171 q 268 107 251 122 q 315 92 285 92 q 351 94 333 92 q 382 101 369 97 l 389 3 q 340 -9 363 -6 q 290 -12 318 -12 m 44 336 l -15 425 l 324 654 l 382 565 l 44 336 z "},"m":{"ha":1140,"x_min":113,"x_max":1029,"o":"m 113 0 l 113 690 l 228 690 l 228 560 l 235 560 q 278 628 250 596 q 347 682 307 661 q 438 703 388 703 q 557 665 507 703 q 619 567 607 628 l 632 567 q 702 662 654 621 q 831 703 750 703 q 934 678 889 703 q 1004 599 979 653 q 1029 456 1029 544 l 1029 0 l 901 0 l 901 444 q 875 559 901 526 q 796 592 849 592 q 712 569 749 592 q 654 510 675 547 q 633 425 633 474 l 633 0 l 508 0 l 508 444 q 476 558 508 525 q 401 592 443 592 q 319 567 356 592 q 262 505 283 542 q 240 429 240 468 l 240 0 l 113 0 z "},"ṃ":{"ha":1140,"x_min":113,"x_max":1029,"o":"m 113 0 l 113 690 l 228 690 l 228 560 l 235 560 q 278 628 250 596 q 347 682 307 661 q 438 703 388 703 q 557 665 507 703 q 619 567 607 628 l 632 567 q 702 662 654 621 q 831 703 750 703 q 934 678 889 703 q 1004 599 979 653 q 1029 456 1029 544 l 1029 0 l 901 0 l 901 444 q 875 559 901 526 q 796 592 849 592 q 712 569 749 592 q 654 510 675 547 q 633 425 633 474 l 633 0 l 508 0 l 508 444 q 476 558 508 525 q 401 592 443 592 q 319 567 356 592 q 262 505 283 542 q 240 429 240 468 l 240 0 l 113 0 m 500 -269 l 500 -133 l 639 -133 l 639 -269 l 500 -269 z "},"n":{"ha":760,"x_min":110,"x_max":651,"o":"m 110 0 l 110 690 l 228 690 l 228 561 l 235 561 q 315 662 261 621 q 443 703 369 703 q 553 678 507 703 q 626 598 600 653 q 651 456 651 543 l 651 0 l 522 0 l 522 447 q 509 528 522 497 q 469 576 496 560 q 406 592 443 592 q 323 569 361 592 q 262 509 285 547 q 239 424 239 471 l 239 0 l 110 0 z "},"ń":{"ha":760,"x_min":110,"x_max":651,"o":"m 110 0 l 110 690 l 228 690 l 228 561 l 235 561 q 315 662 261 621 q 443 703 369 703 q 553 678 507 703 q 626 598 600 653 q 651 456 651 543 l 651 0 l 522 0 l 522 447 q 509 528 522 497 q 469 576 496 560 q 406 592 443 592 q 323 569 361 592 q 262 509 285 547 q 239 424 239 471 l 239 0 l 110 0 m 331 778 l 447 1033 l 592 1033 l 432 778 l 331 778 z "},"ŉ":{"ha":817,"x_min":-112,"x_max":710,"o":"m -40 761 l -94 801 q -56 865 -69 829 q -43 943 -43 901 l -28 926 l -112 926 l -112 1054 l 32 1054 l 32 956 q 13 847 32 896 q -40 761 -6 799 m 168 0 l 168 690 l 286 690 l 286 561 l 293 561 q 374 662 319 621 q 501 703 428 703 q 612 678 565 703 q 684 598 658 653 q 710 456 710 543 l 710 0 l 581 0 l 581 447 q 567 528 581 497 q 528 576 554 560 q 464 592 501 592 q 381 569 419 592 q 320 509 343 547 q 297 424 297 471 l 297 0 l 168 0 z "},"ň":{"ha":760,"x_min":110,"x_max":651,"o":"m 110 0 l 110 690 l 228 690 l 228 561 l 235 561 q 315 662 261 621 q 443 703 369 703 q 553 678 507 703 q 626 598 600 653 q 651 456 651 543 l 651 0 l 522 0 l 522 447 q 509 528 522 497 q 469 576 496 560 q 406 592 443 592 q 323 569 361 592 q 262 509 285 547 q 239 424 239 471 l 239 0 l 110 0 m 326 778 l 197 1033 l 296 1033 l 388 860 l 481 1033 l 578 1033 l 449 778 l 326 778 z "},"ņ":{"ha":760,"x_min":110,"x_max":651,"o":"m 110 0 l 110 690 l 228 690 l 228 561 l 235 561 q 315 662 261 621 q 443 703 369 703 q 553 678 507 703 q 626 598 600 653 q 651 456 651 543 l 651 0 l 522 0 l 522 447 q 509 528 522 497 q 469 576 496 560 q 406 592 443 592 q 323 569 361 592 q 262 509 285 547 q 239 424 239 471 l 239 0 l 110 0 m 372 -403 l 317 -362 q 353 -300 342 -335 q 364 -224 364 -265 l 383 -240 l 300 -240 l 300 -108 l 438 -108 l 438 -210 q 423 -316 438 -268 q 372 -403 408 -364 z "},"ṅ":{"ha":760,"x_min":110,"x_max":651,"o":"m 110 0 l 110 690 l 228 690 l 228 561 l 235 561 q 315 662 261 621 q 443 703 369 703 q 553 678 507 703 q 626 598 600 653 q 651 456 651 543 l 651 0 l 522 0 l 522 447 q 509 528 522 497 q 469 576 496 560 q 406 592 443 592 q 323 569 361 592 q 262 509 285 547 q 239 424 239 471 l 239 0 l 110 0 m 318 857 l 318 993 l 457 993 l 457 857 l 318 857 z "},"ṇ":{"ha":760,"x_min":110,"x_max":651,"o":"m 110 0 l 110 690 l 228 690 l 228 561 l 235 561 q 315 662 261 621 q 443 703 369 703 q 553 678 507 703 q 626 598 600 653 q 651 456 651 543 l 651 0 l 522 0 l 522 447 q 509 528 522 497 q 469 576 496 560 q 406 592 443 592 q 323 569 361 592 q 262 509 285 547 q 239 424 239 471 l 239 0 l 110 0 m 300 -269 l 300 -133 l 439 -133 l 439 -269 l 300 -269 z "},"ǌ":{"ha":1079,"x_min":110,"x_max":996,"o":"m 110 0 l 110 690 l 228 690 l 228 561 l 235 561 q 315 662 261 621 q 443 703 369 703 q 553 678 507 703 q 626 598 600 653 q 651 456 651 543 l 651 0 l 522 0 l 522 447 q 509 528 522 497 q 469 576 496 560 q 406 592 443 592 q 323 569 361 592 q 262 509 285 547 q 239 424 239 471 l 239 0 l 110 0 m 846 853 l 846 996 l 996 996 l 996 853 l 846 853 m 713 -268 l 701 -160 l 758 -153 q 830 -125 803 -146 q 857 -31 857 -104 l 857 690 l 986 690 l 986 -29 q 976 -123 986 -82 q 942 -192 965 -164 q 877 -236 918 -219 q 775 -261 836 -253 l 713 -268 z "},"ṉ":{"ha":760,"x_min":110,"x_max":651,"o":"m 110 0 l 110 690 l 228 690 l 228 561 l 235 561 q 315 662 261 621 q 443 703 369 703 q 553 678 507 703 q 626 598 600 653 q 651 456 651 543 l 651 0 l 522 0 l 522 447 q 509 528 522 497 q 469 576 496 560 q 406 592 443 592 q 323 569 361 592 q 262 509 285 547 q 239 424 239 471 l 239 0 l 110 0 m 176 -235 l 176 -133 l 563 -133 l 563 -235 l 176 -235 z "},"ñ":{"ha":760,"x_min":110,"x_max":651,"o":"m 110 0 l 110 690 l 228 690 l 228 561 l 235 561 q 315 662 261 621 q 443 703 369 703 q 553 678 507 703 q 626 598 600 653 q 651 456 651 543 l 651 0 l 522 0 l 522 447 q 509 528 522 497 q 469 576 496 560 q 406 592 443 592 q 323 569 361 592 q 262 509 285 547 q 239 424 239 471 l 239 0 l 110 0 m 244 822 l 169 828 q 201 955 169 906 q 290 1004 232 1004 q 360 984 332 1004 q 407 953 389 964 q 439 931 419 946 q 481 917 458 917 q 519 940 508 917 q 531 1007 529 964 l 606 1003 q 576 874 607 922 q 485 825 544 825 q 413 845 443 825 q 368 876 383 865 q 337 899 357 885 q 294 913 317 913 q 258 890 269 913 q 244 822 246 867 z "},"ŋ":{"ha":760,"x_min":110,"x_max":651,"o":"m 378 -268 l 368 -160 l 425 -153 q 496 -125 469 -146 q 522 -31 522 -104 l 522 447 q 509 528 522 497 q 469 576 496 560 q 403 592 443 592 q 322 569 360 592 q 262 509 285 547 q 239 424 239 471 l 239 0 l 110 0 l 110 690 l 228 690 l 228 561 l 235 561 q 314 662 261 621 q 442 703 367 703 q 551 677 504 703 q 625 597 599 651 q 651 456 651 543 l 651 -36 q 640 -126 651 -87 q 606 -193 629 -165 q 541 -237 582 -221 q 440 -261 500 -253 l 378 -268 z "},"o":{"ha":740,"x_min":78,"x_max":663,"o":"m 371 -12 q 213 28 279 -12 q 113 149 147 69 q 78 346 78 229 q 113 542 78 463 q 213 663 147 622 q 371 703 279 703 q 528 663 464 703 q 628 542 593 622 q 663 346 663 463 q 628 149 663 229 q 528 28 593 69 q 371 -12 464 -12 m 369 99 q 493 160 450 99 q 536 347 536 221 q 494 533 536 474 q 371 592 451 592 q 247 533 290 592 q 204 347 204 474 q 247 160 204 221 q 369 99 290 99 z "},"ó":{"ha":740,"x_min":78,"x_max":663,"o":"m 371 -12 q 213 28 279 -12 q 113 149 147 69 q 78 346 78 229 q 113 542 78 463 q 213 663 147 622 q 371 703 279 703 q 528 663 464 703 q 628 542 593 622 q 663 346 663 463 q 628 149 663 229 q 528 28 593 69 q 371 -12 464 -12 m 369 99 q 493 160 450 99 q 536 347 536 221 q 494 533 536 474 q 371 592 451 592 q 247 533 290 592 q 204 347 204 474 q 247 160 204 221 q 369 99 290 99 m 314 778 l 431 1033 l 575 1033 l 415 778 l 314 778 z "},"ŏ":{"ha":740,"x_min":78,"x_max":663,"o":"m 371 -12 q 213 28 279 -12 q 113 149 147 69 q 78 346 78 229 q 113 542 78 463 q 213 663 147 622 q 371 703 279 703 q 528 663 464 703 q 628 542 593 622 q 663 346 663 463 q 628 149 663 229 q 528 28 593 69 q 371 -12 464 -12 m 369 99 q 493 160 450 99 q 536 347 536 221 q 494 533 536 474 q 371 592 451 592 q 247 533 290 592 q 204 347 204 474 q 247 160 204 221 q 369 99 290 99 m 371 774 q 264 803 306 774 q 202 891 222 833 q 179 1031 182 949 l 267 1038 q 293 910 271 950 q 371 869 315 869 q 449 910 426 869 q 475 1038 471 950 l 563 1031 q 539 891 560 949 q 477 803 518 833 q 371 774 436 774 z "},"ô":{"ha":740,"x_min":78,"x_max":663,"o":"m 371 -12 q 213 28 279 -12 q 113 149 147 69 q 78 346 78 229 q 113 542 78 463 q 213 663 147 622 q 371 703 279 703 q 528 663 464 703 q 628 542 593 622 q 663 346 663 463 q 628 149 663 229 q 528 28 593 69 q 371 -12 464 -12 m 369 99 q 493 160 450 99 q 536 347 536 221 q 494 533 536 474 q 371 592 451 592 q 247 533 290 592 q 204 347 204 474 q 247 160 204 221 q 369 99 290 99 m 181 786 l 310 1033 l 432 1033 l 561 786 l 464 786 l 371 950 l 279 786 l 181 786 z "},"ố":{"ha":740,"x_min":78,"x_max":693,"o":"m 371 -12 q 213 28 279 -12 q 113 149 147 69 q 78 346 78 229 q 113 542 78 463 q 213 663 147 622 q 371 703 279 703 q 528 663 464 703 q 628 542 593 622 q 663 346 663 463 q 628 149 663 229 q 528 28 593 69 q 371 -12 464 -12 m 369 99 q 493 160 450 99 q 536 347 536 221 q 494 533 536 474 q 371 592 451 592 q 247 533 290 592 q 204 347 204 474 q 247 160 204 221 q 369 99 290 99 m 179 789 l 313 1008 l 433 1008 l 565 789 l 467 789 l 372 931 l 276 789 l 179 789 m 497 951 l 581 1164 l 693 1164 l 578 951 l 497 951 z "},"ộ":{"ha":740,"x_min":78,"x_max":663,"o":"m 371 -12 q 213 28 279 -12 q 113 149 147 69 q 78 346 78 229 q 113 542 78 463 q 213 663 147 622 q 371 703 279 703 q 528 663 464 703 q 628 542 593 622 q 663 346 663 463 q 628 149 663 229 q 528 28 593 69 q 371 -12 464 -12 m 369 99 q 493 160 450 99 q 536 347 536 221 q 494 533 536 474 q 371 592 451 592 q 247 533 290 592 q 204 347 204 474 q 247 160 204 221 q 369 99 290 99 m 301 -276 l 301 -140 l 440 -140 l 440 -276 l 301 -276 m 181 786 l 310 1033 l 432 1033 l 561 786 l 464 786 l 371 950 l 279 786 l 181 786 z "},"ồ":{"ha":740,"x_min":78,"x_max":663,"o":"m 371 -12 q 213 28 279 -12 q 113 149 147 69 q 78 346 78 229 q 113 542 78 463 q 213 663 147 622 q 371 703 279 703 q 528 663 464 703 q 628 542 593 622 q 663 346 663 463 q 628 149 663 229 q 528 28 593 69 q 371 -12 464 -12 m 369 99 q 493 160 450 99 q 536 347 536 221 q 494 533 536 474 q 371 592 451 592 q 247 533 290 592 q 204 347 204 474 q 247 160 204 221 q 369 99 290 99 m 179 789 l 313 1008 l 433 1008 l 565 789 l 467 789 l 372 931 l 276 789 l 179 789 m 540 951 l 426 1164 l 540 1164 l 622 951 l 540 951 z "},"ổ":{"ha":740,"x_min":78,"x_max":663,"o":"m 371 -12 q 213 28 279 -12 q 113 149 147 69 q 78 346 78 229 q 113 542 78 463 q 213 663 147 622 q 371 703 279 703 q 528 663 464 703 q 628 542 593 622 q 663 346 663 463 q 628 149 663 229 q 528 28 593 69 q 371 -12 464 -12 m 369 99 q 493 160 450 99 q 536 347 536 221 q 494 533 536 474 q 371 592 451 592 q 247 533 290 592 q 204 347 204 474 q 247 160 204 221 q 369 99 290 99 m 179 793 l 313 1013 l 433 1013 l 565 793 l 467 793 l 372 935 l 276 793 l 179 793 m 494 960 q 503 998 494 982 q 525 1028 513 1014 q 547 1053 538 1042 q 556 1079 556 1065 q 542 1103 556 1094 q 507 1111 528 1111 q 475 1106 492 1111 q 446 1090 458 1100 l 426 1150 q 475 1172 446 1164 q 542 1179 504 1179 q 623 1159 593 1179 q 653 1103 653 1139 q 641 1058 653 1076 q 615 1026 629 1040 q 588 997 600 1013 q 575 960 576 981 l 494 960 z "},"ỗ":{"ha":740,"x_min":78,"x_max":663,"o":"m 371 -12 q 213 28 279 -12 q 113 149 147 69 q 78 346 78 229 q 113 542 78 463 q 213 663 147 622 q 371 703 279 703 q 528 663 464 703 q 628 542 593 622 q 663 346 663 463 q 628 149 663 229 q 528 28 593 69 q 371 -12 464 -12 m 369 99 q 493 160 450 99 q 536 347 536 221 q 494 533 536 474 q 371 592 451 592 q 247 533 290 592 q 204 347 204 474 q 247 160 204 221 q 369 99 290 99 m 178 789 l 311 982 l 432 982 l 564 789 l 465 789 l 371 911 l 276 789 l 178 789 m 242 1028 l 171 1032 q 186 1109 174 1076 q 224 1160 199 1142 q 289 1178 249 1178 q 348 1163 324 1178 q 388 1138 372 1147 q 413 1121 394 1133 q 451 1108 431 1108 q 484 1126 472 1108 q 500 1181 496 1143 l 572 1174 q 539 1069 567 1108 q 451 1029 511 1029 q 393 1044 417 1029 q 360 1065 369 1058 q 324 1088 339 1079 q 290 1097 308 1097 q 260 1081 272 1097 q 242 1028 247 1064 z "},"ȍ":{"ha":740,"x_min":78,"x_max":663,"o":"m 371 -12 q 213 28 279 -12 q 113 149 147 69 q 78 346 78 229 q 113 542 78 463 q 213 663 147 622 q 371 703 279 703 q 528 663 464 703 q 628 542 593 622 q 663 346 663 463 q 628 149 663 229 q 528 28 593 69 q 371 -12 464 -12 m 369 99 q 493 160 450 99 q 536 347 536 221 q 494 533 536 474 q 371 592 451 592 q 247 533 290 592 q 204 347 204 474 q 247 160 204 221 q 369 99 290 99 m 419 778 l 321 1033 l 442 1033 l 496 778 l 419 778 m 251 778 l 151 1033 l 271 1033 l 326 778 l 251 778 z "},"ö":{"ha":740,"x_min":78,"x_max":663,"o":"m 371 -12 q 213 28 279 -12 q 113 149 147 69 q 78 346 78 229 q 113 542 78 463 q 213 663 147 622 q 371 703 279 703 q 528 663 464 703 q 628 542 593 622 q 663 346 663 463 q 628 149 663 229 q 528 28 593 69 q 371 -12 464 -12 m 369 99 q 493 160 450 99 q 536 347 536 221 q 494 533 536 474 q 371 592 451 592 q 247 533 290 592 q 204 347 204 474 q 247 160 204 221 q 369 99 290 99 m 424 853 l 424 989 l 560 989 l 560 853 l 424 853 m 182 853 l 182 989 l 318 989 l 318 853 l 182 853 z "},"ȫ":{"ha":740,"x_min":78,"x_max":663,"o":"m 371 -12 q 213 28 279 -12 q 113 149 147 69 q 78 346 78 229 q 113 542 78 463 q 213 663 147 622 q 371 703 279 703 q 528 663 464 703 q 628 542 593 622 q 663 346 663 463 q 628 149 663 229 q 528 28 593 69 q 371 -12 464 -12 m 369 99 q 493 160 450 99 q 536 347 536 221 q 494 533 536 474 q 371 592 451 592 q 247 533 290 592 q 204 347 204 474 q 247 160 204 221 q 369 99 290 99 m 178 1010 l 178 1106 l 564 1106 l 564 1010 l 178 1010 m 186 814 l 186 929 l 324 929 l 324 814 l 186 814 m 418 814 l 418 929 l 556 929 l 556 814 l 418 814 z "},"ȱ":{"ha":740,"x_min":78,"x_max":663,"o":"m 371 -12 q 213 28 279 -12 q 113 149 147 69 q 78 346 78 229 q 113 542 78 463 q 213 663 147 622 q 371 703 279 703 q 528 663 464 703 q 628 542 593 622 q 663 346 663 463 q 628 149 663 229 q 528 28 593 69 q 371 -12 464 -12 m 369 99 q 493 160 450 99 q 536 347 536 221 q 494 533 536 474 q 371 592 451 592 q 247 533 290 592 q 204 347 204 474 q 247 160 204 221 q 369 99 290 99 m 188 1019 l 188 1113 l 554 1113 l 554 1019 l 188 1019 m 300 811 l 300 938 l 442 938 l 442 811 l 300 811 z "},"ọ":{"ha":740,"x_min":78,"x_max":663,"o":"m 371 -12 q 213 28 279 -12 q 113 149 147 69 q 78 346 78 229 q 113 542 78 463 q 213 663 147 622 q 371 703 279 703 q 528 663 464 703 q 628 542 593 622 q 663 346 663 463 q 628 149 663 229 q 528 28 593 69 q 371 -12 464 -12 m 369 99 q 493 160 450 99 q 536 347 536 221 q 494 533 536 474 q 371 592 451 592 q 247 533 290 592 q 204 347 204 474 q 247 160 204 221 q 369 99 290 99 m 301 -276 l 301 -140 l 440 -140 l 440 -276 l 301 -276 z "},"ò":{"ha":740,"x_min":78,"x_max":663,"o":"m 371 -12 q 213 28 279 -12 q 113 149 147 69 q 78 346 78 229 q 113 542 78 463 q 213 663 147 622 q 371 703 279 703 q 528 663 464 703 q 628 542 593 622 q 663 346 663 463 q 628 149 663 229 q 528 28 593 69 q 371 -12 464 -12 m 369 99 q 493 160 450 99 q 536 347 536 221 q 494 533 536 474 q 371 592 451 592 q 247 533 290 592 q 204 347 204 474 q 247 160 204 221 q 369 99 290 99 m 326 782 l 168 1033 l 311 1033 l 428 782 l 326 782 z "},"ỏ":{"ha":740,"x_min":78,"x_max":663,"o":"m 371 -12 q 213 28 279 -12 q 113 149 147 69 q 78 346 78 229 q 113 542 78 463 q 213 663 147 622 q 371 703 279 703 q 528 663 464 703 q 628 542 593 622 q 663 346 663 463 q 628 149 663 229 q 528 28 593 69 q 371 -12 464 -12 m 369 99 q 493 160 450 99 q 536 347 536 221 q 494 533 536 474 q 371 592 451 592 q 247 533 290 592 q 204 347 204 474 q 247 160 204 221 q 369 99 290 99 m 322 782 l 322 811 q 333 862 322 842 q 358 897 344 882 q 381 926 371 911 q 392 963 392 942 q 379 992 392 982 q 340 1003 367 1003 q 306 999 325 1003 q 268 985 288 994 l 246 1053 q 304 1074 272 1067 q 374 1082 336 1082 q 474 1056 439 1082 q 508 981 508 1031 q 494 924 508 946 q 463 885 481 901 q 432 851 446 869 q 418 804 418 833 l 418 782 l 322 782 z "},"ơ":{"ha":740,"x_min":78,"x_max":668,"o":"m 371 -12 q 213 28 279 -12 q 113 149 147 69 q 78 346 78 229 q 113 542 78 463 q 213 663 147 622 q 371 703 279 703 q 528 663 464 703 q 628 542 593 622 q 663 346 663 463 q 628 149 663 229 q 528 28 593 69 q 371 -12 464 -12 m 369 99 q 493 160 450 99 q 536 347 536 221 q 494 533 536 474 q 371 592 451 592 q 247 533 290 592 q 204 347 204 474 q 247 160 204 221 q 369 99 290 99 m 517 617 l 442 667 l 442 690 q 508 706 485 692 q 542 754 532 721 q 551 843 551 788 l 551 864 l 669 864 l 669 825 q 652 718 669 763 q 601 649 635 674 q 517 617 567 624 z "},"ớ":{"ha":740,"x_min":78,"x_max":668,"o":"m 371 -12 q 213 28 279 -12 q 113 149 147 69 q 78 346 78 229 q 113 542 78 463 q 213 663 147 622 q 371 703 279 703 q 528 663 464 703 q 628 542 593 622 q 663 346 663 463 q 628 149 663 229 q 528 28 593 69 q 371 -12 464 -12 m 369 99 q 493 160 450 99 q 536 347 536 221 q 494 533 536 474 q 371 592 451 592 q 247 533 290 592 q 204 347 204 474 q 247 160 204 221 q 369 99 290 99 m 517 617 l 442 667 l 442 690 q 508 706 485 692 q 542 754 532 721 q 551 843 551 788 l 551 864 l 669 864 l 669 825 q 652 718 669 763 q 601 649 635 674 q 517 617 567 624 m 300 778 l 417 1033 l 561 1033 l 401 778 l 300 778 z "},"ợ":{"ha":740,"x_min":78,"x_max":668,"o":"m 371 -12 q 213 28 279 -12 q 113 149 147 69 q 78 346 78 229 q 113 542 78 463 q 213 663 147 622 q 371 703 279 703 q 528 663 464 703 q 628 542 593 622 q 663 346 663 463 q 628 149 663 229 q 528 28 593 69 q 371 -12 464 -12 m 369 99 q 493 160 450 99 q 536 347 536 221 q 494 533 536 474 q 371 592 451 592 q 247 533 290 592 q 204 347 204 474 q 247 160 204 221 q 369 99 290 99 m 517 617 l 442 667 l 442 690 q 508 706 485 692 q 542 754 532 721 q 551 843 551 788 l 551 864 l 669 864 l 669 825 q 652 718 669 763 q 601 649 635 674 q 517 617 567 624 m 301 -269 l 301 -133 l 440 -133 l 440 -269 l 301 -269 z "},"ờ":{"ha":740,"x_min":78,"x_max":668,"o":"m 371 -12 q 213 28 279 -12 q 113 149 147 69 q 78 346 78 229 q 113 542 78 463 q 213 663 147 622 q 371 703 279 703 q 528 663 464 703 q 628 542 593 622 q 663 346 663 463 q 628 149 663 229 q 528 28 593 69 q 371 -12 464 -12 m 369 99 q 493 160 450 99 q 536 347 536 221 q 494 533 536 474 q 371 592 451 592 q 247 533 290 592 q 204 347 204 474 q 247 160 204 221 q 369 99 290 99 m 517 617 l 442 667 l 442 690 q 508 706 485 692 q 542 754 532 721 q 551 843 551 788 l 551 864 l 669 864 l 669 825 q 652 718 669 763 q 601 649 635 674 q 517 617 567 624 m 313 782 l 154 1033 l 297 1033 l 414 782 l 313 782 z "},"ở":{"ha":740,"x_min":78,"x_max":668,"o":"m 371 -12 q 213 28 279 -12 q 113 149 147 69 q 78 346 78 229 q 113 542 78 463 q 213 663 147 622 q 371 703 279 703 q 528 663 464 703 q 628 542 593 622 q 663 346 663 463 q 628 149 663 229 q 528 28 593 69 q 371 -12 464 -12 m 369 99 q 493 160 450 99 q 536 347 536 221 q 494 533 536 474 q 371 592 451 592 q 247 533 290 592 q 204 347 204 474 q 247 160 204 221 q 369 99 290 99 m 517 617 l 442 667 l 442 690 q 508 706 485 692 q 542 754 532 721 q 551 843 551 788 l 551 864 l 669 864 l 669 825 q 652 718 669 763 q 601 649 635 674 q 517 617 567 624 m 308 782 l 308 811 q 319 862 308 842 q 344 897 331 882 q 367 926 357 911 q 378 963 378 942 q 365 992 378 982 q 326 1003 353 1003 q 292 999 311 1003 q 254 985 274 994 l 232 1053 q 290 1074 258 1067 q 360 1082 322 1082 q 460 1056 425 1082 q 494 981 494 1031 q 481 924 494 946 q 449 885 467 901 q 418 851 432 869 q 404 804 404 833 l 404 782 l 308 782 z "}}}
